SplineFontDB: 3.2
FontName: RobotoLegacy-Cond
FullName: Roboto Legacy Cond
FamilyName: Roboto Legacy Cond
Weight: Book
Copyright: Font data copyright Google 2011
Version: 1.00000; 2011
ItalicAngle: 0
UnderlinePosition: -200
UnderlineWidth: 100
Ascent: 1536
Descent: 512
InvalidEm: 0
sfntRevision: 0x00010000
LayerCount: 2
Layer: 0 1 "Back" 1
Layer: 1 1 "Fore" 0
XUID: [1021 474 -1613799265 18146]
StyleMap: 0x0000
FSType: 4
OS2Version: 3
OS2_WeightWidthSlopeOnly: 0
OS2_UseTypoMetrics: 0
CreationTime: 1221222574
ModificationTime: 1744076419
PfmFamily: 81
TTFWeight: 400
TTFWidth: 3
LineGap: 0
VLineGap: 0
Panose: 0 0 0 0 0 0 0 0 0 0
OS2TypoAscent: 1536
OS2TypoAOffset: 0
OS2TypoDescent: -512
OS2TypoDOffset: 0
OS2TypoLinegap: 102
OS2WinAscent: 1946
OS2WinAOffset: 0
OS2WinDescent: 512
OS2WinDOffset: 0
HheadAscent: 1900
HheadAOffset: 0
HheadDescent: -500
HheadDOffset: 0
OS2SubXSize: 1434
OS2SubYSize: 1331
OS2SubXOff: 0
OS2SubYOff: 287
OS2SupXSize: 1434
OS2SupYSize: 1331
OS2SupXOff: 0
OS2SupYOff: 977
OS2StrikeYSize: 102
OS2StrikeYPos: 512
OS2CapHeight: 1456
OS2XHeight: 1082
OS2Vendor: 'pyrs'
OS2CodePages: 2000019f.4f010000
OS2UnicodeRanges: e00002ef.5000205b.00000020.00000000
Lookup: 1 0 0 "'smcp' Lowercase to Small Capitals lookup 0" { "'smcp' Lowercase to Small Capitals lookup 0 subtable"  } ['smcp' ('DFLT' <'dflt' > ) ]
Lookup: 4 0 1 "'liga' Standard Ligatures lookup 1" { "'liga' Standard Ligatures lookup 1 subtable"  } ['liga' ('DFLT' <'dflt' > ) ]
Lookup: 258 0 0 "'kern' Horizontal Kerning lookup 0" { "'kern' Horizontal Kerning lookup 0 per glyph data 0"  "'kern' Horizontal Kerning lookup 0 per glyph data 1"  "'kern' Horizontal Kerning lookup 0 per glyph data 2"  "'kern' Horizontal Kerning lookup 0 kerning class 3"  } ['kern' ('DFLT' <'dflt' > ) ]
MarkAttachClasses: 1
DEI: 91125
KernClass2: 32+ 29 "'kern' Horizontal Kerning lookup 0 kerning class 3"

StartChar: exclam
Encoding: 33 33 4
Width: 477
GlyphClass: 1
Flags: W
LayerCount: 2
Fore
SplineSet
341 485 m 1,0,-1
 137 485 l 1,1,-1
 137 1456 l 1,2,-1
 341 1456 l 1,3,-1
 341 485 l 1,0,-1
342 0 m 1,4,-1
 136 0 l 1,5,-1
 136 204 l 1,6,-1
 342 204 l 1,7,-1
 342 0 l 1,4,-1
EndSplineSet
EndChar

StartChar: quotedbl
Encoding: 34 34 5
Width: 705
GlyphClass: 1
Flags: W
LayerCount: 2
Fore
SplineSet
313 1206 m 1,0,-1
 226 951 l 1,1,-1
 129 951 l 1,2,-1
 134 1197 l 1,3,-1
 134 1456 l 1,4,-1
 313 1456 l 1,5,-1
 313 1206 l 1,0,-1
592 1206 m 1,6,-1
 506 951 l 1,7,-1
 409 951 l 1,8,-1
 414 1203 l 1,9,-1
 414 1456 l 1,10,-1
 592 1456 l 1,11,-1
 592 1206 l 1,6,-1
EndSplineSet
EndChar

StartChar: numbersign
Encoding: 35 35 6
Width: 1085
GlyphClass: 1
Flags: W
LayerCount: 2
Fore
SplineSet
594 410 m 1,0,-1
 396 410 l 1,1,-1
 331 0 l 1,2,-1
 193 0 l 1,3,-1
 258 410 l 1,4,-1
 57 410 l 1,5,-1
 57 540 l 1,6,-1
 278 540 l 1,7,-1
 337 908 l 1,8,-1
 122 908 l 1,9,-1
 122 1040 l 1,10,-1
 358 1040 l 1,11,-1
 424 1456 l 1,12,-1
 563 1456 l 1,13,-1
 496 1040 l 1,14,-1
 694 1040 l 1,15,-1
 761 1456 l 1,16,-1
 899 1456 l 1,17,-1
 833 1040 l 1,18,-1
 1017 1040 l 1,19,-1
 1017 908 l 1,20,-1
 812 908 l 1,21,-1
 754 540 l 1,22,-1
 952 540 l 1,23,-1
 952 410 l 1,24,-1
 734 410 l 1,25,-1
 669 0 l 1,26,-1
 529 0 l 1,27,-1
 594 410 l 1,0,-1
417 540 m 1,28,-1
 615 540 l 1,29,-1
 673 908 l 1,30,-1
 475 908 l 1,31,-1
 417 540 l 1,28,-1
EndSplineSet
EndChar

StartChar: dollar
Encoding: 36 36 7
Width: 1045
GlyphClass: 1
Flags: W
LayerCount: 2
Fore
SplineSet
733 370 m 0,0,1
 733 466 733 466 685 528 c 128,-1,2
 637 590 637 590 519 645 c 1,3,4
 333 713 333 713 242.5 811 c 128,-1,5
 152 909 152 909 152 1082 c 0,6,7
 152 1246 152 1246 240 1350 c 128,-1,8
 328 1454 328 1454 481 1473 c 1,9,-1
 481 1685 l 1,10,-1
 612 1685 l 1,11,-1
 612 1472 l 1,12,13
 762 1450 762 1450 846.5 1334.5 c 128,-1,14
 931 1219 931 1219 931 1029 c 1,15,-1
 728 1029 l 1,16,17
 728 1159 728 1159 678 1238 c 128,-1,18
 628 1317 628 1317 539 1317 c 0,19,20
 446 1317 446 1317 401 1252.5 c 128,-1,21
 356 1188 356 1188 356 1084 c 0,22,23
 356 986 356 986 402 926.5 c 128,-1,24
 448 867 448 867 573 809 c 1,25,26
 757 740 757 740 847 642 c 128,-1,27
 937 544 937 544 937 372 c 0,28,29
 937 204 937 204 845.5 102 c 128,-1,30
 754 0 754 0 596 -17 c 1,31,-1
 596 -210 l 1,32,-1
 465 -210 l 1,33,-1
 465 -17 l 1,34,35
 308 0 308 0 207 107 c 128,-1,36
 106 214 106 214 109 423 c 1,37,-1
 112 428 l 1,38,-1
 308 428 l 1,39,40
 308 272 308 272 370.5 205 c 128,-1,41
 433 138 433 138 528 138 c 0,42,43
 626 138 626 138 679.5 202 c 128,-1,44
 733 266 733 266 733 370 c 0,0,1
EndSplineSet
EndChar

StartChar: percent
Encoding: 37 37 8
Width: 1370
GlyphClass: 1
Flags: W
LayerCount: 2
Fore
SplineSet
98 1176 m 2,0,1
 98 1304 98 1304 171.5 1390.5 c 128,-1,2
 245 1477 245 1477 372 1477 c 256,3,4
 499 1477 499 1477 573 1390.5 c 128,-1,5
 647 1304 647 1304 647 1176 c 2,6,-1
 647 1099 l 2,7,8
 647 971 647 971 573.5 885.5 c 128,-1,9
 500 800 500 800 374 800 c 0,10,11
 246 800 246 800 172 885.5 c 128,-1,12
 98 971 98 971 98 1099 c 2,13,-1
 98 1176 l 2,0,1
242 1099 m 2,14,15
 242 1024 242 1024 276 972 c 128,-1,16
 310 920 310 920 374 920 c 0,17,18
 435 920 435 920 469 972 c 128,-1,19
 503 1024 503 1024 503 1099 c 2,20,-1
 503 1176 l 2,21,22
 503 1251 503 1251 468.5 1304 c 128,-1,23
 434 1357 434 1357 372 1357 c 0,24,25
 309 1357 309 1357 275.5 1304 c 128,-1,26
 242 1251 242 1251 242 1176 c 2,27,-1
 242 1099 l 2,14,15
732 357 m 2,28,29
 732 484 732 484 806 570.5 c 128,-1,30
 880 657 880 657 1007 657 c 256,31,32
 1134 657 1134 657 1208 571 c 128,-1,33
 1282 485 1282 485 1282 357 c 2,34,-1
 1282 279 l 2,35,36
 1282 150 1282 150 1208 64.5 c 128,-1,37
 1134 -21 1134 -21 1008 -21 c 0,38,39
 880 -21 880 -21 806 65 c 128,-1,40
 732 151 732 151 732 279 c 2,41,-1
 732 357 l 2,28,29
876 279 m 2,42,43
 876 205 876 205 911.5 152 c 128,-1,44
 947 99 947 99 1008 99 c 0,45,46
 1073 99 1073 99 1105.5 150 c 128,-1,47
 1138 201 1138 201 1138 279 c 2,48,-1
 1138 357 l 2,49,50
 1138 433 1138 433 1104 485 c 128,-1,51
 1070 537 1070 537 1007 537 c 256,52,53
 944 537 944 537 910 485 c 128,-1,54
 876 433 876 433 876 357 c 2,55,-1
 876 279 l 2,42,43
439 113 m 1,56,-1
 334 176 l 1,57,-1
 946 1314 l 1,58,-1
 1051 1251 l 1,59,-1
 439 113 l 1,56,-1
EndSplineSet
EndChar

StartChar: ampersand
Encoding: 38 38 9
Width: 1189
GlyphClass: 1
Flags: W
LayerCount: 2
Fore
SplineSet
67 383 m 0,0,1
 67 506 67 506 130 598 c 128,-1,2
 193 690 193 690 318 788 c 1,3,4
 250 885 250 885 217 964 c 128,-1,5
 184 1043 184 1043 184 1125 c 0,6,7
 184 1294 184 1294 274 1385.5 c 128,-1,8
 364 1477 364 1477 520 1477 c 0,9,10
 661 1477 661 1477 748 1387.5 c 128,-1,11
 835 1298 835 1298 835 1169 c 0,12,13
 835 1071 835 1071 793.5 1000.5 c 128,-1,14
 752 930 752 930 672 864 c 2,15,-1
 561 774 l 1,16,-1
 857 384 l 1,17,-1
 863 385 l 1,18,19
 895 443 895 443 913 517 c 128,-1,20
 931 591 931 591 931 675 c 1,21,-1
 1103 675 l 1,22,23
 1103 543 1103 543 1069.5 432.5 c 128,-1,24
 1036 322 1036 322 969 236 c 1,25,-1
 1148 0 l 1,26,-1
 909 0 l 1,27,-1
 830 105 l 1,28,29
 755 43 755 43 670.5 11 c 128,-1,30
 586 -21 586 -21 491 -21 c 0,31,32
 297 -21 297 -21 182 90.5 c 128,-1,33
 67 202 67 202 67 383 c 0,0,1
497 133 m 0,34,35
 561 133 561 133 623 156.5 c 128,-1,36
 685 180 685 180 739 226 c 1,37,-1
 416 656 l 1,38,-1
 395 639 l 1,39,40
 323 567 323 567 298 504.5 c 128,-1,41
 273 442 273 442 273 388 c 0,42,43
 273 278 273 278 332 205.5 c 128,-1,44
 391 133 391 133 497 133 c 0,34,35
375 1127 m 0,45,46
 375 1077 375 1077 397.5 1022 c 128,-1,47
 420 967 420 967 465 903 c 1,48,-1
 568 983 l 2,49,50
 619 1023 619 1023 637.5 1067 c 128,-1,51
 656 1111 656 1111 656 1164 c 0,52,53
 656 1229 656 1229 619 1275 c 128,-1,54
 582 1321 582 1321 517 1321 c 0,55,56
 450 1321 450 1321 412.5 1265 c 128,-1,57
 375 1209 375 1209 375 1127 c 0,45,46
EndSplineSet
EndChar

StartChar: quotesingle
Encoding: 39 39 10
Width: 408
GlyphClass: 1
Flags: W
LayerCount: 2
Fore
SplineSet
304 1230 m 1,0,-1
 217 951 l 1,1,-1
 107 951 l 1,2,-1
 112 1217 l 1,3,-1
 112 1456 l 1,4,-1
 304 1456 l 1,5,-1
 304 1230 l 1,0,-1
EndSplineSet
EndChar

StartChar: parenleft
Encoding: 40 40 11
Width: 607
GlyphClass: 1
Flags: W
LayerCount: 2
Fore
SplineSet
117 590 m 2,0,1
 117 969 117 969 249.5 1250.5 c 128,-1,2
 382 1532 382 1532 538 1623 c 1,3,-1
 544 1623 l 1,4,-1
 581 1515 l 1,5,6
 467 1413 467 1413 384 1171 c 128,-1,7
 301 929 301 929 301 592 c 2,8,-1
 301 572 l 2,9,10
 301 235 301 235 384 -6 c 128,-1,11
 467 -247 467 -247 581 -355 c 1,12,-1
 544 -457 l 1,13,-1
 538 -457 l 1,14,15
 381 -366 381 -366 249 -88 c 128,-1,16
 117 190 117 190 117 574 c 2,17,-1
 117 590 l 2,0,1
EndSplineSet
EndChar

StartChar: parenright
Encoding: 41 41 12
Width: 612
GlyphClass: 1
Flags: W
LayerCount: 2
Fore
SplineSet
495 574 m 2,0,1
 495 194 495 194 360.5 -86 c 128,-1,2
 226 -366 226 -366 68 -457 c 1,3,-1
 62 -457 l 1,4,-1
 23 -355 l 1,5,6
 136 -253 136 -253 220.5 -9.5 c 128,-1,7
 305 234 305 234 305 572 c 2,8,-1
 305 592 l 2,9,10
 305 926 305 926 218.5 1171.5 c 128,-1,11
 132 1417 132 1417 23 1521 c 1,12,-1
 62 1623 l 1,13,-1
 68 1623 l 1,14,15
 225 1533 225 1533 360 1249.5 c 128,-1,16
 495 966 495 966 495 590 c 2,17,-1
 495 574 l 2,0,1
EndSplineSet
EndChar

StartChar: asterisk
Encoding: 42 42 13
Width: 793
GlyphClass: 1
Flags: W
LayerCount: 2
Fore
SplineSet
284 690 m 1,0,-1
 68 764 l 1,1,-1
 111 901 l 1,2,-1
 332 814 l 1,3,-1
 329 1081 l 1,4,-1
 470 1081 l 1,5,-1
 470 808 l 1,6,-1
 683 897 l 1,7,-1
 727 759 l 1,8,-1
 507 681 l 1,9,-1
 641 468 l 1,10,-1
 526 382 l 1,11,-1
 392 607 l 1,12,-1
 262 388 l 1,13,-1
 145 470 l 1,14,-1
 284 690 l 1,0,-1
EndSplineSet
EndChar

StartChar: plus
Encoding: 43 43 14
Width: 1037
GlyphClass: 1
Flags: W
LayerCount: 2
Fore
SplineSet
614 774 m 1,0,-1
 964 774 l 1,1,-1
 964 600 l 1,2,-1
 614 600 l 1,3,-1
 614 146 l 1,4,-1
 415 146 l 1,5,-1
 415 600 l 1,6,-1
 66 600 l 1,7,-1
 66 774 l 1,8,-1
 415 774 l 1,9,-1
 415 1206 l 1,10,-1
 614 1206 l 1,11,-1
 614 774 l 1,0,-1
EndSplineSet
EndChar

StartChar: comma
Encoding: 44 44 15
Width: 414
GlyphClass: 1
Flags: W
LayerCount: 2
Fore
SplineSet
318 24 m 1,0,-1
 188 -271 l 1,1,-1
 58 -271 l 1,2,-1
 118 31 l 1,3,-1
 118 216 l 1,4,-1
 318 216 l 1,5,-1
 318 24 l 1,0,-1
EndSplineSet
EndChar

StartChar: hyphen
Encoding: 45 45 16
Width: 787
GlyphClass: 1
Flags: W
LayerCount: 2
Fore
SplineSet
644 542 m 1,0,-1
 137 542 l 1,1,-1
 137 697 l 1,2,-1
 644 697 l 1,3,-1
 644 542 l 1,0,-1
EndSplineSet
EndChar

StartChar: period
Encoding: 46 46 17
Width: 500
GlyphClass: 1
Flags: W
LayerCount: 2
Fore
SplineSet
343 0 m 1,0,-1
 138 0 l 1,1,-1
 138 203 l 1,2,-1
 343 203 l 1,3,-1
 343 0 l 1,0,-1
EndSplineSet
EndChar

StartChar: slash
Encoding: 47 47 18
Width: 730
GlyphClass: 1
Flags: W
LayerCount: 2
Fore
SplineSet
198 -125 m 1,0,-1
 9 -125 l 1,1,-1
 499 1456 l 1,2,-1
 688 1456 l 1,3,-1
 198 -125 l 1,0,-1
EndSplineSet
EndChar

StartChar: zero
Encoding: 48 48 19
Width: 1056
GlyphClass: 1
Flags: W
LayerCount: 2
Fore
SplineSet
956 518 m 2,0,1
 956 268 956 268 839.5 123.5 c 128,-1,2
 723 -21 723 -21 529 -21 c 0,3,4
 334 -21 334 -21 217 123.5 c 128,-1,5
 100 268 100 268 100 518 c 2,6,-1
 100 937 l 2,7,8
 100 1185 100 1185 216 1331 c 128,-1,9
 332 1477 332 1477 527 1477 c 256,10,11
 722 1477 722 1477 839 1331.5 c 128,-1,12
 956 1186 956 1186 956 937 c 2,13,-1
 956 518 l 2,0,1
750 966 m 2,14,15
 750 1131 750 1131 691.5 1226 c 128,-1,16
 633 1321 633 1321 527 1321 c 256,17,18
 421 1321 421 1321 363 1226 c 128,-1,19
 305 1131 305 1131 305 966 c 2,20,-1
 305 490 l 2,21,22
 305 325 305 325 364 229 c 128,-1,23
 423 133 423 133 529 133 c 256,24,25
 635 133 635 133 692.5 228.5 c 128,-1,26
 750 324 750 324 750 490 c 2,27,-1
 750 966 l 2,14,15
EndSplineSet
EndChar

StartChar: one
Encoding: 49 49 20
Width: 1056
GlyphClass: 1
Flags: W
LayerCount: 2
Fore
SplineSet
673 0 m 1,0,-1
 469 0 l 1,1,-1
 469 1284 l 1,2,-1
 185 1266 l 1,3,-1
 185 1417 l 1,4,-1
 673 1477 l 1,5,-1
 673 0 l 1,0,-1
EndSplineSet
EndChar

StartChar: two
Encoding: 50 50 21
Width: 1056
GlyphClass: 1
Flags: W
LayerCount: 2
Fore
SplineSet
969 0 m 1,0,-1
 128 0 l 1,1,-1
 128 135 l 1,2,-1
 540 674 l 1,3,4
 641 814 641 814 680.5 904 c 128,-1,5
 720 994 720 994 720 1078 c 0,6,7
 720 1189 720 1189 671.5 1255 c 128,-1,8
 623 1321 623 1321 529 1321 c 0,9,10
 423 1321 423 1321 366.5 1240 c 128,-1,11
 310 1159 310 1159 310 1034 c 1,12,-1
 111 1034 l 1,13,-1
 108 1040 l 1,14,15
 104 1223 104 1223 219 1350 c 128,-1,16
 334 1477 334 1477 529 1477 c 0,17,18
 716 1477 716 1477 821 1368.5 c 128,-1,19
 926 1260 926 1260 926 1078 c 0,20,21
 926 955 926 955 862.5 839.5 c 128,-1,22
 799 724 799 724 668 557 c 1,23,-1
 384 154 l 1,24,-1
 969 154 l 1,25,-1
 969 0 l 1,0,-1
EndSplineSet
EndChar

StartChar: three
Encoding: 51 51 22
Width: 1056
GlyphClass: 1
Flags: W
LayerCount: 2
Fore
SplineSet
522 824 m 2,0,1
 632 824 632 824 684 891.5 c 128,-1,2
 736 959 736 959 736 1073 c 0,3,4
 736 1183 736 1183 683.5 1252 c 128,-1,5
 631 1321 631 1321 530 1321 c 0,6,7
 437 1321 437 1321 376 1252 c 128,-1,8
 315 1183 315 1183 315 1076 c 1,9,-1
 117 1076 l 1,10,-1
 115 1082 l 1,11,12
 110 1250 110 1250 229.5 1363.5 c 128,-1,13
 349 1477 349 1477 530 1477 c 0,14,15
 720 1477 720 1477 831.5 1372 c 128,-1,16
 943 1267 943 1267 943 1072 c 0,17,18
 943 968 943 968 890 883 c 128,-1,19
 837 798 837 798 744 752 c 1,20,21
 850 709 850 709 907 620 c 128,-1,22
 964 531 964 531 964 402 c 0,23,24
 964 204 964 204 842.5 91.5 c 128,-1,25
 721 -21 721 -21 530 -21 c 0,26,27
 357 -21 357 -21 226.5 87.5 c 128,-1,28
 96 196 96 196 101 386 c 1,29,-1
 103 392 l 1,30,-1
 300 392 l 1,31,32
 300 282 300 282 364.5 207.5 c 128,-1,33
 429 133 429 133 530 133 c 0,34,35
 635 133 635 133 697 206.5 c 128,-1,36
 759 280 759 280 759 400 c 0,37,38
 759 537 759 537 699 604 c 128,-1,39
 639 671 639 671 522 671 c 2,40,-1
 382 671 l 1,41,-1
 382 824 l 1,42,-1
 522 824 l 2,0,1
EndSplineSet
EndChar

StartChar: four
Encoding: 52 52 23
Width: 1056
GlyphClass: 1
Flags: W
LayerCount: 2
Fore
SplineSet
831 497 m 1,0,-1
 1000 497 l 1,1,-1
 1000 342 l 1,2,-1
 831 342 l 1,3,-1
 831 0 l 1,4,-1
 626 0 l 1,5,-1
 626 342 l 1,6,-1
 71 342 l 1,7,-1
 65 456 l 1,8,-1
 619 1456 l 1,9,-1
 831 1456 l 1,10,-1
 831 497 l 1,0,-1
266 497 m 1,11,-1
 626 497 l 1,12,-1
 626 1175 l 1,13,-1
 620 1177 l 1,14,-1
 593 1115 l 1,15,-1
 266 497 l 1,11,-1
EndSplineSet
EndChar

StartChar: five
Encoding: 53 53 24
Width: 1056
GlyphClass: 1
Flags: W
LayerCount: 2
Fore
SplineSet
150 648 m 1,0,-1
 224 1456 l 1,1,-1
 913 1456 l 1,2,-1
 913 1289 l 1,3,-1
 395 1289 l 1,4,-1
 355 851 l 1,5,6
 395 889 395 889 450.5 913.5 c 128,-1,7
 506 938 506 938 579 940 c 0,8,9
 758 942 758 942 859.5 815 c 128,-1,10
 961 688 961 688 961 465 c 0,11,12
 961 246 961 246 855 112.5 c 128,-1,13
 749 -21 749 -21 536 -21 c 0,14,15
 363 -21 363 -21 244.5 81.5 c 128,-1,16
 126 184 126 184 131 378 c 1,17,-1
 133 383 l 1,18,-1
 326 387 l 1,19,20
 326 265 326 265 384 199 c 128,-1,21
 442 133 442 133 536 133 c 0,22,23
 646 133 646 133 701 218.5 c 128,-1,24
 756 304 756 304 756 463 c 0,25,26
 756 608 756 608 699.5 694 c 128,-1,27
 643 780 643 780 537 780 c 0,28,29
 442 780 442 780 395 742.5 c 128,-1,30
 348 705 348 705 327 631 c 1,31,-1
 150 648 l 1,0,-1
EndSplineSet
EndChar

StartChar: six
Encoding: 54 54 25
Width: 1056
GlyphClass: 1
Flags: W
LayerCount: 2
Fore
SplineSet
593 1477 m 0,0,1
 669 1477 669 1477 739 1460 c 128,-1,2
 809 1443 809 1443 865 1414 c 1,3,-1
 825 1265 l 1,4,5
 773 1292 773 1292 719 1306 c 128,-1,6
 665 1320 665 1320 593 1320 c 0,7,8
 472 1320 472 1320 395.5 1207 c 128,-1,9
 319 1094 319 1094 319 910 c 2,10,-1
 319 796 l 1,11,12
 372 859 372 859 448 895 c 128,-1,13
 524 931 524 931 615 931 c 0,14,15
 785 931 785 931 880.5 803.5 c 128,-1,16
 976 676 976 676 976 464 c 0,17,18
 976 246 976 246 860 112.5 c 128,-1,19
 744 -21 744 -21 555 -21 c 0,20,21
 363 -21 363 -21 239 131 c 128,-1,22
 115 283 115 283 115 546 c 2,23,-1
 115 896 l 2,24,25
 115 1153 115 1153 251.5 1315 c 128,-1,26
 388 1477 388 1477 593 1477 c 0,0,1
548 782 m 0,27,28
 466 782 466 782 407.5 743 c 128,-1,29
 349 704 349 704 319 637 c 1,30,-1
 319 535 l 2,31,32
 319 348 319 348 385 240 c 128,-1,33
 451 132 451 132 555 132 c 0,34,35
 656 132 656 132 714 225.5 c 128,-1,36
 772 319 772 319 772 464 c 0,37,38
 772 612 772 612 713 697 c 128,-1,39
 654 782 654 782 548 782 c 0,27,28
EndSplineSet
EndChar

StartChar: seven
Encoding: 55 55 26
Width: 1056
GlyphClass: 1
Flags: W
LayerCount: 2
Fore
SplineSet
972 1300 m 1,0,1
 743 1009 743 1009 654 750 c 128,-1,2
 565 491 565 491 565 159 c 2,3,-1
 565 0 l 1,4,-1
 360 0 l 1,5,-1
 360 159 l 2,6,7
 360 489 360 489 466.5 762.5 c 128,-1,8
 573 1036 573 1036 771 1300 c 1,9,-1
 81 1300 l 1,10,-1
 81 1456 l 1,11,-1
 972 1456 l 1,12,-1
 972 1300 l 1,0,1
EndSplineSet
EndChar

StartChar: eight
Encoding: 56 56 27
Width: 1056
GlyphClass: 1
Flags: W
LayerCount: 2
Fore
SplineSet
932 1084 m 0,0,1
 932 971 932 971 875 884.5 c 128,-1,2
 818 798 818 798 722 755 c 1,3,4
 835 710 835 710 903.5 616 c 128,-1,5
 972 522 972 522 972 399 c 0,6,7
 972 199 972 199 850.5 89 c 128,-1,8
 729 -21 729 -21 540 -21 c 0,9,10
 342 -21 342 -21 215.5 89 c 128,-1,11
 89 199 89 199 89 399 c 0,12,13
 89 523 89 523 159 616.5 c 128,-1,14
 229 710 229 710 349 755 c 1,15,16
 247 798 247 798 188.5 884.5 c 128,-1,17
 130 971 130 971 130 1084 c 0,18,19
 130 1274 130 1274 243.5 1375.5 c 128,-1,20
 357 1477 357 1477 539 1477 c 0,21,22
 713 1477 713 1477 822.5 1375.5 c 128,-1,23
 932 1274 932 1274 932 1084 c 0,0,1
767 404 m 0,24,25
 767 524 767 524 701 600 c 128,-1,26
 635 676 635 676 539 676 c 0,27,28
 434 676 434 676 364.5 600 c 128,-1,29
 295 524 295 524 295 404 c 0,30,31
 295 280 295 280 364 206.5 c 128,-1,32
 433 133 433 133 540 133 c 0,33,34
 638 133 638 133 702.5 207 c 128,-1,35
 767 281 767 281 767 404 c 0,24,25
727 1080 m 0,36,37
 727 1187 727 1187 673.5 1254 c 128,-1,38
 620 1321 620 1321 539 1321 c 0,39,40
 448 1321 448 1321 391.5 1256.5 c 128,-1,41
 335 1192 335 1192 335 1080 c 256,42,43
 335 968 335 968 392.5 900 c 128,-1,44
 450 832 450 832 540 832 c 0,45,46
 622 832 622 832 674.5 900 c 128,-1,47
 727 968 727 968 727 1080 c 0,36,37
EndSplineSet
EndChar

StartChar: nine
Encoding: 57 57 28
Width: 1056
GlyphClass: 1
Flags: W
LayerCount: 2
Fore
SplineSet
473 133 m 0,0,1
 589 133 589 133 661 229 c 128,-1,2
 733 325 733 325 733 498 c 2,3,-1
 733 638 l 1,4,5
 689 568 689 568 623.5 531 c 128,-1,6
 558 494 558 494 482 494 c 0,7,8
 298 494 298 494 192 625 c 128,-1,9
 86 756 86 756 86 978 c 0,10,11
 86 1194 86 1194 204.5 1335.5 c 128,-1,12
 323 1477 323 1477 503 1477 c 0,13,14
 698 1477 698 1477 818.5 1337 c 128,-1,15
 939 1197 939 1197 939 944 c 2,16,-1
 939 504 l 2,17,18
 939 258 939 258 808.5 118.5 c 128,-1,19
 678 -21 678 -21 473 -21 c 0,20,21
 404 -21 404 -21 332.5 -5 c 128,-1,22
 261 11 261 11 199 42 c 1,23,-1
 232 189 l 1,24,25
 289 159 289 159 345 146 c 128,-1,26
 401 133 401 133 473 133 c 0,0,1
503 645 m 0,27,28
 585 645 585 645 643.5 689 c 128,-1,29
 702 733 702 733 733 803 c 1,30,-1
 733 974 l 2,31,32
 733 1142 733 1142 672 1231.5 c 128,-1,33
 611 1321 611 1321 506 1321 c 0,34,35
 412 1321 412 1321 352 1223 c 128,-1,36
 292 1125 292 1125 292 978 c 0,37,38
 292 830 292 830 347 737.5 c 128,-1,39
 402 645 402 645 503 645 c 0,27,28
EndSplineSet
EndChar

StartChar: less
Encoding: 60 60 31
Width: 910
GlyphClass: 1
Flags: W
LayerCount: 2
Fore
SplineSet
278 567 m 1,0,-1
 213 553 l 1,1,-1
 213 547 l 1,2,-1
 278 533 l 1,3,-1
 783 293 l 1,4,-1
 783 101 l 1,5,-1
 61 477 l 1,6,-1
 61 628 l 1,7,-1
 783 1002 l 1,8,-1
 783 810 l 1,9,-1
 278 567 l 1,0,-1
EndSplineSet
EndChar

StartChar: equal
Encoding: 61 61 32
Width: 1017
GlyphClass: 1
Flags: W
LayerCount: 2
Fore
SplineSet
875 808 m 1,0,-1
 130 808 l 1,1,-1
 130 968 l 1,2,-1
 875 968 l 1,3,-1
 875 808 l 1,0,-1
875 390 m 1,4,-1
 130 390 l 1,5,-1
 130 550 l 1,6,-1
 875 550 l 1,7,-1
 875 390 l 1,4,-1
EndSplineSet
EndChar

StartChar: greater
Encoding: 62 62 33
Width: 928
GlyphClass: 1
Flags: W
LayerCount: 2
Fore
SplineSet
114 802 m 1,0,-1
 114 990 l 1,1,-1
 857 616 l 1,2,-1
 857 464 l 1,3,-1
 114 89 l 1,4,-1
 114 278 l 1,5,-1
 639 525 l 1,6,-1
 702 538 l 1,7,-1
 702 544 l 1,8,-1
 639 559 l 1,9,-1
 114 802 l 1,0,-1
EndSplineSet
EndChar

StartChar: question
Encoding: 63 63 34
Width: 867
GlyphClass: 1
Flags: W
LayerCount: 2
Fore
SplineSet
300 408 m 1,0,1
 301 541 301 541 328.5 599 c 128,-1,2
 356 657 356 657 451 750 c 1,3,4
 524 841 524 841 562 913 c 128,-1,5
 600 985 600 985 600 1083 c 0,6,7
 600 1193 600 1193 553.5 1254.5 c 128,-1,8
 507 1316 507 1316 421 1316 c 0,9,10
 348 1316 348 1316 297.5 1259.5 c 128,-1,11
 247 1203 247 1203 247 1103 c 1,12,-1
 51 1103 l 1,13,-1
 49 1109 l 1,14,15
 46 1281 46 1281 151 1379 c 128,-1,16
 256 1477 256 1477 421 1477 c 0,17,18
 600 1477 600 1477 701.5 1372 c 128,-1,19
 803 1267 803 1267 803 1086 c 0,20,21
 803 956 803 956 742 849.5 c 128,-1,22
 681 743 681 743 580 641 c 0,23,24
 530 590 530 590 517 543.5 c 128,-1,25
 504 497 504 497 504 408 c 1,26,-1
 300 408 l 1,0,1
508 0 m 1,27,-1
 299 0 l 1,28,-1
 299 198 l 1,29,-1
 508 198 l 1,30,-1
 508 0 l 1,27,-1
EndSplineSet
EndChar

StartChar: at
Encoding: 64 64 35
Width: 1661
GlyphClass: 1
Flags: W
LayerCount: 2
Fore
SplineSet
1567 509 m 0,0,1
 1558 293 1558 293 1455.5 136 c 128,-1,2
 1353 -21 1353 -21 1150 -21 c 0,3,4
 1080 -21 1080 -21 1030 24 c 128,-1,5
 980 69 980 69 961 151 c 1,6,7
 918 65 918 65 855 22.5 c 128,-1,8
 792 -20 792 -20 710 -20 c 0,9,10
 589 -20 589 -20 524.5 100 c 128,-1,11
 460 220 460 220 477 416 c 0,12,13
 498 671 498 671 603.5 825.5 c 128,-1,14
 709 980 709 980 860 980 c 0,15,16
 957 980 957 980 1015.5 954 c 128,-1,17
 1074 928 1074 928 1146 873 c 1,18,-1
 1143 870 l 1,19,-1
 1148 870 l 1,20,-1
 1102 293 l 2,21,22
 1094 178 1094 178 1119 135.5 c 128,-1,23
 1144 93 1144 93 1184 93 c 0,24,25
 1295 93 1295 93 1360.5 210 c 128,-1,26
 1426 327 1426 327 1434 509 c 0,27,28
 1449 885 1449 885 1307 1095 c 128,-1,29
 1165 1305 1165 1305 866 1305 c 0,30,31
 588 1305 588 1305 418.5 1078 c 128,-1,32
 249 851 249 851 236 478 c 1,33,34
 219 108 219 108 371 -112.5 c 128,-1,35
 523 -333 523 -333 805 -333 c 0,36,37
 883 -333 883 -333 964.5 -312 c 128,-1,38
 1046 -291 1046 -291 1102 -257 c 1,39,-1
 1136 -364 l 1,40,41
 1076 -406 1076 -406 983 -429.5 c 128,-1,42
 890 -453 890 -453 802 -453 c 0,43,44
 453 -453 453 -453 263 -203.5 c 128,-1,45
 73 46 73 46 89 478 c 0,46,47
 106 903 106 903 316.5 1162.5 c 128,-1,48
 527 1422 527 1422 870 1422 c 0,49,50
 1216 1422 1216 1422 1398.5 1177.5 c 128,-1,51
 1581 933 1581 933 1567 509 c 0,0,1
646 416 m 0,52,53
 635 274 635 274 664.5 194.5 c 128,-1,54
 694 115 694 115 760 115 c 0,55,56
 817 115 817 115 864.5 146.5 c 128,-1,57
 912 178 912 178 949 261 c 0,58,59
 949 267 949 267 949.5 274.5 c 128,-1,60
 950 282 950 282 951 293 c 2,61,-1
 993 828 l 1,62,63
 969 839 969 839 943.5 846 c 128,-1,64
 918 853 918 853 890 853 c 0,65,66
 782 853 782 853 722.5 744 c 128,-1,67
 663 635 663 635 646 416 c 0,52,53
EndSplineSet
EndChar

StartChar: A
Encoding: 65 65 36
Width: 1127
GlyphClass: 1
Flags: W
LayerCount: 2
Fore
SplineSet
783 368 m 1,0,-1
 348 368 l 1,1,-1
 243 0 l 1,2,-1
 32 0 l 1,3,-1
 469 1456 l 1,4,-1
 666 1456 l 1,5,-1
 1099 0 l 1,6,-1
 888 0 l 1,7,-1
 783 368 l 1,0,-1
394 529 m 1,8,-1
 738 529 l 1,9,-1
 570 1121 l 1,10,-1
 564 1121 l 1,11,-1
 394 529 l 1,8,-1
EndSplineSet
Substitution2: "'smcp' Lowercase to Small Capitals lookup 0 subtable" A.smcp
EndChar

StartChar: B
Encoding: 66 66 37
Width: 1130
GlyphClass: 1
Flags: W
LayerCount: 2
Fore
SplineSet
139 0 m 1,0,-1
 139 1456 l 1,1,-1
 542 1456 l 2,2,3
 751 1456 751 1456 868.5 1358 c 128,-1,4
 986 1260 986 1260 986 1064 c 0,5,6
 986 962 986 962 935 883 c 128,-1,7
 884 804 884 804 793 767 c 1,8,9
 920 746 920 746 988.5 646.5 c 128,-1,10
 1057 547 1057 547 1057 412 c 0,11,12
 1057 211 1057 211 941.5 105.5 c 128,-1,13
 826 0 826 0 623 0 c 2,14,-1
 139 0 l 1,0,-1
342 679 m 1,15,-1
 342 154 l 1,16,-1
 623 154 l 2,17,18
 733 154 733 154 793 220.5 c 128,-1,19
 853 287 853 287 853 411 c 0,20,21
 853 531 853 531 794.5 603 c 128,-1,22
 736 675 736 675 630 679 c 1,23,-1
 619 679 l 1,24,-1
 342 679 l 1,15,-1
342 825 m 1,25,-1
 573 825 l 2,26,27
 671 828 671 828 726.5 888.5 c 128,-1,28
 782 949 782 949 782 1060 c 0,29,30
 782 1180 782 1180 721 1240 c 128,-1,31
 660 1300 660 1300 542 1300 c 2,32,-1
 342 1300 l 1,33,-1
 342 825 l 1,25,-1
EndSplineSet
Substitution2: "'smcp' Lowercase to Small Capitals lookup 0 subtable" B.smcp
EndChar

StartChar: C
Encoding: 67 67 38
Width: 1133
GlyphClass: 1
Flags: W
LayerCount: 2
Fore
SplineSet
1050 438 m 1,0,-1
 1052 432 l 1,1,2
 1056 217 1056 217 932 98 c 128,-1,3
 808 -21 808 -21 591 -21 c 0,4,5
 367 -21 367 -21 234 122.5 c 128,-1,6
 101 266 101 266 101 525 c 2,7,-1
 101 929 l 2,8,9
 101 1187 101 1187 232 1332 c 128,-1,10
 363 1477 363 1477 584 1477 c 0,11,12
 807 1477 807 1477 932 1361.5 c 128,-1,13
 1057 1246 1057 1246 1053 1024 c 1,14,-1
 1051 1018 l 1,15,-1
 856 1018 l 1,16,17
 856 1174 856 1174 788 1247.5 c 128,-1,18
 720 1321 720 1321 584 1321 c 0,19,20
 450 1321 450 1321 377 1220.5 c 128,-1,21
 304 1120 304 1120 304 932 c 2,22,-1
 304 525 l 2,23,24
 304 335 304 335 379 234 c 128,-1,25
 454 133 454 133 591 133 c 0,26,27
 723 133 723 133 789 205.5 c 128,-1,28
 855 278 855 278 855 438 c 1,29,-1
 1050 438 l 1,0,-1
EndSplineSet
Substitution2: "'smcp' Lowercase to Small Capitals lookup 0 subtable" C.smcp
EndChar

StartChar: D
Encoding: 68 68 39
Width: 1191
GlyphClass: 1
Flags: W
LayerCount: 2
Fore
SplineSet
139 0 m 1,0,-1
 139 1456 l 1,1,-1
 552 1456 l 2,2,3
 788 1456 788 1456 937.5 1281 c 128,-1,4
 1087 1106 1087 1106 1087 831 c 2,5,-1
 1087 624 l 2,6,7
 1087 348 1087 348 937.5 174 c 128,-1,8
 788 0 788 0 552 0 c 2,9,-1
 139 0 l 1,0,-1
342 1300 m 1,10,-1
 342 154 l 1,11,-1
 552 154 l 2,12,13
 702 154 702 154 792 285.5 c 128,-1,14
 882 417 882 417 882 624 c 2,15,-1
 882 833 l 2,16,17
 882 1037 882 1037 792 1168.5 c 128,-1,18
 702 1300 702 1300 552 1300 c 2,19,-1
 342 1300 l 1,10,-1
EndSplineSet
Substitution2: "'smcp' Lowercase to Small Capitals lookup 0 subtable" D.smcp
EndChar

StartChar: E
Encoding: 69 69 40
Width: 989
GlyphClass: 1
Flags: W
LayerCount: 2
Fore
SplineSet
836 676 m 1,0,-1
 342 676 l 1,1,-1
 342 154 l 1,2,-1
 924 154 l 1,3,-1
 924 0 l 1,4,-1
 139 0 l 1,5,-1
 139 1456 l 1,6,-1
 919 1456 l 1,7,-1
 919 1300 l 1,8,-1
 342 1300 l 1,9,-1
 342 831 l 1,10,-1
 836 831 l 1,11,-1
 836 676 l 1,0,-1
EndSplineSet
Substitution2: "'smcp' Lowercase to Small Capitals lookup 0 subtable" E.smcp
EndChar

StartChar: F
Encoding: 70 70 41
Width: 988
GlyphClass: 1
Flags: W
LayerCount: 2
Fore
SplineSet
851 647 m 1,0,-1
 342 647 l 1,1,-1
 342 0 l 1,2,-1
 139 0 l 1,3,-1
 139 1456 l 1,4,-1
 939 1456 l 1,5,-1
 939 1300 l 1,6,-1
 342 1300 l 1,7,-1
 342 802 l 1,8,-1
 851 802 l 1,9,-1
 851 647 l 1,0,-1
EndSplineSet
Substitution2: "'smcp' Lowercase to Small Capitals lookup 0 subtable" F.smcp
EndChar

StartChar: G
Encoding: 71 71 42
Width: 1198
GlyphClass: 1
Flags: W
LayerCount: 2
Fore
SplineSet
1068 190 m 1,0,1
 1016 107 1016 107 902.5 43 c 128,-1,2
 789 -21 789 -21 610 -21 c 0,3,4
 382 -21 382 -21 242.5 118 c 128,-1,5
 103 257 103 257 103 514 c 2,6,-1
 103 946 l 2,7,8
 103 1199 103 1199 238 1338 c 128,-1,9
 373 1477 373 1477 597 1477 c 0,10,11
 818 1477 818 1477 938 1363 c 128,-1,12
 1058 1249 1058 1249 1054 1051 c 1,13,-1
 1052 1045 l 1,14,-1
 861 1045 l 1,15,16
 861 1176 861 1176 794.5 1248.5 c 128,-1,17
 728 1321 728 1321 601 1321 c 0,18,19
 464 1321 464 1321 385.5 1225.5 c 128,-1,20
 307 1130 307 1130 307 948 c 2,21,-1
 307 514 l 2,22,23
 307 328 307 328 388.5 230.5 c 128,-1,24
 470 133 470 133 610 133 c 0,25,26
 713 133 713 133 774.5 165 c 128,-1,27
 836 197 836 197 864 243 c 1,28,-1
 864 582 l 1,29,-1
 596 582 l 1,30,-1
 596 730 l 1,31,-1
 1068 730 l 1,32,-1
 1068 190 l 1,0,1
EndSplineSet
Substitution2: "'smcp' Lowercase to Small Capitals lookup 0 subtable" G.smcp
EndChar

StartChar: H
Encoding: 72 72 43
Width: 1254
GlyphClass: 1
Flags: W
LayerCount: 2
Fore
SplineSet
1115 0 m 1,0,-1
 912 0 l 1,1,-1
 912 642 l 1,2,-1
 342 642 l 1,3,-1
 342 0 l 1,4,-1
 139 0 l 1,5,-1
 139 1456 l 1,6,-1
 342 1456 l 1,7,-1
 342 797 l 1,8,-1
 912 797 l 1,9,-1
 912 1456 l 1,10,-1
 1115 1456 l 1,11,-1
 1115 0 l 1,0,-1
EndSplineSet
Substitution2: "'smcp' Lowercase to Small Capitals lookup 0 subtable" H.smcp
EndChar

StartChar: I
Encoding: 73 73 44
Width: 518
GlyphClass: 1
Flags: W
LayerCount: 2
Fore
SplineSet
360 0 m 1,0,-1
 157 0 l 1,1,-1
 157 1456 l 1,2,-1
 360 1456 l 1,3,-1
 360 0 l 1,0,-1
EndSplineSet
Substitution2: "'smcp' Lowercase to Small Capitals lookup 0 subtable" I.smcp
EndChar

StartChar: J
Encoding: 74 74 45
Width: 985
GlyphClass: 1
Flags: W
LayerCount: 2
Fore
SplineSet
645 1456 m 1,0,-1
 849 1456 l 1,1,-1
 849 431 l 2,2,3
 849 224 849 224 739 101.5 c 128,-1,4
 629 -21 629 -21 456 -21 c 0,5,6
 270 -21 270 -21 161 87.5 c 128,-1,7
 52 196 52 196 56 404 c 1,8,-1
 59 410 l 1,9,-1
 254 410 l 1,10,11
 254 269 254 269 307.5 201 c 128,-1,12
 361 133 361 133 456 133 c 0,13,14
 539 133 539 133 592 213.5 c 128,-1,15
 645 294 645 294 645 431 c 2,16,-1
 645 1456 l 1,0,-1
EndSplineSet
Substitution2: "'smcp' Lowercase to Small Capitals lookup 0 subtable" J.smcp
EndChar

StartChar: K
Encoding: 75 75 46
Width: 1130
GlyphClass: 1
Flags: W
LayerCount: 2
Fore
SplineSet
442 655 m 1,0,-1
 342 655 l 1,1,-1
 342 0 l 1,2,-1
 139 0 l 1,3,-1
 139 1456 l 1,4,-1
 342 1456 l 1,5,-1
 342 818 l 1,6,-1
 428 818 l 1,7,-1
 834 1456 l 1,8,-1
 1080 1456 l 1,9,-1
 600 772 l 1,10,-1
 1117 0 l 1,11,-1
 859 0 l 1,12,-1
 442 655 l 1,0,-1
EndSplineSet
Substitution2: "'smcp' Lowercase to Small Capitals lookup 0 subtable" K.smcp
EndChar

StartChar: L
Encoding: 76 76 47
Width: 987
GlyphClass: 1
Flags: W
LayerCount: 2
Fore
SplineSet
342 154 m 1,0,-1
 931 154 l 1,1,-1
 931 0 l 1,2,-1
 139 0 l 1,3,-1
 139 1456 l 1,4,-1
 342 1456 l 1,5,-1
 342 154 l 1,0,-1
EndSplineSet
Substitution2: "'smcp' Lowercase to Small Capitals lookup 0 subtable" L.smcp
EndChar

StartChar: M
Encoding: 77 77 48
Width: 1494
GlyphClass: 1
Flags: W
LayerCount: 2
Fore
SplineSet
746 268 m 1,0,-1
 752 268 l 1,1,-1
 1101 1456 l 1,2,-1
 1361 1456 l 1,3,-1
 1361 0 l 1,4,-1
 1159 0 l 1,5,-1
 1159 1049 l 1,6,-1
 1153 1050 l 1,7,-1
 819 0 l 1,8,-1
 680 0 l 1,9,-1
 341 1066 l 1,10,-1
 335 1065 l 1,11,-1
 335 0 l 1,12,-1
 133 0 l 1,13,-1
 133 1456 l 1,14,-1
 398 1456 l 1,15,-1
 746 268 l 1,0,-1
EndSplineSet
Substitution2: "'smcp' Lowercase to Small Capitals lookup 0 subtable" M.smcp
EndChar

StartChar: N
Encoding: 78 78 49
Width: 1255
GlyphClass: 1
Flags: W
LayerCount: 2
Fore
SplineSet
1116 0 m 1,0,-1
 912 0 l 1,1,-1
 348 1074 l 1,2,-1
 342 1072 l 1,3,-1
 342 0 l 1,4,-1
 139 0 l 1,5,-1
 139 1456 l 1,6,-1
 342 1456 l 1,7,-1
 906 385 l 1,8,-1
 912 386 l 1,9,-1
 912 1456 l 1,10,-1
 1116 1456 l 1,11,-1
 1116 0 l 1,0,-1
EndSplineSet
Substitution2: "'smcp' Lowercase to Small Capitals lookup 0 subtable" N.smcp
EndChar

StartChar: O
Encoding: 79 79 50
Width: 1218
GlyphClass: 1
Flags: W
LayerCount: 2
Fore
SplineSet
1119 527 m 2,0,1
 1119 268 1119 268 979 123.5 c 128,-1,2
 839 -21 839 -21 604 -21 c 0,3,4
 372 -21 372 -21 235 123.5 c 128,-1,5
 98 268 98 268 98 527 c 2,6,-1
 98 927 l 2,7,8
 98 1185 98 1185 235 1331 c 128,-1,9
 372 1477 372 1477 603 1477 c 0,10,11
 838 1477 838 1477 978.5 1331.5 c 128,-1,12
 1119 1186 1119 1186 1119 927 c 2,13,-1
 1119 527 l 2,0,1
917 930 m 2,14,15
 917 1120 917 1120 835.5 1218.5 c 128,-1,16
 754 1317 754 1317 603 1317 c 0,17,18
 457 1317 457 1317 378.5 1218.5 c 128,-1,19
 300 1120 300 1120 300 930 c 2,20,-1
 300 527 l 2,21,22
 300 335 300 335 379 236 c 128,-1,23
 458 137 458 137 604 137 c 0,24,25
 755 137 755 137 836 235.5 c 128,-1,26
 917 334 917 334 917 527 c 2,27,-1
 917 930 l 2,14,15
EndSplineSet
Substitution2: "'smcp' Lowercase to Small Capitals lookup 0 subtable" O.smcp
EndChar

StartChar: P
Encoding: 80 80 51
Width: 1130
GlyphClass: 1
Flags: W
LayerCount: 2
Fore
SplineSet
342 574 m 1,0,-1
 342 0 l 1,1,-1
 139 0 l 1,2,-1
 139 1456 l 1,3,-1
 612 1456 l 2,4,5
 819 1456 819 1456 936.5 1334.5 c 128,-1,6
 1054 1213 1054 1213 1054 1015 c 0,7,8
 1054 816 1054 816 936.5 695 c 128,-1,9
 819 574 819 574 612 574 c 2,10,-1
 342 574 l 1,0,-1
342 730 m 1,11,-1
 612 730 l 2,12,13
 730 730 730 730 791 810.5 c 128,-1,14
 852 891 852 891 852 1013 c 0,15,16
 852 1136 852 1136 791.5 1218 c 128,-1,17
 731 1300 731 1300 612 1300 c 2,18,-1
 342 1300 l 1,19,-1
 342 730 l 1,11,-1
EndSplineSet
Substitution2: "'smcp' Lowercase to Small Capitals lookup 0 subtable" P.smcp
EndChar

StartChar: Q
Encoding: 81 81 52
Width: 1244
GlyphClass: 1
Flags: W
LayerCount: 2
Fore
SplineSet
1119 527 m 2,0,1
 1119 419 1119 419 1093 329.5 c 128,-1,2
 1067 240 1067 240 1019 172 c 1,3,-1
 1201 -29 l 1,4,-1
 1066 -146 l 1,5,-1
 886 50 l 1,6,7
 827 14 827 14 756 -3.5 c 128,-1,8
 685 -21 685 -21 604 -21 c 0,9,10
 372 -21 372 -21 235 123.5 c 128,-1,11
 98 268 98 268 98 527 c 2,12,-1
 98 927 l 2,13,14
 98 1185 98 1185 235 1331 c 128,-1,15
 372 1477 372 1477 603 1477 c 0,16,17
 838 1477 838 1477 978.5 1331.5 c 128,-1,18
 1119 1186 1119 1186 1119 927 c 2,19,-1
 1119 527 l 2,0,1
917 930 m 2,20,21
 917 1120 917 1120 835.5 1218.5 c 128,-1,22
 754 1317 754 1317 603 1317 c 0,23,24
 457 1317 457 1317 378.5 1218.5 c 128,-1,25
 300 1120 300 1120 300 930 c 2,26,-1
 300 527 l 2,27,28
 300 335 300 335 379 236 c 128,-1,29
 458 137 458 137 604 137 c 0,30,31
 755 137 755 137 836 235.5 c 128,-1,32
 917 334 917 334 917 527 c 2,33,-1
 917 930 l 2,20,21
EndSplineSet
Substitution2: "'smcp' Lowercase to Small Capitals lookup 0 subtable" Q.smcp
EndChar

StartChar: R
Encoding: 82 82 53
Width: 1138
GlyphClass: 1
Flags: W
LayerCount: 2
Fore
SplineSet
341 627 m 1,0,-1
 341 0 l 1,1,-1
 138 0 l 1,2,-1
 138 1455 l 1,3,-1
 567 1455 l 2,4,5
 777 1455 777 1455 891.5 1348 c 128,-1,6
 1006 1241 1006 1241 1006 1041 c 0,7,8
 1006 927 1006 927 952.5 841.5 c 128,-1,9
 899 756 899 756 799 709 c 1,10,11
 911 671 911 671 960.5 583 c 128,-1,12
 1010 495 1010 495 1010 365 c 2,13,-1
 1010 238 l 2,14,15
 1010 171 1010 171 1023 113 c 128,-1,16
 1036 55 1036 55 1069 23 c 1,17,-1
 1069 0 l 1,18,-1
 860 0 l 1,19,20
 826 33 826 33 815.5 100.5 c 128,-1,21
 805 168 805 168 805 240 c 2,22,-1
 805 363 l 2,23,24
 805 485 805 485 748.5 556 c 128,-1,25
 692 627 692 627 592 627 c 2,26,-1
 341 627 l 1,0,-1
341 782 m 1,27,-1
 557 782 l 2,28,29
 683 782 683 782 743 848.5 c 128,-1,30
 803 915 803 915 803 1037 c 0,31,32
 803 1162 803 1162 744.5 1231 c 128,-1,33
 686 1300 686 1300 567 1300 c 2,34,-1
 341 1300 l 1,35,-1
 341 782 l 1,27,-1
EndSplineSet
Substitution2: "'smcp' Lowercase to Small Capitals lookup 0 subtable" R.smcp
EndChar

StartChar: S
Encoding: 83 83 54
Width: 1094
GlyphClass: 1
Flags: W
LayerCount: 2
Fore
SplineSet
803 366 m 0,0,1
 803 466 803 466 746 530.5 c 128,-1,2
 689 595 689 595 545 648 c 1,3,4
 340 712 340 712 230 813 c 128,-1,5
 120 914 120 914 120 1082 c 0,6,7
 120 1254 120 1254 241.5 1365.5 c 128,-1,8
 363 1477 363 1477 553 1477 c 0,9,10
 755 1477 755 1477 877 1353 c 128,-1,11
 999 1229 999 1229 995 1042 c 1,12,-1
 993 1036 l 1,13,-1
 798 1036 l 1,14,15
 798 1164 798 1164 730 1243 c 128,-1,16
 662 1322 662 1322 551 1322 c 0,17,18
 443 1322 443 1322 383.5 1254 c 128,-1,19
 324 1186 324 1186 324 1084 c 0,20,21
 324 989 324 989 387 927 c 128,-1,22
 450 865 450 865 599 810 c 1,23,24
 798 745 798 745 902 640 c 128,-1,25
 1006 535 1006 535 1006 368 c 0,26,27
 1006 190 1006 190 883.5 84.5 c 128,-1,28
 761 -21 761 -21 562 -21 c 0,29,30
 370 -21 370 -21 228 93 c 128,-1,31
 86 207 86 207 91 420 c 1,32,-1
 93 426 l 1,33,-1
 289 426 l 1,34,35
 289 278 289 278 367.5 205 c 128,-1,36
 446 132 446 132 562 132 c 0,37,38
 675 132 675 132 739 195.5 c 128,-1,39
 803 259 803 259 803 366 c 0,0,1
EndSplineSet
Substitution2: "'smcp' Lowercase to Small Capitals lookup 0 subtable" S.smcp
EndChar

StartChar: T
Encoding: 84 84 55
Width: 1045
GlyphClass: 1
Flags: W
LayerCount: 2
Fore
SplineSet
1010 1300 m 1,0,-1
 624 1300 l 1,1,-1
 624 0 l 1,2,-1
 420 0 l 1,3,-1
 420 1300 l 1,4,-1
 37 1300 l 1,5,-1
 37 1456 l 1,6,-1
 1010 1456 l 1,7,-1
 1010 1300 l 1,0,-1
EndSplineSet
Substitution2: "'smcp' Lowercase to Small Capitals lookup 0 subtable" T.smcp
EndChar

StartChar: U
Encoding: 85 85 56
Width: 1213
GlyphClass: 1
Flags: W
LayerCount: 2
Fore
SplineSet
1092 1456 m 1,0,-1
 1092 493 l 2,1,2
 1092 251 1092 251 956 115 c 128,-1,3
 820 -21 820 -21 603 -21 c 0,4,5
 390 -21 390 -21 256.5 115.5 c 128,-1,6
 123 252 123 252 123 493 c 2,7,-1
 123 1456 l 1,8,-1
 326 1456 l 1,9,-1
 326 493 l 2,10,11
 326 324 326 324 402.5 228.5 c 128,-1,12
 479 133 479 133 603 133 c 0,13,14
 731 133 731 133 809.5 228 c 128,-1,15
 888 323 888 323 888 493 c 2,16,-1
 888 1456 l 1,17,-1
 1092 1456 l 1,0,-1
EndSplineSet
Substitution2: "'smcp' Lowercase to Small Capitals lookup 0 subtable" U.smcp
EndChar

StartChar: V
Encoding: 86 86 57
Width: 1127
GlyphClass: 1
Flags: W
LayerCount: 2
Fore
SplineSet
539 334 m 1,0,-1
 560 245 l 1,1,-1
 566 245 l 1,2,-1
 587 333 l 1,3,-1
 890 1456 l 1,4,-1
 1107 1456 l 1,5,-1
 662 0 l 1,6,-1
 464 0 l 1,7,-1
 20 1456 l 1,8,-1
 236 1456 l 1,9,-1
 539 334 l 1,0,-1
EndSplineSet
Substitution2: "'smcp' Lowercase to Small Capitals lookup 0 subtable" V.smcp
EndChar

StartChar: W
Encoding: 87 87 58
Width: 1553
GlyphClass: 1
Flags: W
LayerCount: 2
Fore
SplineSet
1111 421 m 1,0,-1
 1117 421 l 1,1,-1
 1306 1456 l 1,2,-1
 1519 1456 l 1,3,-1
 1220 0 l 1,4,-1
 1033 0 l 1,5,-1
 779 1033 l 1,6,-1
 773 1033 l 1,7,-1
 518 0 l 1,8,-1
 331 0 l 1,9,-1
 32 1456 l 1,10,-1
 246 1456 l 1,11,-1
 436 423 l 1,12,-1
 442 423 l 1,13,-1
 687 1456 l 1,14,-1
 864 1456 l 1,15,-1
 1111 421 l 1,0,-1
EndSplineSet
Substitution2: "'smcp' Lowercase to Small Capitals lookup 0 subtable" W.smcp
EndChar

StartChar: X
Encoding: 88 88 59
Width: 1127
GlyphClass: 1
Flags: W
LayerCount: 2
Fore
SplineSet
560 887 m 1,0,-1
 566 887 l 1,1,-1
 833 1456 l 1,2,-1
 1073 1456 l 1,3,-1
 687 735 l 1,4,-1
 1089 0 l 1,5,-1
 845 0 l 1,6,-1
 569 582 l 1,7,-1
 563 582 l 1,8,-1
 288 0 l 1,9,-1
 47 0 l 1,10,-1
 443 735 l 1,11,-1
 57 1456 l 1,12,-1
 295 1456 l 1,13,-1
 560 887 l 1,0,-1
EndSplineSet
Substitution2: "'smcp' Lowercase to Small Capitals lookup 0 subtable" X.smcp
EndChar

StartChar: Y
Encoding: 89 89 60
Width: 1127
GlyphClass: 1
Flags: W
LayerCount: 2
Fore
SplineSet
559 746 m 1,0,-1
 565 746 l 1,1,-1
 869 1456 l 1,2,-1
 1097 1456 l 1,3,-1
 660 524 l 1,4,-1
 660 0 l 1,5,-1
 457 0 l 1,6,-1
 457 539 l 1,7,-1
 28 1456 l 1,8,-1
 254 1456 l 1,9,-1
 559 746 l 1,0,-1
EndSplineSet
Substitution2: "'smcp' Lowercase to Small Capitals lookup 0 subtable" Y.smcp
EndChar

StartChar: Z
Encoding: 90 90 61
Width: 1005
GlyphClass: 1
Flags: W
LayerCount: 2
Fore
SplineSet
295 154 m 1,0,-1
 930 154 l 1,1,-1
 930 0 l 1,2,-1
 78 0 l 1,3,-1
 78 125 l 1,4,-1
 691 1301 l 1,5,-1
 84 1301 l 1,6,-1
 84 1456 l 1,7,-1
 909 1456 l 1,8,-1
 909 1335 l 1,9,-1
 295 154 l 1,0,-1
EndSplineSet
Substitution2: "'smcp' Lowercase to Small Capitals lookup 0 subtable" Z.smcp
EndChar

StartChar: bracketleft
Encoding: 91 91 62
Width: 507
GlyphClass: 1
Flags: W
LayerCount: 2
Fore
SplineSet
486 1519 m 1,0,-1
 334 1519 l 1,1,-1
 334 -167 l 1,2,-1
 486 -167 l 1,3,-1
 486 -319 l 1,4,-1
 128 -319 l 1,5,-1
 128 1672 l 1,6,-1
 486 1672 l 1,7,-1
 486 1519 l 1,0,-1
EndSplineSet
EndChar

StartChar: backslash
Encoding: 92 92 63
Width: 745
GlyphClass: 1
Flags: W
LayerCount: 2
Fore
SplineSet
25 1456 m 1,0,-1
 222 1456 l 1,1,-1
 745 -125 l 1,2,-1
 547 -125 l 1,3,-1
 25 1456 l 1,0,-1
EndSplineSet
EndChar

StartChar: bracketright
Encoding: 93 93 64
Width: 507
GlyphClass: 1
Flags: W
LayerCount: 2
Fore
SplineSet
15 1672 m 1,0,-1
 374 1672 l 1,1,-1
 374 -319 l 1,2,-1
 15 -319 l 1,3,-1
 15 -167 l 1,4,-1
 168 -167 l 1,5,-1
 168 1519 l 1,6,-1
 15 1519 l 1,7,-1
 15 1672 l 1,0,-1
EndSplineSet
EndChar

StartChar: asciicircum
Encoding: 94 94 65
Width: 767
GlyphClass: 1
Flags: W
LayerCount: 2
Fore
SplineSet
225 729 m 1,0,-1
 53 729 l 1,1,-1
 310 1456 l 1,2,-1
 456 1456 l 1,3,-1
 712 729 l 1,4,-1
 541 729 l 1,5,-1
 395 1173 l 1,6,-1
 384 1225 l 1,7,-1
 378 1225 l 1,8,-1
 367 1173 l 1,9,-1
 225 729 l 1,0,-1
EndSplineSet
EndChar

StartChar: underscore
Encoding: 95 95 66
Width: 802
GlyphClass: 1
Flags: W
LayerCount: 2
Fore
SplineSet
792 -152 m 1,0,-1
 8 -152 l 1,1,-1
 8 0 l 1,2,-1
 792 0 l 1,3,-1
 792 -152 l 1,0,-1
EndSplineSet
EndChar

StartChar: grave
Encoding: 96 96 67
Width: 596
GlyphClass: 1
Flags: W
LayerCount: 2
Fore
SplineSet
479 1252 m 1,0,-1
 302 1252 l 1,1,-1
 70 1513 l 1,2,-1
 72 1518 l 1,3,-1
 307 1518 l 1,4,-1
 479 1252 l 1,0,-1
EndSplineSet
EndChar

StartChar: a
Encoding: 97 97 68
Width: 967
GlyphClass: 1
Flags: W
LayerCount: 2
Fore
SplineSet
679 0 m 1,0,1
 666 49 666 49 658.5 87.5 c 128,-1,2
 651 126 651 126 649 164 c 1,3,4
 606 84 606 84 535.5 31.5 c 128,-1,5
 465 -21 465 -21 375 -21 c 0,6,7
 230 -21 230 -21 152.5 65 c 128,-1,8
 75 151 75 151 75 300 c 0,9,10
 75 453 75 453 182.5 541 c 128,-1,11
 290 629 290 629 482 629 c 2,12,-1
 648 629 l 1,13,-1
 648 740 l 2,14,15
 648 839 648 839 604 894.5 c 128,-1,16
 560 950 560 950 478 950 c 0,17,18
 404 950 404 950 360.5 902 c 128,-1,19
 317 854 317 854 317 779 c 1,20,-1
 123 778 l 1,21,-1
 121 784 l 1,22,23
 115 910 115 910 219 1006 c 128,-1,24
 323 1102 323 1102 491 1102 c 0,25,26
 652 1102 652 1102 752 1007.5 c 128,-1,27
 852 913 852 913 852 738 c 2,28,-1
 852 236 l 2,29,30
 852 174 852 174 860 115.5 c 128,-1,31
 868 57 868 57 885 0 c 1,32,-1
 679 0 l 1,0,1
417 135 m 0,33,34
 500 135 500 135 564 186.5 c 128,-1,35
 628 238 628 238 648 311 c 1,36,-1
 648 503 l 1,37,-1
 479 503 l 2,38,39
 385 503 385 503 332 443.5 c 128,-1,40
 279 384 279 384 279 300 c 0,41,42
 279 225 279 225 315 180 c 128,-1,43
 351 135 351 135 417 135 c 0,33,34
EndSplineSet
Substitution2: "'smcp' Lowercase to Small Capitals lookup 0 subtable" A.smcp
EndChar

StartChar: b
Encoding: 98 98 69
Width: 1008
GlyphClass: 1
Flags: W
LayerCount: 2
Fore
SplineSet
930 507 m 2,0,1
 930 267 930 267 835.5 123 c 128,-1,2
 741 -21 741 -21 568 -21 c 0,3,4
 480 -21 480 -21 414.5 18.5 c 128,-1,5
 349 58 349 58 306 134 c 1,6,-1
 284 0 l 1,7,-1
 117 0 l 1,8,-1
 117 1560 l 1,9,-1
 321 1560 l 1,10,-1
 321 965 l 1,11,12
 364 1031 364 1031 425 1066.5 c 128,-1,13
 486 1102 486 1102 567 1102 c 0,14,15
 741 1102 741 1102 835.5 945.5 c 128,-1,16
 930 789 930 789 930 528 c 2,17,-1
 930 507 l 2,0,1
726 528 m 2,18,19
 726 716 726 716 676 830 c 128,-1,20
 626 944 626 944 516 944 c 0,21,22
 445 944 445 944 397 903 c 128,-1,23
 349 862 349 862 321 792 c 1,24,-1
 321 280 l 1,25,26
 348 211 348 211 396.5 173.5 c 128,-1,27
 445 136 445 136 518 136 c 0,28,29
 627 136 627 136 676.5 235.5 c 128,-1,30
 726 335 726 335 726 507 c 2,31,-1
 726 528 l 2,18,19
EndSplineSet
Substitution2: "'smcp' Lowercase to Small Capitals lookup 0 subtable" B.smcp
EndChar

StartChar: c
Encoding: 99 99 70
Width: 927
GlyphClass: 1
Flags: W
LayerCount: 2
Fore
SplineSet
493 133 m 0,0,1
 568 133 568 133 618.5 191 c 128,-1,2
 669 249 669 249 669 348 c 1,3,-1
 852 348 l 1,4,-1
 854 342 l 1,5,6
 858 189 858 189 751 84 c 128,-1,7
 644 -21 644 -21 493 -21 c 0,8,9
 293 -21 293 -21 184 131.5 c 128,-1,10
 75 284 75 284 75 521 c 2,11,-1
 75 559 l 2,12,13
 75 795 75 795 184 948.5 c 128,-1,14
 293 1102 293 1102 493 1102 c 0,15,16
 655 1102 655 1102 756.5 992.5 c 128,-1,17
 858 883 858 883 855 708 c 1,18,-1
 853 703 l 1,19,-1
 669 703 l 1,20,21
 669 811 669 811 620.5 878.5 c 128,-1,22
 572 946 572 946 493 946 c 0,23,24
 379 946 379 946 328.5 836 c 128,-1,25
 278 726 278 726 278 559 c 2,26,-1
 278 521 l 2,27,28
 278 351 278 351 328 242 c 128,-1,29
 378 133 378 133 493 133 c 0,0,1
EndSplineSet
Substitution2: "'smcp' Lowercase to Small Capitals lookup 0 subtable" C.smcp
EndChar

StartChar: d
Encoding: 100 100 71
Width: 1008
GlyphClass: 1
Flags: W
LayerCount: 2
Fore
SplineSet
79 528 m 2,0,1
 79 788 79 788 174 945 c 128,-1,2
 269 1102 269 1102 441 1102 c 0,3,4
 518 1102 518 1102 579 1067.5 c 128,-1,5
 640 1033 640 1033 684 968 c 1,6,-1
 684 1560 l 1,7,-1
 887 1560 l 1,8,-1
 887 0 l 1,9,-1
 719 0 l 1,10,-1
 698 130 l 1,11,12
 653 56 653 56 588 17.5 c 128,-1,13
 523 -21 523 -21 439 -21 c 0,14,15
 268 -21 268 -21 173.5 123.5 c 128,-1,16
 79 268 79 268 79 507 c 2,17,-1
 79 528 l 2,0,1
281 507 m 2,18,19
 281 337 281 337 332 236.5 c 128,-1,20
 383 136 383 136 491 136 c 0,21,22
 559 136 559 136 606.5 172 c 128,-1,23
 654 208 654 208 684 274 c 1,24,-1
 684 798 l 1,25,26
 654 865 654 865 606 904.5 c 128,-1,27
 558 944 558 944 492 944 c 0,28,29
 384 944 384 944 332.5 828.5 c 128,-1,30
 281 713 281 713 281 528 c 2,31,-1
 281 507 l 2,18,19
EndSplineSet
Substitution2: "'smcp' Lowercase to Small Capitals lookup 0 subtable" D.smcp
EndChar

StartChar: e
Encoding: 101 101 72
Width: 933
GlyphClass: 1
Flags: W
LayerCount: 2
Fore
SplineSet
508 -21 m 0,0,1
 306 -21 306 -21 191.5 127 c 128,-1,2
 77 275 77 275 77 512 c 2,3,-1
 77 559 l 2,4,5
 77 797 77 797 191 949.5 c 128,-1,6
 305 1102 305 1102 489 1102 c 0,7,8
 674 1102 674 1102 770.5 971 c 128,-1,9
 867 840 867 840 867 619 c 2,10,-1
 867 505 l 1,11,-1
 280 505 l 1,12,13
 280 339 280 339 339.5 236 c 128,-1,14
 399 133 399 133 522 133 c 0,15,16
 607 133 607 133 670 159.5 c 128,-1,17
 733 186 733 186 786 237 c 1,18,-1
 852 111 l 1,19,20
 798 55 798 55 709.5 17 c 128,-1,21
 621 -21 621 -21 508 -21 c 0,0,1
489 946 m 0,22,23
 401 946 401 946 349 864.5 c 128,-1,24
 297 783 297 783 284 649 c 1,25,-1
 667 649 l 1,26,-1
 667 672 l 2,27,28
 667 794 667 794 623.5 870 c 128,-1,29
 580 946 580 946 489 946 c 0,22,23
EndSplineSet
Substitution2: "'smcp' Lowercase to Small Capitals lookup 0 subtable" E.smcp
EndChar

StartChar: f
Encoding: 102 102 73
Width: 609
GlyphClass: 1
Flags: W
LayerCount: 2
Fore
SplineSet
185 0 m 1,0,-1
 185 937 l 1,1,-1
 42 937 l 1,2,-1
 42 1082 l 1,3,-1
 185 1082 l 1,4,-1
 185 1221 l 2,5,6
 185 1393 185 1393 268.5 1487 c 128,-1,7
 352 1581 352 1581 502 1581 c 0,8,9
 532 1581 532 1581 563.5 1575.5 c 128,-1,10
 595 1570 595 1570 632 1560 c 1,11,-1
 613 1411 l 1,12,13
 594 1416 594 1416 573 1419 c 128,-1,14
 552 1422 552 1422 527 1422 c 0,15,16
 459 1422 459 1422 423.5 1370 c 128,-1,17
 388 1318 388 1318 388 1221 c 2,18,-1
 388 1082 l 1,19,-1
 567 1082 l 1,20,-1
 567 937 l 1,21,-1
 388 937 l 1,22,-1
 388 0 l 1,23,-1
 185 0 l 1,0,-1
EndSplineSet
Substitution2: "'smcp' Lowercase to Small Capitals lookup 0 subtable" F.smcp
EndChar

StartChar: g
Encoding: 103 103 74
Width: 1008
GlyphClass: 1
Flags: W
LayerCount: 2
Fore
SplineSet
83 528 m 2,0,1
 83 788 83 788 178 945 c 128,-1,2
 273 1102 273 1102 446 1102 c 0,3,4
 530 1102 530 1102 594.5 1061.5 c 128,-1,5
 659 1021 659 1021 703 946 c 1,6,-1
 722 1082 l 1,7,-1
 892 1082 l 1,8,-1
 892 -2 l 2,9,10
 892 -210 892 -210 781 -323.5 c 128,-1,11
 670 -437 670 -437 468 -437 c 0,12,13
 399 -437 399 -437 320.5 -416 c 128,-1,14
 242 -395 242 -395 179 -359 c 1,15,-1
 212 -207 l 1,16,17
 267 -238 267 -238 331.5 -255.5 c 128,-1,18
 396 -273 396 -273 466 -273 c 0,19,20
 580 -273 580 -273 634 -205.5 c 128,-1,21
 688 -138 688 -138 688 -1 c 2,22,-1
 688 106 l 1,23,24
 644 43 644 43 583.5 11 c 128,-1,25
 523 -21 523 -21 444 -21 c 0,26,27
 273 -21 273 -21 178 123.5 c 128,-1,28
 83 268 83 268 83 507 c 2,29,-1
 83 528 l 2,0,1
287 507 m 2,30,31
 287 336 287 336 337 236 c 128,-1,32
 387 136 387 136 496 136 c 0,33,34
 564 136 564 136 611.5 171 c 128,-1,35
 659 206 659 206 688 270 c 1,36,-1
 688 802 l 1,37,38
 659 868 659 868 611.5 906 c 128,-1,39
 564 944 564 944 497 944 c 0,40,41
 389 944 389 944 338 828.5 c 128,-1,42
 287 713 287 713 287 528 c 2,43,-1
 287 507 l 2,30,31
EndSplineSet
Substitution2: "'smcp' Lowercase to Small Capitals lookup 0 subtable" G.smcp
EndChar

StartChar: h
Encoding: 104 104 75
Width: 1008
GlyphClass: 1
Flags: W
LayerCount: 2
Fore
SplineSet
318 937 m 1,0,1
 364 1015 364 1015 431 1058.5 c 128,-1,2
 498 1102 498 1102 581 1102 c 0,3,4
 728 1102 728 1102 811 994 c 128,-1,5
 894 886 894 886 894 662 c 2,6,-1
 894 0 l 1,7,-1
 690 0 l 1,8,-1
 690 664 l 2,9,10
 690 813 690 813 647 878.5 c 128,-1,11
 604 944 604 944 520 944 c 0,12,13
 450 944 450 944 399.5 910 c 128,-1,14
 349 876 349 876 318 815 c 1,15,-1
 318 0 l 1,16,-1
 114 0 l 1,17,-1
 114 1560 l 1,18,-1
 318 1560 l 1,19,-1
 318 937 l 1,0,1
EndSplineSet
Substitution2: "'smcp' Lowercase to Small Capitals lookup 0 subtable" H.smcp
EndChar

StartChar: i
Encoding: 105 105 76
Width: 465
GlyphClass: 1
Flags: W
LayerCount: 2
Fore
SplineSet
334 0 m 1,0,-1
 130 0 l 1,1,-1
 130 1082 l 1,2,-1
 334 1082 l 1,3,-1
 334 0 l 1,0,-1
334 1366 m 1,4,-1
 130 1366 l 1,5,-1
 130 1560 l 1,6,-1
 334 1560 l 1,7,-1
 334 1366 l 1,4,-1
EndSplineSet
Substitution2: "'smcp' Lowercase to Small Capitals lookup 0 subtable" I.smcp
EndChar

StartChar: j
Encoding: 106 106 77
Width: 470
GlyphClass: 1
Flags: W
LayerCount: 2
Fore
SplineSet
342 1082 m 1,0,-1
 342 -74 l 2,1,2
 342 -248 342 -248 262 -342.5 c 128,-1,3
 182 -437 182 -437 40 -437 c 0,4,5
 10 -437 10 -437 -14.5 -432.5 c 128,-1,6
 -39 -428 -39 -428 -68 -419 c 1,7,-1
 -56 -264 l 1,8,9
 -40 -270 -40 -270 -19 -274 c 128,-1,10
 2 -278 2 -278 20 -278 c 0,11,12
 75 -278 75 -278 107 -227.5 c 128,-1,13
 139 -177 139 -177 139 -74 c 2,14,-1
 139 1082 l 1,15,-1
 342 1082 l 1,0,-1
337 1369 m 1,16,-1
 133 1369 l 1,17,-1
 133 1560 l 1,18,-1
 337 1560 l 1,19,-1
 337 1369 l 1,16,-1
EndSplineSet
Substitution2: "'smcp' Lowercase to Small Capitals lookup 0 subtable" J.smcp
EndChar

StartChar: k
Encoding: 107 107 78
Width: 933
GlyphClass: 1
Flags: W
LayerCount: 2
Fore
SplineSet
397 496 m 1,0,-1
 321 496 l 1,1,-1
 321 0 l 1,2,-1
 118 0 l 1,3,-1
 118 1560 l 1,4,-1
 321 1560 l 1,5,-1
 321 651 l 1,6,-1
 392 651 l 1,7,-1
 652 1082 l 1,8,-1
 891 1082 l 1,9,-1
 560 590 l 1,10,-1
 927 0 l 1,11,-1
 690 0 l 1,12,-1
 397 496 l 1,0,-1
EndSplineSet
Substitution2: "'smcp' Lowercase to Small Capitals lookup 0 subtable" K.smcp
EndChar

StartChar: l
Encoding: 108 108 79
Width: 465
GlyphClass: 1
Flags: W
LayerCount: 2
Fore
SplineSet
334 0 m 1,0,-1
 130 0 l 1,1,-1
 130 1560 l 1,2,-1
 334 1560 l 1,3,-1
 334 0 l 1,0,-1
EndSplineSet
Substitution2: "'smcp' Lowercase to Small Capitals lookup 0 subtable" L.smcp
EndChar

StartChar: m
Encoding: 109 109 80
Width: 1547
GlyphClass: 1
Flags: W
LayerCount: 2
Fore
SplineSet
303 1082 m 1,0,-1
 314 935 l 1,1,2
 359 1015 359 1015 428.5 1058.5 c 128,-1,3
 498 1102 498 1102 590 1102 c 0,4,5
 680 1102 680 1102 746 1052.5 c 128,-1,6
 812 1003 812 1003 845 902 c 1,7,8
 888 996 888 996 959.5 1049 c 128,-1,9
 1031 1102 1031 1102 1128 1102 c 0,10,11
 1269 1102 1269 1102 1349.5 987.5 c 128,-1,12
 1430 873 1430 873 1430 639 c 2,13,-1
 1430 0 l 1,14,-1
 1226 0 l 1,15,-1
 1226 640 l 2,16,17
 1226 809 1226 809 1184 876.5 c 128,-1,18
 1142 944 1142 944 1059 944 c 0,19,20
 989 944 989 944 941.5 892 c 128,-1,21
 894 840 894 840 872 755 c 1,22,23
 873 737 873 737 874 717.5 c 128,-1,24
 875 698 875 698 875 678 c 2,25,-1
 875 0 l 1,26,-1
 672 0 l 1,27,-1
 672 640 l 2,28,29
 672 803 672 803 629 873.5 c 128,-1,30
 586 944 586 944 504 944 c 0,31,32
 438 944 438 944 392 908 c 128,-1,33
 346 872 346 872 320 809 c 1,34,-1
 320 0 l 1,35,-1
 116 0 l 1,36,-1
 116 1082 l 1,37,-1
 303 1082 l 1,0,-1
EndSplineSet
Substitution2: "'smcp' Lowercase to Small Capitals lookup 0 subtable" M.smcp
EndChar

StartChar: n
Encoding: 110 110 81
Width: 1008
GlyphClass: 1
Flags: W
LayerCount: 2
Fore
SplineSet
301 1082 m 1,0,-1
 313 921 l 1,1,2
 359 1007 359 1007 429 1054.5 c 128,-1,3
 499 1102 499 1102 588 1102 c 0,4,5
 732 1102 732 1102 812.5 996 c 128,-1,6
 893 890 893 890 893 666 c 2,7,-1
 893 0 l 1,8,-1
 690 0 l 1,9,-1
 690 665 l 2,10,11
 690 818 690 818 647.5 881 c 128,-1,12
 605 944 605 944 519 944 c 0,13,14
 449 944 449 944 399 907.5 c 128,-1,15
 349 871 349 871 319 807 c 1,16,-1
 319 0 l 1,17,-1
 115 0 l 1,18,-1
 115 1082 l 1,19,-1
 301 1082 l 1,0,-1
EndSplineSet
Substitution2: "'smcp' Lowercase to Small Capitals lookup 0 subtable" N.smcp
EndChar

StartChar: o
Encoding: 111 111 82
Width: 1008
GlyphClass: 1
Flags: W
LayerCount: 2
Fore
SplineSet
76 553 m 2,0,1
 76 794 76 794 190 948 c 128,-1,2
 304 1102 304 1102 503 1102 c 256,3,4
 702 1102 702 1102 816.5 948 c 128,-1,5
 931 794 931 794 931 553 c 2,6,-1
 931 526 l 2,7,8
 931 284 931 284 817 131.5 c 128,-1,9
 703 -21 703 -21 505 -21 c 0,10,11
 304 -21 304 -21 190 131.5 c 128,-1,12
 76 284 76 284 76 526 c 2,13,-1
 76 553 l 2,0,1
280 526 m 2,14,15
 280 353 280 353 335.5 243 c 128,-1,16
 391 133 391 133 505 133 c 0,17,18
 616 133 616 133 671.5 243.5 c 128,-1,19
 727 354 727 354 727 526 c 2,20,-1
 727 553 l 2,21,22
 727 723 727 723 671 834.5 c 128,-1,23
 615 946 615 946 503 946 c 256,24,25
 391 946 391 946 335.5 834.5 c 128,-1,26
 280 723 280 723 280 553 c 2,27,-1
 280 526 l 2,14,15
EndSplineSet
Substitution2: "'smcp' Lowercase to Small Capitals lookup 0 subtable" O.smcp
EndChar

StartChar: p
Encoding: 112 112 83
Width: 1008
GlyphClass: 1
Flags: W
LayerCount: 2
Fore
SplineSet
929 507 m 2,0,1
 929 267 929 267 833.5 123 c 128,-1,2
 738 -21 738 -21 567 -21 c 0,3,4
 487 -21 487 -21 425.5 10.5 c 128,-1,5
 364 42 364 42 321 103 c 1,6,-1
 321 -416 l 1,7,-1
 117 -416 l 1,8,-1
 117 1082 l 1,9,-1
 290 1082 l 1,10,-1
 309 952 l 1,11,12
 353 1025 353 1025 417 1063.5 c 128,-1,13
 481 1102 481 1102 566 1102 c 0,14,15
 738 1102 738 1102 833.5 945 c 128,-1,16
 929 788 929 788 929 528 c 2,17,-1
 929 507 l 2,0,1
725 528 m 2,18,19
 725 712 725 712 671.5 828 c 128,-1,20
 618 944 618 944 511 944 c 0,21,22
 443 944 443 944 396 906.5 c 128,-1,23
 349 869 349 869 321 805 c 1,24,-1
 321 260 l 1,25,26
 349 199 349 199 396 166 c 128,-1,27
 443 133 443 133 512 133 c 0,28,29
 619 133 619 133 672 235 c 128,-1,30
 725 337 725 337 725 507 c 2,31,-1
 725 528 l 2,18,19
EndSplineSet
Substitution2: "'smcp' Lowercase to Small Capitals lookup 0 subtable" P.smcp
EndChar

StartChar: q
Encoding: 113 113 84
Width: 1008
GlyphClass: 1
Flags: W
LayerCount: 2
Fore
SplineSet
79 528 m 2,0,1
 79 788 79 788 174 945 c 128,-1,2
 269 1102 269 1102 441 1102 c 0,3,4
 523 1102 523 1102 586 1064 c 128,-1,5
 649 1026 649 1026 693 956 c 1,6,-1
 715 1082 l 1,7,-1
 882 1082 l 1,8,-1
 882 -416 l 1,9,-1
 678 -416 l 1,10,-1
 678 98 l 1,11,12
 635 39 635 39 575.5 9 c 128,-1,13
 516 -21 516 -21 439 -21 c 0,14,15
 268 -21 268 -21 173.5 123.5 c 128,-1,16
 79 268 79 268 79 507 c 2,17,-1
 79 528 l 2,0,1
281 507 m 2,18,19
 281 336 281 336 332 234.5 c 128,-1,20
 383 133 383 133 491 133 c 0,21,22
 556 133 556 133 602 165.5 c 128,-1,23
 648 198 648 198 678 258 c 1,24,-1
 678 815 l 1,25,26
 649 876 649 876 602.5 911 c 128,-1,27
 556 946 556 946 492 946 c 0,28,29
 384 946 384 946 332.5 829.5 c 128,-1,30
 281 713 281 713 281 528 c 2,31,-1
 281 507 l 2,18,19
EndSplineSet
Substitution2: "'smcp' Lowercase to Small Capitals lookup 0 subtable" Q.smcp
EndChar

StartChar: r
Encoding: 114 114 85
Width: 630
GlyphClass: 1
Flags: W
LayerCount: 2
Fore
SplineSet
581 913 m 1,0,-1
 493 918 l 2,1,2
 429 918 429 918 386.5 879.5 c 128,-1,3
 344 841 344 841 321 771 c 1,4,-1
 321 0 l 1,5,-1
 117 0 l 1,6,-1
 117 1082 l 1,7,-1
 304 1082 l 1,8,-1
 318 922 l 1,9,10
 354 1007 354 1007 410 1054.5 c 128,-1,11
 466 1102 466 1102 539 1102 c 0,12,13
 558 1102 558 1102 574.5 1098.5 c 128,-1,14
 591 1095 591 1095 604 1090 c 1,15,-1
 581 913 l 1,0,-1
EndSplineSet
Substitution2: "'smcp' Lowercase to Small Capitals lookup 0 subtable" R.smcp
EndChar

StartChar: s
Encoding: 115 115 86
Width: 902
GlyphClass: 1
Flags: W
LayerCount: 2
Fore
SplineSet
630 273 m 0,0,1
 630 336 630 336 588 378.5 c 128,-1,2
 546 421 546 421 427 474 c 1,3,4
 260 537 260 537 177 611 c 128,-1,5
 94 685 94 685 94 801 c 0,6,7
 94 926 94 926 194.5 1014 c 128,-1,8
 295 1102 295 1102 456 1102 c 0,9,10
 623 1102 623 1102 725 1005.5 c 128,-1,11
 827 909 827 909 823 772 c 1,12,-1
 821 766 l 1,13,-1
 625 766 l 1,14,15
 625 843 625 843 579.5 898.5 c 128,-1,16
 534 954 534 954 456 954 c 256,17,18
 378 954 378 954 334.5 910.5 c 128,-1,19
 291 867 291 867 291 809 c 0,20,21
 291 747 291 747 328.5 711.5 c 128,-1,22
 366 676 366 676 489 620 c 1,23,24
 659 560 659 560 744.5 481 c 128,-1,25
 830 402 830 402 830 283 c 0,26,27
 830 148 830 148 726.5 63.5 c 128,-1,28
 623 -21 623 -21 455 -21 c 0,29,30
 273 -21 273 -21 168.5 80.5 c 128,-1,31
 64 182 64 182 69 318 c 1,32,-1
 71 324 l 1,33,-1
 260 324 l 1,34,35
 264 219 264 219 319.5 172.5 c 128,-1,36
 375 126 375 126 458 126 c 0,37,38
 539 126 539 126 584.5 167.5 c 128,-1,39
 630 209 630 209 630 273 c 0,0,1
EndSplineSet
Substitution2: "'smcp' Lowercase to Small Capitals lookup 0 subtable" S.smcp
EndChar

StartChar: t
Encoding: 116 116 87
Width: 614
GlyphClass: 1
Flags: W
LayerCount: 2
Fore
SplineSet
378 1351 m 1,0,-1
 378 1082 l 1,1,-1
 547 1082 l 1,2,-1
 547 937 l 1,3,-1
 378 937 l 1,4,-1
 378 293 l 2,5,6
 378 209 378 209 403.5 173.5 c 128,-1,7
 429 138 429 138 471 138 c 0,8,9
 488 138 488 138 503 141 c 128,-1,10
 518 144 518 144 538 150 c 1,11,-1
 559 10 l 1,12,13
 530 -4 530 -4 494.5 -12.5 c 128,-1,14
 459 -21 459 -21 421 -21 c 0,15,16
 304 -21 304 -21 239 54.5 c 128,-1,17
 174 130 174 130 174 293 c 2,18,-1
 174 937 l 1,19,-1
 31 937 l 1,20,-1
 31 1082 l 1,21,-1
 174 1082 l 1,22,-1
 174 1351 l 1,23,-1
 378 1351 l 1,0,-1
EndSplineSet
Substitution2: "'smcp' Lowercase to Small Capitals lookup 0 subtable" T.smcp
EndChar

StartChar: u
Encoding: 117 117 88
Width: 1008
GlyphClass: 1
Flags: W
LayerCount: 2
Fore
SplineSet
699 158 m 1,0,1
 655 72 655 72 587 25.5 c 128,-1,2
 519 -21 519 -21 429 -21 c 0,3,4
 280 -21 280 -21 196 94 c 128,-1,5
 112 209 112 209 112 451 c 2,6,-1
 112 1082 l 1,7,-1
 316 1082 l 1,8,-1
 316 449 l 2,9,10
 316 275 316 275 356 205.5 c 128,-1,11
 396 136 396 136 478 136 c 0,12,13
 553 136 553 136 605.5 171 c 128,-1,14
 658 206 658 206 688 271 c 1,15,-1
 688 1082 l 1,16,-1
 892 1082 l 1,17,-1
 892 0 l 1,18,-1
 719 0 l 1,19,-1
 699 158 l 1,0,1
EndSplineSet
Substitution2: "'smcp' Lowercase to Small Capitals lookup 0 subtable" U.smcp
EndChar

StartChar: v
Encoding: 118 118 89
Width: 903
GlyphClass: 1
Flags: W
LayerCount: 2
Fore
SplineSet
435 325 m 1,0,-1
 452 240 l 1,1,-1
 458 240 l 1,2,-1
 476 325 l 1,3,-1
 665 1082 l 1,4,-1
 875 1082 l 1,5,-1
 545 0 l 1,6,-1
 364 0 l 1,7,-1
 32 1082 l 1,8,-1
 244 1082 l 1,9,-1
 435 325 l 1,0,-1
EndSplineSet
Substitution2: "'smcp' Lowercase to Small Capitals lookup 0 subtable" V.smcp
EndChar

StartChar: w
Encoding: 119 119 90
Width: 1328
GlyphClass: 1
Flags: W
LayerCount: 2
Fore
SplineSet
934 353 m 1,0,-1
 940 353 l 1,1,-1
 1078 1082 l 1,2,-1
 1282 1082 l 1,3,-1
 1030 0 l 1,4,-1
 862 0 l 1,5,-1
 662 702 l 1,6,-1
 656 702 l 1,7,-1
 462 0 l 1,8,-1
 293 0 l 1,9,-1
 40 1082 l 1,10,-1
 243 1082 l 1,11,-1
 385 361 l 1,12,-1
 391 361 l 1,13,-1
 588 1082 l 1,14,-1
 734 1082 l 1,15,-1
 934 353 l 1,0,-1
EndSplineSet
Substitution2: "'smcp' Lowercase to Small Capitals lookup 0 subtable" W.smcp
EndChar

StartChar: x
Encoding: 120 120 91
Width: 903
GlyphClass: 1
Flags: W
LayerCount: 2
Fore
SplineSet
446 687 m 1,0,-1
 452 687 l 1,1,-1
 626 1082 l 1,2,-1
 860 1082 l 1,3,-1
 567 548 l 1,4,-1
 870 0 l 1,5,-1
 638 0 l 1,6,-1
 455 408 l 1,7,-1
 449 408 l 1,8,-1
 267 0 l 1,9,-1
 35 0 l 1,10,-1
 336 548 l 1,11,-1
 44 1082 l 1,12,-1
 274 1082 l 1,13,-1
 446 687 l 1,0,-1
EndSplineSet
Substitution2: "'smcp' Lowercase to Small Capitals lookup 0 subtable" X.smcp
EndChar

StartChar: y
Encoding: 121 121 92
Width: 903
GlyphClass: 1
Flags: W
LayerCount: 2
Fore
SplineSet
425 373 m 1,0,-1
 441 300 l 1,1,-1
 447 300 l 1,2,-1
 659 1082 l 1,3,-1
 882 1082 l 1,4,-1
 495 -168 l 2,5,6
 458 -279 458 -279 392 -358 c 128,-1,7
 326 -437 326 -437 202 -437 c 0,8,9
 177 -437 177 -437 148 -431.5 c 128,-1,10
 119 -426 119 -426 91 -419 c 1,11,-1
 114 -269 l 1,12,13
 124 -271 124 -271 143.5 -273 c 128,-1,14
 163 -275 163 -275 174 -275 c 0,15,16
 234 -275 234 -275 269 -224.5 c 128,-1,17
 304 -174 304 -174 324 -105 c 2,18,-1
 361 7 l 1,19,-1
 20 1082 l 1,20,-1
 242 1082 l 1,21,-1
 425 373 l 1,0,-1
EndSplineSet
Substitution2: "'smcp' Lowercase to Small Capitals lookup 0 subtable" Y.smcp
EndChar

StartChar: z
Encoding: 122 122 93
Width: 903
GlyphClass: 1
Flags: W
LayerCount: 2
Fore
SplineSet
307 154 m 1,0,-1
 834 154 l 1,1,-1
 834 0 l 1,2,-1
 79 0 l 1,3,-1
 79 128 l 1,4,-1
 578 925 l 1,5,-1
 90 925 l 1,6,-1
 90 1082 l 1,7,-1
 811 1082 l 1,8,-1
 811 956 l 1,9,-1
 307 154 l 1,0,-1
EndSplineSet
Substitution2: "'smcp' Lowercase to Small Capitals lookup 0 subtable" Z.smcp
EndChar

StartChar: braceleft
Encoding: 123 123 94
Width: 601
GlyphClass: 1
Flags: W
LayerCount: 2
Fore
SplineSet
529 -379 m 1,0,1
 363 -324 363 -324 292.5 -204.5 c 128,-1,2
 222 -85 222 -85 222 85 c 2,3,-1
 222 297 l 2,4,5
 222 409 222 409 181 472 c 128,-1,6
 140 535 140 535 54 535 c 1,7,-1
 54 681 l 1,8,9
 140 681 140 681 181 742.5 c 128,-1,10
 222 804 222 804 222 917 c 2,11,-1
 222 1132 l 2,12,13
 222 1303 222 1303 292 1422.5 c 128,-1,14
 362 1542 362 1542 529 1597 c 1,15,-1
 570 1483 l 1,16,17
 484 1447 484 1447 448.5 1356.5 c 128,-1,18
 413 1266 413 1266 413 1132 c 2,19,-1
 413 917 l 2,20,21
 413 811 413 811 372.5 730.5 c 128,-1,22
 332 650 332 650 250 608 c 1,23,24
 332 564 332 564 372.5 483 c 128,-1,25
 413 402 413 402 413 297 c 2,26,-1
 413 85 l 2,27,28
 413 -48 413 -48 449 -137.5 c 128,-1,29
 485 -227 485 -227 570 -264 c 1,30,-1
 529 -379 l 1,0,1
EndSplineSet
EndChar

StartChar: bar
Encoding: 124 124 95
Width: 449
GlyphClass: 1
Flags: W
LayerCount: 2
Fore
SplineSet
309 -270 m 1,0,-1
 132 -270 l 1,1,-1
 132 1456 l 1,2,-1
 309 1456 l 1,3,-1
 309 -270 l 1,0,-1
EndSplineSet
EndChar

StartChar: braceright
Encoding: 125 125 96
Width: 601
GlyphClass: 1
Flags: W
LayerCount: 2
Fore
SplineSet
29 -264 m 1,0,1
 114 -227 114 -227 150.5 -137.5 c 128,-1,2
 187 -48 187 -48 187 85 c 2,3,-1
 187 297 l 2,4,5
 187 405 187 405 228.5 485.5 c 128,-1,6
 270 566 270 566 356 607 c 1,7,8
 270 647 270 647 228.5 727.5 c 128,-1,9
 187 808 187 808 187 917 c 2,10,-1
 187 1132 l 2,11,12
 187 1265 187 1265 150.5 1355.5 c 128,-1,13
 114 1446 114 1446 30 1483 c 1,14,-1
 69 1597 l 1,15,16
 235 1542 235 1542 305.5 1422.5 c 128,-1,17
 376 1303 376 1303 376 1132 c 2,18,-1
 376 917 l 2,19,20
 376 805 376 805 417 743 c 128,-1,21
 458 681 458 681 544 681 c 1,22,-1
 544 535 l 1,23,24
 459 535 459 535 417.5 472 c 128,-1,25
 376 409 376 409 376 297 c 2,26,-1
 376 85 l 2,27,28
 376 -85 376 -85 305.5 -204.5 c 128,-1,29
 235 -324 235 -324 69 -379 c 1,30,-1
 29 -264 l 1,0,1
EndSplineSet
EndChar

StartChar: asciitilde
Encoding: 126 126 97
Width: 1182
GlyphClass: 1
Flags: W
LayerCount: 2
Fore
SplineSet
1073 745 m 1,0,1
 1073 603 1073 603 998.5 502.5 c 128,-1,2
 924 402 924 402 811 402 c 0,3,4
 736 402 736 402 674 436 c 128,-1,5
 612 470 612 470 540 544 c 0,6,7
 491 594 491 594 454 618 c 128,-1,8
 417 642 417 642 376 642 c 0,9,10
 324 642 324 642 288 586 c 128,-1,11
 252 530 252 530 252 446 c 1,12,-1
 108 466 l 1,13,14
 108 607 108 607 181.5 705 c 128,-1,15
 255 803 255 803 370 803 c 0,16,17
 442 803 442 803 506.5 767.5 c 128,-1,18
 571 732 571 732 642 662 c 1,19,20
 687 610 687 610 724.5 587 c 128,-1,21
 762 564 762 564 804 564 c 0,22,23
 855 564 855 564 892 622 c 128,-1,24
 929 680 929 680 929 765 c 1,25,-1
 1073 745 l 1,0,1
EndSplineSet
EndChar

StartChar: exclamdown
Encoding: 161 161 99
Width: 476
GlyphClass: 1
Flags: W
LayerCount: 2
Fore
SplineSet
335 -374 m 1,0,-1
 131 -374 l 1,1,-1
 131 596 l 1,2,-1
 335 596 l 1,3,-1
 335 -374 l 1,0,-1
336 869 m 1,4,-1
 130 869 l 1,5,-1
 130 1082 l 1,6,-1
 336 1082 l 1,7,-1
 336 869 l 1,4,-1
EndSplineSet
EndChar

StartChar: cent
Encoding: 162 162 100
Width: 1004
GlyphClass: 1
Flags: W
LayerCount: 2
Fore
SplineSet
493 133 m 0,0,1
 568 133 568 133 618.5 191 c 128,-1,2
 669 249 669 249 669 348 c 1,3,-1
 860 348 l 1,4,5
 860 220 860 220 785 123.5 c 128,-1,6
 710 27 710 27 595 -6 c 1,7,-1
 595 -245 l 1,8,-1
 431 -245 l 1,9,-1
 431 -16 l 1,10,11
 259 7 259 7 167 155.5 c 128,-1,12
 75 304 75 304 75 521 c 2,13,-1
 75 559 l 2,14,15
 75 774 75 774 167 923 c 128,-1,16
 259 1072 259 1072 431 1097 c 1,17,-1
 431 1318 l 1,18,-1
 595 1318 l 1,19,-1
 595 1089 l 1,20,21
 716 1056 716 1056 788 953.5 c 128,-1,22
 860 851 860 851 860 703 c 1,23,-1
 669 703 l 1,24,25
 669 811 669 811 620.5 878.5 c 128,-1,26
 572 946 572 946 493 946 c 0,27,28
 379 946 379 946 328.5 836 c 128,-1,29
 278 726 278 726 278 559 c 2,30,-1
 278 521 l 2,31,32
 278 351 278 351 328 242 c 128,-1,33
 378 133 378 133 493 133 c 0,0,1
EndSplineSet
EndChar

StartChar: sterling
Encoding: 163 163 101
Width: 1048
GlyphClass: 1
Flags: W
LayerCount: 2
Fore
SplineSet
425 618 m 1,0,-1
 430 477 l 2,1,2
 430 384 430 384 405.5 299.5 c 128,-1,3
 381 215 381 215 336 154 c 1,4,-1
 976 154 l 1,5,-1
 976 0 l 1,6,-1
 131 0 l 1,7,-1
 131 154 l 1,8,-1
 139 154 l 1,9,10
 182 167 182 167 204 267 c 128,-1,11
 226 367 226 367 226 473 c 2,12,-1
 221 618 l 1,13,-1
 76 618 l 1,14,-1
 76 772 l 1,15,-1
 216 772 l 1,16,-1
 207 1036 l 1,17,18
 207 1241 207 1241 306.5 1359 c 128,-1,19
 406 1477 406 1477 573 1477 c 0,20,21
 750 1477 750 1477 846.5 1370 c 128,-1,22
 943 1263 943 1263 940 1088 c 1,23,-1
 937 1082 l 1,24,-1
 742 1082 l 1,25,26
 742 1205 742 1205 694.5 1263 c 128,-1,27
 647 1321 647 1321 573 1321 c 0,28,29
 498 1321 498 1321 454.5 1246 c 128,-1,30
 411 1171 411 1171 411 1036 c 1,31,-1
 420 772 l 1,32,-1
 754 772 l 1,33,-1
 754 618 l 1,34,-1
 425 618 l 1,0,-1
EndSplineSet
EndChar

StartChar: currency
Encoding: 164 164 102
Width: 1309
GlyphClass: 1
Flags: W
LayerCount: 2
Fore
SplineSet
988 113 m 1,0,1
 918 49 918 49 833.5 14.5 c 128,-1,2
 749 -20 749 -20 658 -20 c 0,3,4
 565 -20 565 -20 481 13.5 c 128,-1,5
 397 47 397 47 328 111 c 1,6,-1
 207 -26 l 1,7,-1
 90 92 l 1,8,-1
 221 241 l 1,9,10
 173 319 173 319 147.5 412 c 128,-1,11
 122 505 122 505 122 608 c 0,12,13
 122 714 122 714 149 810 c 128,-1,14
 176 906 176 906 228 986 c 1,15,-1
 90 1144 l 1,16,-1
 207 1264 l 1,17,-1
 339 1114 l 1,18,19
 406 1171 406 1171 487.5 1202.5 c 128,-1,20
 569 1234 569 1234 658 1234 c 0,21,22
 746 1234 746 1234 827.5 1202 c 128,-1,23
 909 1170 909 1170 977 1112 c 1,24,-1
 1111 1265 l 1,25,-1
 1228 1144 l 1,26,-1
 1087 983 l 1,27,28
 1136 904 1136 904 1163.5 808.5 c 128,-1,29
 1191 713 1191 713 1191 608 c 0,30,31
 1191 507 1191 507 1165.5 414.5 c 128,-1,32
 1140 322 1140 322 1094 244 c 1,33,-1
 1228 92 l 1,34,-1
 1111 -27 l 1,35,-1
 988 113 l 1,0,1
275 608 m 0,36,37
 275 410 275 410 386.5 271.5 c 128,-1,38
 498 133 498 133 658 133 c 0,39,40
 815 133 815 133 926.5 271.5 c 128,-1,41
 1038 410 1038 410 1038 608 c 0,42,43
 1038 804 1038 804 926.5 942 c 128,-1,44
 815 1080 815 1080 658 1080 c 0,45,46
 498 1080 498 1080 386.5 942 c 128,-1,47
 275 804 275 804 275 608 c 0,36,37
EndSplineSet
EndChar

StartChar: yen
Encoding: 165 165 103
Width: 1084
GlyphClass: 1
Flags: W
LayerCount: 2
Fore
SplineSet
537 821 m 1,0,-1
 543 821 l 1,1,-1
 821 1456 l 1,2,-1
 1048 1456 l 1,3,-1
 693 726 l 1,4,-1
 945 726 l 1,5,-1
 945 604 l 1,6,-1
 638 604 l 1,7,-1
 638 434 l 1,8,-1
 945 434 l 1,9,-1
 945 314 l 1,10,-1
 638 314 l 1,11,-1
 638 0 l 1,12,-1
 435 0 l 1,13,-1
 435 314 l 1,14,-1
 124 314 l 1,15,-1
 124 434 l 1,16,-1
 435 434 l 1,17,-1
 435 604 l 1,18,-1
 124 604 l 1,19,-1
 124 726 l 1,20,-1
 386 726 l 1,21,-1
 30 1456 l 1,22,-1
 257 1456 l 1,23,-1
 537 821 l 1,0,-1
EndSplineSet
EndChar

StartChar: brokenbar
Encoding: 166 166 104
Width: 445
GlyphClass: 1
Flags: W
LayerCount: 2
Fore
SplineSet
125 -270 m 1,0,-1
 125 514 l 1,1,-1
 315 514 l 1,2,-1
 315 -270 l 1,3,-1
 125 -270 l 1,0,-1
315 698 m 1,4,-1
 125 698 l 1,5,-1
 125 1456 l 1,6,-1
 315 1456 l 1,7,-1
 315 698 l 1,4,-1
EndSplineSet
EndChar

StartChar: section
Encoding: 167 167 105
Width: 1106
GlyphClass: 1
Flags: W
LayerCount: 2
Fore
SplineSet
1005 444 m 0,0,1
 1005 351 1005 351 961 282 c 128,-1,2
 917 213 917 213 837 174 c 1,3,4
 906 123 906 123 941 53 c 128,-1,5
 976 -17 976 -17 976 -118 c 0,6,7
 976 -290 976 -290 858.5 -387 c 128,-1,8
 741 -484 741 -484 543 -484 c 0,9,10
 349 -484 349 -484 218 -382.5 c 128,-1,11
 87 -281 87 -281 92 -62 c 1,12,-1
 94 -56 l 1,13,-1
 289 -54 l 1,14,15
 289 -198 289 -198 363 -263.5 c 128,-1,16
 437 -329 437 -329 543 -329 c 0,17,18
 650 -329 650 -329 711 -270.5 c 128,-1,19
 772 -212 772 -212 772 -120 c 0,20,21
 772 -30 772 -30 714.5 20.5 c 128,-1,22
 657 71 657 71 496 129 c 1,23,24
 287 193 287 193 188 283.5 c 128,-1,25
 89 374 89 374 89 546 c 0,26,27
 89 638 89 638 131.5 707 c 128,-1,28
 174 776 174 776 254 817 c 1,29,30
 186 868 186 868 152.5 938 c 128,-1,31
 119 1008 119 1008 119 1109 c 0,32,33
 119 1275 119 1275 237 1376 c 128,-1,34
 355 1477 355 1477 552 1477 c 0,35,36
 756 1477 756 1477 870.5 1365.5 c 128,-1,37
 985 1254 985 1254 981 1053 c 1,38,-1
 979 1047 l 1,39,-1
 784 1047 l 1,40,41
 784 1165 784 1165 722.5 1243 c 128,-1,42
 661 1321 661 1321 552 1321 c 0,43,44
 437 1321 437 1321 380 1262 c 128,-1,45
 323 1203 323 1203 323 1111 c 0,46,47
 323 1014 323 1014 376.5 963.5 c 128,-1,48
 430 913 430 913 597 857 c 0,49,50
 809 791 809 791 907 702.5 c 128,-1,51
 1005 614 1005 614 1005 444 c 0,0,1
523 697 m 0,52,53
 488 707 488 707 457 717.5 c 128,-1,54
 426 728 426 728 397 740 c 1,55,56
 344 718 344 718 318 670 c 128,-1,57
 292 622 292 622 292 556 c 0,58,59
 292 455 292 455 346 403.5 c 128,-1,60
 400 352 400 352 569 292 c 0,61,62
 598 282 598 282 627 272 c 128,-1,63
 656 262 656 262 688 251 c 1,64,65
 743 272 743 272 773.5 320.5 c 128,-1,66
 804 369 804 369 804 434 c 0,67,68
 804 526 804 526 744.5 580.5 c 128,-1,69
 685 635 685 635 523 697 c 0,52,53
EndSplineSet
EndChar

StartChar: dieresis
Encoding: 168 168 106
Width: 950
GlyphClass: 1
Flags: W
LayerCount: 2
Fore
SplineSet
797 1271 m 1,0,-1
 588 1271 l 1,1,-1
 588 1456 l 1,2,-1
 797 1456 l 1,3,-1
 797 1271 l 1,0,-1
361 1271 m 1,4,-1
 152 1271 l 1,5,-1
 152 1456 l 1,6,-1
 361 1456 l 1,7,-1
 361 1271 l 1,4,-1
EndSplineSet
EndChar

StartChar: copyright
Encoding: 169 169 107
Width: 1462
GlyphClass: 1
Flags: W
LayerCount: 2
Fore
SplineSet
1004 596 m 1,0,-1
 1007 590 l 1,1,2
 1010 440 1010 440 932 361 c 128,-1,3
 854 282 854 282 715 282 c 0,4,5
 572 282 572 282 488 388.5 c 128,-1,6
 404 495 404 495 404 669 c 2,7,-1
 404 788 l 2,8,9
 404 961 404 961 488 1068 c 128,-1,10
 572 1175 572 1175 715 1175 c 0,11,12
 854 1175 854 1175 932.5 1095.5 c 128,-1,13
 1011 1016 1011 1016 1008 867 c 1,14,-1
 1005 861 l 1,15,-1
 883 861 l 1,16,17
 883 963 883 963 841 1011 c 128,-1,18
 799 1059 799 1059 715 1059 c 0,19,20
 627 1059 627 1059 579.5 984 c 128,-1,21
 532 909 532 909 532 789 c 2,22,-1
 532 669 l 2,23,24
 532 546 532 546 579.5 471.5 c 128,-1,25
 627 397 627 397 715 397 c 0,26,27
 799 397 799 397 840.5 444 c 128,-1,28
 882 491 882 491 882 596 c 1,29,-1
 1004 596 l 1,0,-1
191 729 m 0,30,31
 191 458 191 458 347 272 c 128,-1,32
 503 86 503 86 727 86 c 0,33,34
 948 86 948 86 1104.5 272 c 128,-1,35
 1261 458 1261 458 1261 729 c 0,36,37
 1261 997 1261 997 1104.5 1182 c 128,-1,38
 948 1367 948 1367 727 1367 c 0,39,40
 503 1367 503 1367 347 1182 c 128,-1,41
 191 997 191 997 191 729 c 0,30,31
88 729 m 0,42,43
 88 1044 88 1044 274 1260 c 128,-1,44
 460 1476 460 1476 727 1476 c 0,45,46
 992 1476 992 1476 1178.5 1260 c 128,-1,47
 1365 1044 1365 1044 1365 729 c 0,48,49
 1365 413 1365 413 1178 196 c 128,-1,50
 991 -21 991 -21 727 -21 c 0,51,52
 460 -21 460 -21 274 196 c 128,-1,53
 88 413 88 413 88 729 c 0,42,43
EndSplineSet
EndChar

StartChar: ordfeminine
Encoding: 170 170 108
Width: 798
GlyphClass: 1
Flags: W
LayerCount: 2
Fore
SplineSet
533 706 m 1,0,1
 526 729 526 729 521.5 754 c 128,-1,2
 517 779 517 779 515 806 c 1,3,4
 487 756 487 756 438 724 c 128,-1,5
 389 692 389 692 322 692 c 0,6,7
 220 692 220 692 164 753.5 c 128,-1,8
 108 815 108 815 108 920 c 0,9,10
 108 1028 108 1028 180 1087 c 128,-1,11
 252 1146 252 1146 390 1146 c 2,12,-1
 513 1146 l 1,13,-1
 513 1202 l 2,14,15
 513 1273 513 1273 486 1312 c 128,-1,16
 459 1351 459 1351 408 1351 c 0,17,18
 348 1351 348 1351 315.5 1319.5 c 128,-1,19
 283 1288 283 1288 283 1231 c 1,20,-1
 150 1243 l 1,21,-1
 148 1249 l 1,22,23
 143 1347 143 1347 215.5 1412 c 128,-1,24
 288 1477 288 1477 408 1477 c 0,25,26
 522 1477 522 1477 589 1406 c 128,-1,27
 656 1335 656 1335 656 1201 c 2,28,-1
 656 887 l 2,29,30
 656 836 656 836 661 792 c 128,-1,31
 666 748 666 748 678 706 c 1,32,-1
 533 706 l 1,0,1
356 814 m 0,33,34
 402 814 402 814 449.5 847 c 128,-1,35
 497 880 497 880 513 920 c 1,36,-1
 513 1043 l 1,37,-1
 391 1043 l 2,38,39
 325 1043 325 1043 288 1008.5 c 128,-1,40
 251 974 251 974 251 924 c 0,41,42
 251 871 251 871 276.5 842.5 c 128,-1,43
 302 814 302 814 356 814 c 0,33,34
EndSplineSet
EndChar

StartChar: logicalnot
Encoding: 172 172 110
Width: 985
GlyphClass: 1
Flags: W
LayerCount: 2
Fore
SplineSet
830 378 m 1,0,-1
 668 378 l 1,1,-1
 668 649 l 1,2,-1
 116 649 l 1,3,-1
 116 792 l 1,4,-1
 830 792 l 1,5,-1
 830 378 l 1,0,-1
EndSplineSet
EndChar

StartChar: registered
Encoding: 174 174 112
Width: 1462
GlyphClass: 1
Flags: W
LayerCount: 2
Fore
SplineSet
87 729 m 0,0,1
 87 1044 87 1044 273 1260 c 128,-1,2
 459 1476 459 1476 725 1476 c 0,3,4
 990 1476 990 1476 1177 1260 c 128,-1,5
 1364 1044 1364 1044 1364 729 c 0,6,7
 1364 413 1364 413 1177 196 c 128,-1,8
 990 -21 990 -21 725 -21 c 0,9,10
 459 -21 459 -21 273 196 c 128,-1,11
 87 413 87 413 87 729 c 0,0,1
191 729 m 0,12,13
 191 458 191 458 347 272 c 128,-1,14
 503 86 503 86 725 86 c 256,15,16
 947 86 947 86 1103.5 272 c 128,-1,17
 1260 458 1260 458 1260 729 c 0,18,19
 1260 997 1260 997 1104 1182 c 128,-1,20
 948 1367 948 1367 725 1367 c 0,21,22
 503 1367 503 1367 347 1182 c 128,-1,23
 191 997 191 997 191 729 c 0,12,13
593 660 m 1,24,-1
 593 316 l 1,25,-1
 467 316 l 1,26,-1
 467 1166 l 1,27,-1
 715 1166 l 2,28,29
 851 1166 851 1166 927.5 1100.5 c 128,-1,30
 1004 1035 1004 1035 1004 911 c 0,31,32
 1004 848 1004 848 974 801.5 c 128,-1,33
 944 755 944 755 887 724 c 1,34,35
 946 697 946 697 973 643.5 c 128,-1,36
 1000 590 1000 590 1000 515 c 2,37,-1
 1000 459 l 2,38,39
 1000 417 1000 417 1003 384.5 c 128,-1,40
 1006 352 1006 352 1015 332 c 1,41,-1
 1015 316 l 1,42,-1
 885 316 l 1,43,44
 877 337 877 337 875 377.5 c 128,-1,45
 873 418 873 418 873 460 c 2,46,-1
 873 514 l 2,47,48
 873 590 873 590 842 625 c 128,-1,49
 811 660 811 660 740 660 c 2,50,-1
 593 660 l 1,24,-1
593 776 m 1,51,-1
 727 776 l 2,52,53
 790 776 790 776 834 811 c 128,-1,54
 878 846 878 846 878 908 c 0,55,56
 878 986 878 986 841.5 1018.5 c 128,-1,57
 805 1051 805 1051 715 1051 c 2,58,-1
 593 1051 l 1,59,-1
 593 776 l 1,51,-1
EndSplineSet
EndChar

StartChar: macron
Encoding: 175 175 113
AltUni2: 0002c9.ffffffff.0 0002c9.ffffffff.0
Width: 889
GlyphClass: 1
Flags: W
LayerCount: 2
Fore
SplineSet
769 1324 m 1,0,-1
 125 1324 l 1,1,-1
 125 1456 l 1,2,-1
 769 1456 l 1,3,-1
 769 1324 l 1,0,-1
EndSplineSet
EndChar

StartChar: degree
Encoding: 176 176 114
Width: 715
GlyphClass: 1
Flags: W
LayerCount: 2
Fore
SplineSet
124 1216 m 0,0,1
 124 1322 124 1322 193 1399.5 c 128,-1,2
 262 1477 262 1477 359 1477 c 0,3,4
 454 1477 454 1477 522.5 1399.5 c 128,-1,5
 591 1322 591 1322 591 1216 c 0,6,7
 591 1108 591 1108 523 1033.5 c 128,-1,8
 455 959 455 959 359 959 c 0,9,10
 261 959 261 959 192.5 1033.5 c 128,-1,11
 124 1108 124 1108 124 1216 c 0,0,1
241 1216 m 0,12,13
 241 1157 241 1157 275 1117.5 c 128,-1,14
 309 1078 309 1078 359 1078 c 0,15,16
 408 1078 408 1078 441 1117 c 128,-1,17
 474 1156 474 1156 474 1216 c 256,18,19
 474 1276 474 1276 440.5 1316.5 c 128,-1,20
 407 1357 407 1357 359 1357 c 0,21,22
 309 1357 309 1357 275 1316.5 c 128,-1,23
 241 1276 241 1276 241 1216 c 0,12,13
EndSplineSet
EndChar

StartChar: plusminus
Encoding: 177 177 115
Width: 999
GlyphClass: 1
Flags: W
LayerCount: 2
Fore
SplineSet
599 873 m 1,0,-1
 913 873 l 1,1,-1
 913 716 l 1,2,-1
 599 716 l 1,3,-1
 599 302 l 1,4,-1
 417 302 l 1,5,-1
 417 716 l 1,6,-1
 90 716 l 1,7,-1
 90 873 l 1,8,-1
 417 873 l 1,9,-1
 417 1280 l 1,10,-1
 599 1280 l 1,11,-1
 599 873 l 1,0,-1
827 5 m 1,12,-1
 109 5 l 1,13,-1
 109 160 l 1,14,-1
 827 160 l 1,15,-1
 827 5 l 1,12,-1
EndSplineSet
EndChar

StartChar: twosuperior
Encoding: 178 178 116
Width: 753
GlyphClass: 1
Flags: W
LayerCount: 2
Fore
SplineSet
627 667 m 1,0,-1
 107 667 l 1,1,-1
 107 788 l 1,2,-1
 372 1055 l 2,3,4
 428 1115 428 1115 445.5 1154 c 128,-1,5
 463 1193 463 1193 463 1238 c 0,6,7
 463 1291 463 1291 439.5 1323.5 c 128,-1,8
 416 1356 416 1356 368 1356 c 0,9,10
 314 1356 314 1356 285 1321 c 128,-1,11
 256 1286 256 1286 256 1230 c 1,12,-1
 107 1230 l 1,13,-1
 105 1236 l 1,14,15
 100 1336 100 1336 173.5 1407.5 c 128,-1,16
 247 1479 247 1479 370 1479 c 0,17,18
 489 1479 489 1479 555 1416 c 128,-1,19
 621 1353 621 1353 621 1237 c 0,20,21
 621 1159 621 1159 577 1096.5 c 128,-1,22
 533 1034 533 1034 434 937 c 1,23,-1
 309 793 l 1,24,-1
 311 788 l 1,25,-1
 627 788 l 1,26,-1
 627 667 l 1,0,-1
EndSplineSet
EndChar

StartChar: threesuperior
Encoding: 179 179 117
Width: 756
GlyphClass: 1
Flags: W
LayerCount: 2
Fore
SplineSet
635 1250 m 0,0,1
 635 1194 635 1194 604 1148 c 128,-1,2
 573 1102 573 1102 519 1076 c 1,3,4
 580 1053 580 1053 613 1005.5 c 128,-1,5
 646 958 646 958 646 888 c 0,6,7
 646 778 646 778 569.5 716.5 c 128,-1,8
 493 655 493 655 366 655 c 0,9,10
 249 655 249 655 170.5 714 c 128,-1,11
 92 773 92 773 97 885 c 1,12,-1
 99 891 l 1,13,-1
 248 891 l 1,14,15
 248 839 248 839 279 807.5 c 128,-1,16
 310 776 310 776 365 776 c 0,17,18
 421 776 421 776 454.5 807 c 128,-1,19
 488 838 488 838 488 892 c 0,20,21
 488 956 488 956 456.5 986.5 c 128,-1,22
 425 1017 425 1017 363 1017 c 2,23,-1
 260 1017 l 1,24,-1
 260 1130 l 1,25,-1
 363 1130 l 2,26,27
 421 1130 421 1130 448.5 1160 c 128,-1,28
 476 1190 476 1190 476 1245 c 0,29,30
 476 1293 476 1293 448 1324 c 128,-1,31
 420 1355 420 1355 364 1355 c 0,32,33
 316 1355 316 1355 287.5 1327.5 c 128,-1,34
 259 1300 259 1300 259 1255 c 1,35,-1
 110 1255 l 1,36,-1
 108 1261 l 1,37,38
 102 1358 102 1358 176 1418 c 128,-1,39
 250 1478 250 1478 362 1478 c 0,40,41
 488 1478 488 1478 561.5 1418.5 c 128,-1,42
 635 1359 635 1359 635 1250 c 0,0,1
EndSplineSet
EndChar

StartChar: acute
Encoding: 180 180 118
Width: 620
GlyphClass: 1
Flags: W
LayerCount: 2
Fore
SplineSet
292 1518 m 1,0,-1
 525 1518 l 1,1,-1
 528 1513 l 1,2,-1
 286 1252 l 1,3,-1
 116 1252 l 1,4,-1
 292 1518 l 1,0,-1
EndSplineSet
EndChar

StartChar: mu
Encoding: 181 181 119
Width: 1055
GlyphClass: 1
Flags: W
LayerCount: 2
Fore
SplineSet
335 1082 m 1,0,-1
 335 456 l 2,1,2
 335 271 335 271 380 202.5 c 128,-1,3
 425 134 425 134 509 134 c 0,4,5
 587 134 587 134 636 171.5 c 128,-1,6
 685 209 685 209 711 281 c 1,7,-1
 711 1082 l 1,8,-1
 913 1082 l 1,9,-1
 913 0 l 1,10,-1
 727 0 l 1,11,-1
 721 90 l 1,12,13
 682 36 682 36 629 7.5 c 128,-1,14
 576 -21 576 -21 509 -21 c 0,15,16
 455 -21 455 -21 411.5 -5.5 c 128,-1,17
 368 10 368 10 335 44 c 1,18,-1
 335 -416 l 1,19,-1
 133 -416 l 1,20,-1
 133 1082 l 1,21,-1
 335 1082 l 1,0,-1
EndSplineSet
EndChar

StartChar: paragraph
Encoding: 182 182 120
Width: 907
GlyphClass: 1
Flags: W
LayerCount: 2
Fore
SplineSet
559 0 m 1,0,-1
 559 520 l 1,1,-1
 485 520 l 2,2,3
 285 520 285 520 173.5 649.5 c 128,-1,4
 62 779 62 779 62 988 c 0,5,6
 62 1195 62 1195 173.5 1325.5 c 128,-1,7
 285 1456 285 1456 485 1456 c 2,8,-1
 762 1456 l 1,9,-1
 762 0 l 1,10,-1
 559 0 l 1,0,-1
EndSplineSet
EndChar

StartChar: periodcentered
Encoding: 183 183 121
Width: 508
GlyphClass: 1
Flags: W
LayerCount: 2
Fore
SplineSet
351 606 m 1,0,-1
 145 606 l 1,1,-1
 145 820 l 1,2,-1
 351 820 l 1,3,-1
 351 606 l 1,0,-1
EndSplineSet
EndChar

StartChar: cedilla
Encoding: 184 184 122
Width: 468
GlyphClass: 1
Flags: W
LayerCount: 2
Fore
SplineSet
278 2 m 1,0,-1
 267 -56 l 1,1,2
 324 -66 324 -66 361.5 -106.5 c 128,-1,3
 399 -147 399 -147 399 -228 c 0,4,5
 399 -326 399 -326 325.5 -384 c 128,-1,6
 252 -442 252 -442 116 -442 c 1,7,-1
 111 -329 l 1,8,9
 165 -329 165 -329 198.5 -304 c 128,-1,10
 232 -279 232 -279 232 -228 c 0,11,12
 232 -178 232 -178 202 -158.5 c 128,-1,13
 172 -139 172 -139 100 -132 c 1,14,-1
 126 2 l 1,15,-1
 278 2 l 1,0,-1
EndSplineSet
EndChar

StartChar: onesuperior
Encoding: 185 185 123
Width: 495
GlyphClass: 1
Flags: W
LayerCount: 2
Fore
SplineSet
351 665 m 1,0,-1
 191 665 l 1,1,-1
 191 1331 l 1,2,-1
 80 1328 l 1,3,-1
 80 1454 l 1,4,-1
 351 1477 l 1,5,-1
 351 665 l 1,0,-1
EndSplineSet
EndChar

StartChar: ordmasculine
Encoding: 186 186 124
Width: 816
GlyphClass: 1
Flags: W
LayerCount: 2
Fore
SplineSet
110 1142 m 2,0,1
 110 1290 110 1290 190 1383.5 c 128,-1,2
 270 1477 270 1477 405 1477 c 256,3,4
 540 1477 540 1477 620.5 1383.5 c 128,-1,5
 701 1290 701 1290 701 1142 c 2,6,-1
 701 1025 l 2,7,8
 701 876 701 876 621 783.5 c 128,-1,9
 541 691 541 691 407 691 c 0,10,11
 271 691 271 691 190.5 783.5 c 128,-1,12
 110 876 110 876 110 1025 c 2,13,-1
 110 1142 l 2,0,1
254 1025 m 2,14,15
 254 930 254 930 292.5 872 c 128,-1,16
 331 814 331 814 407 814 c 0,17,18
 480 814 480 814 519 872 c 128,-1,19
 558 930 558 930 558 1025 c 2,20,-1
 558 1142 l 2,21,22
 558 1234 558 1234 518.5 1292.5 c 128,-1,23
 479 1351 479 1351 405 1351 c 256,24,25
 331 1351 331 1351 292.5 1292.5 c 128,-1,26
 254 1234 254 1234 254 1142 c 2,27,-1
 254 1025 l 2,14,15
EndSplineSet
EndChar

StartChar: questiondown
Encoding: 191 191 129
Width: 889
GlyphClass: 1
Flags: W
LayerCount: 2
Fore
SplineSet
590 673 m 1,0,1
 588 539 588 539 560.5 481 c 128,-1,2
 533 423 533 423 439 331 c 1,3,4
 365 239 365 239 327.5 167.5 c 128,-1,5
 290 96 290 96 290 0 c 0,6,7
 290 -110 290 -110 336 -171.5 c 128,-1,8
 382 -233 382 -233 469 -233 c 0,9,10
 541 -233 541 -233 591.5 -177 c 128,-1,11
 642 -121 642 -121 643 -20 c 1,12,-1
 839 -20 l 1,13,-1
 841 -26 l 1,14,15
 843 -198 843 -198 738 -296 c 128,-1,16
 633 -394 633 -394 469 -394 c 0,17,18
 289 -394 289 -394 188 -289.5 c 128,-1,19
 87 -185 87 -185 87 -3 c 0,20,21
 87 125 87 125 147.5 231 c 128,-1,22
 208 337 208 337 310 440 c 0,23,24
 359 490 359 490 372.5 536.5 c 128,-1,25
 386 583 386 583 386 673 c 1,26,-1
 590 673 l 1,0,1
382 1082 m 1,27,-1
 591 1082 l 1,28,-1
 591 883 l 1,29,-1
 382 883 l 1,30,-1
 382 1082 l 1,27,-1
EndSplineSet
EndChar

StartChar: AE
Encoding: 198 198 136
Width: 1699
GlyphClass: 1
Flags: W
LayerCount: 2
Fore
SplineSet
1631 0 m 1,0,-1
 867 0 l 1,1,-1
 854 361 l 1,2,-1
 429 361 l 1,3,-1
 262 0 l 1,4,-1
 20 0 l 1,5,-1
 734 1456 l 1,6,-1
 1578 1456 l 1,7,-1
 1578 1299 l 1,8,-1
 1023 1299 l 1,9,-1
 1040 832 l 1,10,-1
 1508 832 l 1,11,-1
 1508 677 l 1,12,-1
 1046 677 l 1,13,-1
 1065 155 l 1,14,-1
 1631 155 l 1,15,-1
 1631 0 l 1,0,-1
508 531 m 1,16,-1
 848 531 l 1,17,-1
 823 1198 l 1,18,-1
 818 1199 l 1,19,-1
 508 531 l 1,16,-1
EndSplineSet
EndChar

StartChar: Eth
Encoding: 208 208 146
Width: 1191
GlyphClass: 1
Flags: W
LayerCount: 2
Fore
SplineSet
139 0 m 1,0,-1
 139 670 l 1,1,-1
 8 670 l 1,2,-1
 8 811 l 1,3,-1
 139 811 l 1,4,-1
 139 1456 l 1,5,-1
 552 1456 l 2,6,7
 788 1456 788 1456 937.5 1281 c 128,-1,8
 1087 1106 1087 1106 1087 831 c 2,9,-1
 1087 624 l 2,10,11
 1087 348 1087 348 937.5 174 c 128,-1,12
 788 0 788 0 552 0 c 2,13,-1
 139 0 l 1,0,-1
571 670 m 1,14,-1
 342 670 l 1,15,-1
 342 154 l 1,16,-1
 552 154 l 2,17,18
 702 154 702 154 792 285.5 c 128,-1,19
 882 417 882 417 882 624 c 2,20,-1
 882 833 l 2,21,22
 882 1037 882 1037 792 1168.5 c 128,-1,23
 702 1300 702 1300 552 1300 c 2,24,-1
 342 1300 l 1,25,-1
 342 811 l 1,26,-1
 571 811 l 1,27,-1
 571 670 l 1,14,-1
EndSplineSet
Substitution2: "'smcp' Lowercase to Small Capitals lookup 0 subtable" Eth.smcp
EndChar

StartChar: multiply
Encoding: 215 215 153
Width: 991
GlyphClass: 1
Flags: W
LayerCount: 2
Fore
SplineSet
76 344 m 1,0,-1
 375 683 l 1,1,-1
 79 1019 l 1,2,-1
 204 1138 l 1,3,-1
 490 813 l 1,4,-1
 776 1138 l 1,5,-1
 901 1019 l 1,6,-1
 605 683 l 1,7,-1
 904 344 l 1,8,-1
 780 225 l 1,9,-1
 490 553 l 1,10,-1
 201 225 l 1,11,-1
 76 344 l 1,0,-1
EndSplineSet
EndChar

StartChar: Oslash
Encoding: 216 216 154
Width: 1219
GlyphClass: 1
Flags: W
LayerCount: 2
Fore
SplineSet
1119 527 m 2,0,1
 1119 268 1119 268 979 123.5 c 128,-1,2
 839 -21 839 -21 604 -21 c 0,3,4
 529 -21 529 -21 463 -5.5 c 128,-1,5
 397 10 397 10 342 41 c 1,6,-1
 275 -90 l 1,7,-1
 154 -90 l 1,8,-1
 253 105 l 1,9,10
 177 175 177 175 137.5 282 c 128,-1,11
 98 389 98 389 98 527 c 2,12,-1
 98 927 l 2,13,14
 98 1185 98 1185 235 1331 c 128,-1,15
 372 1477 372 1477 603 1477 c 0,16,17
 691 1477 691 1477 768.5 1454.5 c 128,-1,18
 846 1432 846 1432 909 1390 c 1,19,-1
 972 1512 l 1,20,-1
 1093 1512 l 1,21,-1
 993 1316 l 1,22,23
 1053 1245 1053 1245 1086 1146.5 c 128,-1,24
 1119 1048 1119 1048 1119 927 c 2,25,-1
 1119 527 l 2,0,1
300 527 m 2,26,27
 300 453 300 453 311 394.5 c 128,-1,28
 322 336 322 336 344 296 c 1,29,-1
 350 295 l 1,30,-1
 827 1228 l 1,31,32
 786 1272 786 1272 730 1294.5 c 128,-1,33
 674 1317 674 1317 603 1317 c 0,34,35
 457 1317 457 1317 378.5 1218.5 c 128,-1,36
 300 1120 300 1120 300 930 c 2,37,-1
 300 527 l 2,26,27
917 930 m 2,38,39
 917 984 917 984 910 1028.5 c 128,-1,40
 903 1073 903 1073 891 1105 c 1,41,-1
 886 1106 l 1,42,-1
 420 194 l 1,43,44
 456 165 456 165 502 151 c 128,-1,45
 548 137 548 137 604 137 c 0,46,47
 755 137 755 137 836 235.5 c 128,-1,48
 917 334 917 334 917 527 c 2,49,-1
 917 930 l 2,38,39
EndSplineSet
EndChar

StartChar: Thorn
Encoding: 222 222 160
Width: 1070
GlyphClass: 1
Flags: W
LayerCount: 2
Fore
SplineSet
338 1456 m 1,0,-1
 338 1166 l 1,1,-1
 555 1166 l 2,2,3
 763 1166 763 1166 879 1047 c 128,-1,4
 995 928 995 928 995 738 c 0,5,6
 995 546 995 546 879 427.5 c 128,-1,7
 763 309 763 309 555 309 c 2,8,-1
 338 309 l 1,9,-1
 338 0 l 1,10,-1
 135 0 l 1,11,-1
 135 1456 l 1,12,-1
 338 1456 l 1,0,-1
338 1011 m 1,13,-1
 338 464 l 1,14,-1
 555 464 l 2,15,16
 673 464 673 464 732 543 c 128,-1,17
 791 622 791 622 791 736 c 256,18,19
 791 850 791 850 732 930.5 c 128,-1,20
 673 1011 673 1011 555 1011 c 2,21,-1
 338 1011 l 1,13,-1
EndSplineSet
EndChar

StartChar: germandbls
Encoding: 223 223 161
Width: 1093
GlyphClass: 1
Flags: W
LayerCount: 2
Fore
SplineSet
327 0 m 1,0,-1
 125 0 l 1,1,-1
 125 1088 l 2,2,3
 125 1303 125 1303 229.5 1423 c 128,-1,4
 334 1543 334 1543 508 1543 c 0,5,6
 652 1543 652 1543 746 1456.5 c 128,-1,7
 840 1370 840 1370 840 1210 c 0,8,9
 840 1099 840 1099 790 994.5 c 128,-1,10
 740 890 740 890 740 821 c 0,11,12
 740 745 740 745 879.5 603 c 128,-1,13
 1019 461 1019 461 1019 320 c 0,14,15
 1019 150 1019 150 924 64.5 c 128,-1,16
 829 -21 829 -21 661 -21 c 0,17,18
 591 -21 591 -21 519 -1 c 128,-1,19
 447 19 447 19 413 49 c 1,20,-1
 453 203 l 1,21,22
 489 175 489 175 542.5 153.5 c 128,-1,23
 596 132 596 132 651 132 c 0,24,25
 731 132 731 132 773.5 181.5 c 128,-1,26
 816 231 816 231 816 313 c 0,27,28
 816 399 816 399 676.5 539 c 128,-1,29
 537 679 537 679 537 819 c 0,30,31
 537 907 537 907 589.5 1013.5 c 128,-1,32
 642 1120 642 1120 642 1198 c 0,33,34
 642 1283 642 1283 600 1336 c 128,-1,35
 558 1389 558 1389 503 1389 c 0,36,37
 424 1389 424 1389 375.5 1309.5 c 128,-1,38
 327 1230 327 1230 327 1086 c 2,39,-1
 327 0 l 1,0,-1
EndSplineSet
Substitution2: "'smcp' Lowercase to Small Capitals lookup 0 subtable" germandbls.smcp
EndChar

StartChar: ae
Encoding: 230 230 168
Width: 1545
GlyphClass: 1
Flags: W
LayerCount: 2
Fore
SplineSet
1112 -21 m 256,0,1
 998 -21 998 -21 910 24.5 c 128,-1,2
 822 70 822 70 766 154 c 1,3,4
 715 79 715 79 624 29 c 128,-1,5
 533 -21 533 -21 406 -21 c 0,6,7
 250 -21 250 -21 165.5 66 c 128,-1,8
 81 153 81 153 81 304 c 0,9,10
 81 457 81 457 185 542 c 128,-1,11
 289 627 289 627 487 627 c 2,12,-1
 666 627 l 1,13,-1
 666 716 l 2,14,15
 666 825 666 825 625.5 885.5 c 128,-1,16
 585 946 585 946 509 946 c 0,17,18
 427 946 427 946 380 891.5 c 128,-1,19
 333 837 333 837 333 757 c 1,20,-1
 138 773 l 1,21,-1
 136 779 l 1,22,23
 131 918 131 918 234.5 1010 c 128,-1,24
 338 1102 338 1102 510 1102 c 0,25,26
 603 1102 603 1102 677 1068 c 128,-1,27
 751 1034 751 1034 798 970 c 1,28,29
 851 1033 851 1033 924 1067.5 c 128,-1,30
 997 1102 997 1102 1084 1102 c 0,31,32
 1266 1102 1266 1102 1367.5 973.5 c 128,-1,33
 1469 845 1469 845 1469 623 c 2,34,-1
 1469 499 l 1,35,-1
 875 499 l 1,36,37
 876 333 876 333 937 233 c 128,-1,38
 998 133 998 133 1126 133 c 0,39,40
 1210 133 1210 133 1267.5 159.5 c 128,-1,41
 1325 186 1325 186 1389 236 c 1,42,-1
 1449 104 l 1,43,44
 1400 56 1400 56 1313 17.5 c 128,-1,45
 1226 -21 1226 -21 1112 -21 c 256,0,1
445 127 m 0,46,47
 505 127 505 127 568.5 166.5 c 128,-1,48
 632 206 632 206 666 258 c 1,49,-1
 666 490 l 1,50,-1
 489 490 l 2,51,52
 392 490 392 490 338 435 c 128,-1,53
 284 380 284 380 284 300 c 256,54,55
 284 220 284 220 324.5 173.5 c 128,-1,56
 365 127 365 127 445 127 c 0,46,47
1084 946 m 256,57,58
 991 946 991 946 939.5 862 c 128,-1,59
 888 778 888 778 878 639 c 1,60,-1
 1268 639 l 1,61,-1
 1268 669 l 2,62,63
 1268 792 1268 792 1222.5 869 c 128,-1,64
 1177 946 1177 946 1084 946 c 256,57,58
EndSplineSet
EndChar

StartChar: eth
Encoding: 240 240 178
Width: 1053
GlyphClass: 1
Flags: W
LayerCount: 2
Fore
SplineSet
766 1302 m 1,0,1
 856 1198 856 1198 905.5 1059 c 128,-1,2
 955 920 955 920 955 751 c 2,3,-1
 955 538 l 2,4,5
 955 292 955 292 826 135.5 c 128,-1,6
 697 -21 697 -21 503 -21 c 0,7,8
 308 -21 308 -21 184 117.5 c 128,-1,9
 60 256 60 256 60 462 c 0,10,11
 60 692 60 692 176 830 c 128,-1,12
 292 968 292 968 484 968 c 0,13,14
 561 968 561 968 628 936 c 128,-1,15
 695 904 695 904 740 850 c 1,16,-1
 744 855 l 1,17,18
 735 960 735 960 699 1045.5 c 128,-1,19
 663 1131 663 1131 607 1197 c 1,20,-1
 369 1041 l 1,21,-1
 305 1135 l 1,22,-1
 520 1276 l 1,23,24
 484 1302 484 1302 444.5 1322.5 c 128,-1,25
 405 1343 405 1343 363 1360 c 1,26,-1
 427 1517 l 1,27,28
 497 1495 497 1495 561.5 1461 c 128,-1,29
 626 1427 626 1427 682 1382 c 1,30,-1
 868 1505 l 1,31,-1
 932 1411 l 1,32,-1
 766 1302 l 1,0,1
507 134 m 0,33,34
 617 134 617 134 684.5 247.5 c 128,-1,35
 752 361 752 361 752 538 c 2,36,-1
 752 679 l 1,37,38
 722 737 722 737 658 777 c 128,-1,39
 594 817 594 817 504 817 c 0,40,41
 392 817 392 817 327.5 716 c 128,-1,42
 263 615 263 615 263 462 c 0,43,44
 263 330 263 330 329.5 232 c 128,-1,45
 396 134 396 134 507 134 c 0,33,34
EndSplineSet
Substitution2: "'smcp' Lowercase to Small Capitals lookup 0 subtable" Eth.smcp
EndChar

StartChar: divide
Encoding: 247 247 185
Width: 1018
GlyphClass: 1
Flags: W
LayerCount: 2
Fore
SplineSet
936 608 m 1,0,-1
 64 608 l 1,1,-1
 64 779 l 1,2,-1
 936 779 l 1,3,-1
 936 608 l 1,0,-1
604 995 m 1,4,-1
 398 995 l 1,5,-1
 398 1190 l 1,6,-1
 604 1190 l 1,7,-1
 604 995 l 1,4,-1
604 188 m 1,8,-1
 398 188 l 1,9,-1
 398 383 l 1,10,-1
 604 383 l 1,11,-1
 604 188 l 1,8,-1
EndSplineSet
EndChar

StartChar: oslash
Encoding: 248 248 186
Width: 1009
GlyphClass: 1
Flags: W
LayerCount: 2
Fore
SplineSet
76 553 m 2,0,1
 76 794 76 794 190 948 c 128,-1,2
 304 1102 304 1102 503 1102 c 0,3,4
 549 1102 549 1102 591 1092.5 c 128,-1,5
 633 1083 633 1083 672 1066 c 1,6,-1
 734 1213 l 1,7,-1
 856 1213 l 1,8,-1
 767 1002 l 1,9,10
 846 929 846 929 888.5 812.5 c 128,-1,11
 931 696 931 696 931 553 c 2,12,-1
 931 526 l 2,13,14
 931 284 931 284 817 131.5 c 128,-1,15
 703 -21 703 -21 505 -21 c 0,16,17
 461 -21 461 -21 422 -13.5 c 128,-1,18
 383 -6 383 -6 348 8 c 1,19,-1
 286 -139 l 1,20,-1
 165 -139 l 1,21,-1
 252 67 l 1,22,23
 166 138 166 138 121 257 c 128,-1,24
 76 376 76 376 76 526 c 2,25,-1
 76 553 l 2,0,1
280 526 m 2,26,27
 280 445 280 445 291.5 376.5 c 128,-1,28
 303 308 303 308 328 264 c 1,29,-1
 334 264 l 1,30,-1
 607 912 l 1,31,32
 584 928 584 928 558 937 c 128,-1,33
 532 946 532 946 503 946 c 0,34,35
 391 946 391 946 335.5 834.5 c 128,-1,36
 280 723 280 723 280 553 c 2,37,-1
 280 526 l 2,26,27
727 553 m 2,38,39
 727 626 727 626 716.5 689 c 128,-1,40
 706 752 706 752 686 795 c 1,41,-1
 680 796 l 1,42,-1
 411 159 l 1,43,44
 431 146 431 146 454.5 139.5 c 128,-1,45
 478 133 478 133 505 133 c 0,46,47
 616 133 616 133 671.5 243.5 c 128,-1,48
 727 354 727 354 727 526 c 2,49,-1
 727 553 l 2,38,39
EndSplineSet
EndChar

StartChar: thorn
Encoding: 254 254 192
Width: 1019
GlyphClass: 1
Flags: W
LayerCount: 2
Fore
SplineSet
939 507 m 2,0,1
 939 267 939 267 843.5 123 c 128,-1,2
 748 -21 748 -21 577 -21 c 0,3,4
 497 -21 497 -21 435.5 10.5 c 128,-1,5
 374 42 374 42 331 103 c 1,6,-1
 331 -416 l 1,7,-1
 127 -416 l 1,8,-1
 127 0 l 1,9,-1
 124 0 l 1,10,-1
 124 1560 l 1,11,-1
 328 1560 l 1,12,-1
 328 966 l 1,13,14
 371 1032 371 1032 433 1067 c 128,-1,15
 495 1102 495 1102 576 1102 c 0,16,17
 748 1102 748 1102 843.5 945 c 128,-1,18
 939 788 939 788 939 528 c 2,19,-1
 939 507 l 2,0,1
735 528 m 2,20,21
 735 712 735 712 681.5 828 c 128,-1,22
 628 944 628 944 521 944 c 0,23,24
 453 944 453 944 406 906.5 c 128,-1,25
 359 869 359 869 331 805 c 1,26,-1
 331 260 l 1,27,28
 359 199 359 199 406 166 c 128,-1,29
 453 133 453 133 522 133 c 0,30,31
 629 133 629 133 682 235 c 128,-1,32
 735 337 735 337 735 507 c 2,33,-1
 735 528 l 2,20,21
EndSplineSet
EndChar

StartChar: Dcroat
Encoding: 272 272 210
Width: 1191
GlyphClass: 1
Flags: W
LayerCount: 2
Fore
SplineSet
139 0 m 1,0,-1
 139 670 l 1,1,-1
 8 670 l 1,2,-1
 8 811 l 1,3,-1
 139 811 l 1,4,-1
 139 1456 l 1,5,-1
 552 1456 l 2,6,7
 788 1456 788 1456 937.5 1281 c 128,-1,8
 1087 1106 1087 1106 1087 831 c 2,9,-1
 1087 624 l 2,10,11
 1087 348 1087 348 937.5 174 c 128,-1,12
 788 0 788 0 552 0 c 2,13,-1
 139 0 l 1,0,-1
571 670 m 1,14,-1
 342 670 l 1,15,-1
 342 154 l 1,16,-1
 552 154 l 2,17,18
 702 154 702 154 792 285.5 c 128,-1,19
 882 417 882 417 882 624 c 2,20,-1
 882 833 l 2,21,22
 882 1037 882 1037 792 1168.5 c 128,-1,23
 702 1300 702 1300 552 1300 c 2,24,-1
 342 1300 l 1,25,-1
 342 811 l 1,26,-1
 571 811 l 1,27,-1
 571 670 l 1,14,-1
EndSplineSet
Substitution2: "'smcp' Lowercase to Small Capitals lookup 0 subtable" Dcroat.smcp
EndChar

StartChar: dcroat
Encoding: 273 273 211
Width: 1008
GlyphClass: 1
Flags: W
LayerCount: 2
Fore
SplineSet
1031 1238 m 1,0,-1
 887 1238 l 1,1,-1
 887 0 l 1,2,-1
 719 0 l 1,3,-1
 698 130 l 1,4,5
 653 56 653 56 588 17.5 c 128,-1,6
 523 -21 523 -21 439 -21 c 0,7,8
 268 -21 268 -21 173.5 123.5 c 128,-1,9
 79 268 79 268 79 507 c 2,10,-1
 79 528 l 2,11,12
 79 788 79 788 174 945 c 128,-1,13
 269 1102 269 1102 441 1102 c 0,14,15
 518 1102 518 1102 579 1067.5 c 128,-1,16
 640 1033 640 1033 684 968 c 1,17,-1
 684 1238 l 1,18,-1
 468 1238 l 1,19,-1
 468 1379 l 1,20,-1
 684 1379 l 1,21,-1
 684 1560 l 1,22,-1
 887 1560 l 1,23,-1
 887 1379 l 1,24,-1
 1031 1379 l 1,25,-1
 1031 1238 l 1,0,-1
281 507 m 2,26,27
 281 337 281 337 332 236.5 c 128,-1,28
 383 136 383 136 491 136 c 0,29,30
 559 136 559 136 606.5 172 c 128,-1,31
 654 208 654 208 684 274 c 1,32,-1
 684 798 l 1,33,34
 654 865 654 865 606 904.5 c 128,-1,35
 558 944 558 944 492 944 c 0,36,37
 384 944 384 944 332.5 828.5 c 128,-1,38
 281 713 281 713 281 528 c 2,39,-1
 281 507 l 2,26,27
EndSplineSet
Substitution2: "'smcp' Lowercase to Small Capitals lookup 0 subtable" Dcroat.smcp
EndChar

StartChar: Hbar
Encoding: 294 294 232
Width: 1251
GlyphClass: 1
Flags: W
LayerCount: 2
Fore
SplineSet
1123 1159 m 1,0,-1
 1233 1159 l 1,1,-1
 1233 1026 l 1,2,-1
 1123 1026 l 1,3,-1
 1123 0 l 1,4,-1
 920 0 l 1,5,-1
 920 642 l 1,6,-1
 350 642 l 1,7,-1
 350 0 l 1,8,-1
 147 0 l 1,9,-1
 147 1026 l 1,10,-1
 26 1026 l 1,11,-1
 26 1159 l 1,12,-1
 147 1159 l 1,13,-1
 147 1456 l 1,14,-1
 350 1456 l 1,15,-1
 350 1159 l 1,16,-1
 920 1159 l 1,17,-1
 920 1456 l 1,18,-1
 1123 1456 l 1,19,-1
 1123 1159 l 1,0,-1
350 797 m 1,20,-1
 920 797 l 1,21,-1
 920 1026 l 1,22,-1
 350 1026 l 1,23,-1
 350 797 l 1,20,-1
EndSplineSet
EndChar

StartChar: hbar
Encoding: 295 295 233
Width: 1008
GlyphClass: 1
Flags: W
LayerCount: 2
Fore
SplineSet
555 1237 m 1,0,-1
 318 1237 l 1,1,-1
 318 937 l 1,2,3
 364 1015 364 1015 431 1058.5 c 128,-1,4
 498 1102 498 1102 581 1102 c 0,5,6
 728 1102 728 1102 811 994 c 128,-1,7
 894 886 894 886 894 662 c 2,8,-1
 894 0 l 1,9,-1
 690 0 l 1,10,-1
 690 664 l 2,11,12
 690 813 690 813 647 878.5 c 128,-1,13
 604 944 604 944 520 944 c 0,14,15
 450 944 450 944 399.5 910 c 128,-1,16
 349 876 349 876 318 815 c 1,17,-1
 318 0 l 1,18,-1
 114 0 l 1,19,-1
 114 1237 l 1,20,-1
 -8 1237 l 1,21,-1
 -8 1378 l 1,22,-1
 114 1378 l 1,23,-1
 114 1560 l 1,24,-1
 318 1560 l 1,25,-1
 318 1378 l 1,26,-1
 555 1378 l 1,27,-1
 555 1237 l 1,0,-1
EndSplineSet
EndChar

StartChar: dotlessi
Encoding: 305 305 243
Width: 470
GlyphClass: 1
Flags: W
LayerCount: 2
Fore
SplineSet
334 0 m 1,0,-1
 131 0 l 1,1,-1
 131 1082 l 1,2,-1
 334 1082 l 1,3,-1
 334 0 l 1,0,-1
EndSplineSet
EndChar

StartChar: kgreenlandic
Encoding: 312 312 250
Width: 1023
GlyphClass: 1
Flags: W
LayerCount: 2
Fore
SplineSet
425 457 m 1,0,-1
 332 457 l 1,1,-1
 332 0 l 1,2,-1
 129 0 l 1,3,-1
 129 1082 l 1,4,-1
 332 1082 l 1,5,-1
 332 629 l 1,6,-1
 411 629 l 1,7,-1
 701 1082 l 1,8,-1
 955 1082 l 1,9,-1
 586 575 l 1,10,-1
 977 0 l 1,11,-1
 718 0 l 1,12,-1
 425 457 l 1,0,-1
EndSplineSet
EndChar

StartChar: Lslash
Encoding: 321 321 259
Width: 923
GlyphClass: 1
Flags: W
LayerCount: 2
Fore
SplineSet
335 852 m 1,0,-1
 561 931 l 1,1,-1
 561 780 l 1,2,-1
 335 701 l 1,3,-1
 335 154 l 1,4,-1
 924 154 l 1,5,-1
 924 0 l 1,6,-1
 132 0 l 1,7,-1
 132 630 l 1,8,-1
 27 593 l 1,9,-1
 27 744 l 1,10,-1
 132 781 l 1,11,-1
 132 1456 l 1,12,-1
 335 1456 l 1,13,-1
 335 852 l 1,0,-1
EndSplineSet
EndChar

StartChar: lslash
Encoding: 322 322 260
Width: 507
GlyphClass: 1
Flags: W
LayerCount: 2
Fore
SplineSet
354 884 m 1,0,-1
 481 937 l 1,1,-1
 481 786 l 1,2,-1
 354 733 l 1,3,-1
 354 0 l 1,4,-1
 150 0 l 1,5,-1
 150 649 l 1,6,-1
 28 599 l 1,7,-1
 28 750 l 1,8,-1
 150 800 l 1,9,-1
 150 1560 l 1,10,-1
 354 1560 l 1,11,-1
 354 884 l 1,0,-1
EndSplineSet
EndChar

StartChar: Eng
Encoding: 330 330 268
Width: 1243
GlyphClass: 1
Flags: W
LayerCount: 2
Fore
SplineSet
1112 1456 m 1,0,-1
 1112 -74 l 2,1,2
 1112 -247 1112 -247 1031.5 -342 c 128,-1,3
 951 -437 951 -437 809 -437 c 0,4,5
 778 -437 778 -437 752.5 -432.5 c 128,-1,6
 727 -428 727 -428 698 -419 c 1,7,-1
 710 -268 l 1,8,9
 726 -273 726 -273 751 -277 c 128,-1,10
 776 -281 776 -281 795 -281 c 0,11,12
 848 -281 848 -281 878 -226.5 c 128,-1,13
 908 -172 908 -172 908 -74 c 2,14,-1
 908 0 l 1,15,-1
 344 1072 l 1,16,-1
 338 1070 l 1,17,-1
 338 0 l 1,18,-1
 134 0 l 1,19,-1
 134 1456 l 1,20,-1
 338 1456 l 1,21,-1
 902 383 l 1,22,-1
 908 385 l 1,23,-1
 908 1456 l 1,24,-1
 1112 1456 l 1,0,-1
EndSplineSet
EndChar

StartChar: eng
Encoding: 331 331 269
Width: 1008
GlyphClass: 1
Flags: W
LayerCount: 2
Fore
SplineSet
301 1082 m 1,0,-1
 313 926 l 1,1,2
 358 1010 358 1010 427.5 1056 c 128,-1,3
 497 1102 497 1102 584 1102 c 0,4,5
 729 1102 729 1102 809.5 996 c 128,-1,6
 890 890 890 890 890 666 c 2,7,-1
 890 -74 l 2,8,9
 890 -248 890 -248 809.5 -342.5 c 128,-1,10
 729 -437 729 -437 587 -437 c 0,11,12
 556 -437 556 -437 530 -432.5 c 128,-1,13
 504 -428 504 -428 476 -419 c 1,14,-1
 487 -262 l 1,15,16
 503 -267 503 -267 528.5 -271.5 c 128,-1,17
 554 -276 554 -276 573 -276 c 0,18,19
 627 -276 627 -276 656.5 -223.5 c 128,-1,20
 686 -171 686 -171 686 -74 c 2,21,-1
 686 665 l 2,22,23
 686 818 686 818 643 881 c 128,-1,24
 600 944 600 944 514 944 c 0,25,26
 447 944 447 944 398 909.5 c 128,-1,27
 349 875 349 875 319 815 c 1,28,-1
 319 0 l 1,29,-1
 115 0 l 1,30,-1
 115 1082 l 1,31,-1
 301 1082 l 1,0,-1
EndSplineSet
EndChar

StartChar: OE
Encoding: 338 338 276
Width: 1705
GlyphClass: 1
Flags: W
LayerCount: 2
Fore
SplineSet
1571 676 m 1,0,-1
 1077 676 l 1,1,-1
 1077 154 l 1,2,-1
 1659 154 l 1,3,-1
 1659 0 l 1,4,-1
 874 0 l 1,5,-1
 874 1456 l 1,6,-1
 1654 1456 l 1,7,-1
 1654 1300 l 1,8,-1
 1077 1300 l 1,9,-1
 1077 831 l 1,10,-1
 1571 831 l 1,11,-1
 1571 676 l 1,0,-1
592 1477 m 0,12,13
 652 1477 652 1477 714 1471 c 128,-1,14
 776 1465 776 1465 844 1456 c 1,15,-1
 844 1296 l 1,16,17
 785 1308 785 1308 721 1315 c 128,-1,18
 657 1322 657 1322 592 1322 c 0,19,20
 454 1322 454 1322 375.5 1206.5 c 128,-1,21
 297 1091 297 1091 297 882 c 2,22,-1
 297 576 l 2,23,24
 297 366 297 366 376.5 250 c 128,-1,25
 456 134 456 134 594 134 c 0,26,27
 658 134 658 134 721.5 140.5 c 128,-1,28
 785 147 785 147 844 160 c 1,29,-1
 844 0 l 1,30,31
 765 -10 765 -10 708 -15.5 c 128,-1,32
 651 -21 651 -21 594 -21 c 0,33,34
 371 -21 371 -21 232.5 144.5 c 128,-1,35
 94 310 94 310 94 576 c 2,36,-1
 94 880 l 2,37,38
 94 1145 94 1145 232 1311 c 128,-1,39
 370 1477 370 1477 592 1477 c 0,12,13
EndSplineSet
EndChar

StartChar: oe
Encoding: 339 339 277
Width: 1609
GlyphClass: 1
Flags: W
LayerCount: 2
Fore
SplineSet
1288 -21 m 0,0,1
 1142 -21 1142 -21 1040.5 58 c 128,-1,2
 939 137 939 137 892 276 c 1,3,4
 844 137 844 137 744 58 c 128,-1,5
 644 -21 644 -21 505 -21 c 0,6,7
 304 -21 304 -21 190 131.5 c 128,-1,8
 76 284 76 284 76 526 c 2,9,-1
 76 553 l 2,10,11
 76 794 76 794 190 948 c 128,-1,12
 304 1102 304 1102 503 1102 c 0,13,14
 645 1102 645 1102 745 1021 c 128,-1,15
 845 940 845 940 893 799 c 1,16,17
 940 939 940 939 1038.5 1020.5 c 128,-1,18
 1137 1102 1137 1102 1269 1102 c 0,19,20
 1454 1102 1454 1102 1550.5 971 c 128,-1,21
 1647 840 1647 840 1647 619 c 2,22,-1
 1647 505 l 1,23,-1
 1060 505 l 1,24,25
 1060 339 1060 339 1119.5 236 c 128,-1,26
 1179 133 1179 133 1302 133 c 0,27,28
 1387 133 1387 133 1450 159.5 c 128,-1,29
 1513 186 1513 186 1566 237 c 1,30,-1
 1632 111 l 1,31,32
 1578 55 1578 55 1489.5 17 c 128,-1,33
 1401 -21 1401 -21 1288 -21 c 0,0,1
280 526 m 2,34,35
 280 353 280 353 335.5 243 c 128,-1,36
 391 133 391 133 505 133 c 0,37,38
 616 133 616 133 671.5 243.5 c 128,-1,39
 727 354 727 354 727 526 c 2,40,-1
 727 553 l 2,41,42
 727 723 727 723 671 834.5 c 128,-1,43
 615 946 615 946 503 946 c 256,44,45
 391 946 391 946 335.5 834.5 c 128,-1,46
 280 723 280 723 280 553 c 2,47,-1
 280 526 l 2,34,35
1269 946 m 0,48,49
 1181 946 1181 946 1129 864.5 c 128,-1,50
 1077 783 1077 783 1064 649 c 1,51,-1
 1447 649 l 1,52,-1
 1447 672 l 2,53,54
 1447 794 1447 794 1403.5 870 c 128,-1,55
 1360 946 1360 946 1269 946 c 0,48,49
EndSplineSet
EndChar

StartChar: Tbar
Encoding: 358 358 296
Width: 1045
GlyphClass: 1
Flags: W
LayerCount: 2
Fore
SplineSet
804 805 m 1,0,-1
 624 805 l 1,1,-1
 624 0 l 1,2,-1
 420 0 l 1,3,-1
 420 805 l 1,4,-1
 241 805 l 1,5,-1
 241 946 l 1,6,-1
 420 946 l 1,7,-1
 420 1300 l 1,8,-1
 37 1300 l 1,9,-1
 37 1456 l 1,10,-1
 1010 1456 l 1,11,-1
 1010 1300 l 1,12,-1
 624 1300 l 1,13,-1
 624 946 l 1,14,-1
 804 946 l 1,15,-1
 804 805 l 1,0,-1
EndSplineSet
Substitution2: "'smcp' Lowercase to Small Capitals lookup 0 subtable" Tbar.smcp
EndChar

StartChar: tbar
Encoding: 359 359 297
Width: 614
GlyphClass: 1
Flags: W
LayerCount: 2
Fore
SplineSet
378 1351 m 1,0,-1
 378 1082 l 1,1,-1
 547 1082 l 1,2,-1
 547 937 l 1,3,-1
 378 937 l 1,4,-1
 378 728 l 1,5,-1
 567 728 l 1,6,-1
 567 587 l 1,7,-1
 378 587 l 1,8,-1
 378 293 l 2,9,10
 378 209 378 209 403.5 173.5 c 128,-1,11
 429 138 429 138 471 138 c 0,12,13
 488 138 488 138 503 141 c 128,-1,14
 518 144 518 144 538 150 c 1,15,-1
 559 10 l 1,16,17
 530 -4 530 -4 494.5 -12.5 c 128,-1,18
 459 -21 459 -21 421 -21 c 0,19,20
 304 -21 304 -21 239 54.5 c 128,-1,21
 174 130 174 130 174 293 c 2,22,-1
 174 587 l 1,23,-1
 4 587 l 1,24,-1
 4 728 l 1,25,-1
 174 728 l 1,26,-1
 174 937 l 1,27,-1
 31 937 l 1,28,-1
 31 1082 l 1,29,-1
 174 1082 l 1,30,-1
 174 1351 l 1,31,-1
 378 1351 l 1,0,-1
EndSplineSet
Substitution2: "'smcp' Lowercase to Small Capitals lookup 0 subtable" Tbar.smcp
EndChar

StartChar: longs
Encoding: 383 383 321
Width: 458
GlyphClass: 1
Flags: W
LayerCount: 2
Fore
SplineSet
125 0 m 1,0,-1
 125 1221 l 2,1,2
 125 1393 125 1393 208.5 1487 c 128,-1,3
 292 1581 292 1581 442 1581 c 0,4,5
 472 1581 472 1581 503 1575.5 c 128,-1,6
 534 1570 534 1570 572 1560 c 1,7,-1
 552 1414 l 1,8,9
 531 1419 531 1419 512.5 1422 c 128,-1,10
 494 1425 494 1425 471 1425 c 0,11,12
 401 1425 401 1425 364.5 1371.5 c 128,-1,13
 328 1318 328 1318 328 1221 c 2,14,-1
 328 0 l 1,15,-1
 125 0 l 1,0,-1
EndSplineSet
EndChar

StartChar: florin
Encoding: 402 402 322
Width: 630
GlyphClass: 1
Flags: W
LayerCount: 2
Fore
SplineSet
561 937 m 1,0,-1
 384 937 l 1,1,-1
 383 -74 l 2,2,3
 383 -248 383 -248 303 -342.5 c 128,-1,4
 223 -437 223 -437 81 -437 c 0,5,6
 50 -437 50 -437 24.5 -432.5 c 128,-1,7
 -1 -428 -1 -428 -27 -419 c 1,8,-1
 -16 -268 l 1,9,10
 -1 -273 -1 -273 23.5 -277 c 128,-1,11
 48 -281 48 -281 68 -281 c 0,12,13
 121 -281 121 -281 150.5 -226.5 c 128,-1,14
 180 -172 180 -172 180 -74 c 2,15,-1
 180 937 l 1,16,-1
 37 937 l 1,17,-1
 37 1082 l 1,18,-1
 180 1082 l 1,19,-1
 180 1221 l 2,20,21
 180 1393 180 1393 263 1487 c 128,-1,22
 346 1581 346 1581 497 1581 c 0,23,24
 527 1581 527 1581 559 1575.5 c 128,-1,25
 591 1570 591 1570 627 1560 c 1,26,-1
 607 1411 l 1,27,28
 589 1416 589 1416 568 1419 c 128,-1,29
 547 1422 547 1422 522 1422 c 0,30,31
 453 1422 453 1422 418.5 1370 c 128,-1,32
 384 1318 384 1318 384 1221 c 2,33,-1
 384 1082 l 1,34,-1
 561 1082 l 1,35,-1
 561 937 l 1,0,-1
EndSplineSet
EndChar

StartChar: Ohorn
Encoding: 416 416 323
Width: 1237
GlyphClass: 1
Flags: W
LayerCount: 2
Fore
SplineSet
1114 527 m 2,0,1
 1114 268 1114 268 974 123.5 c 128,-1,2
 834 -21 834 -21 599 -21 c 0,3,4
 367 -21 367 -21 230 123.5 c 128,-1,5
 93 268 93 268 93 527 c 2,6,-1
 93 927 l 2,7,8
 93 1185 93 1185 230 1331 c 128,-1,9
 367 1477 367 1477 598 1477 c 0,10,11
 724 1477 724 1477 825.5 1433 c 128,-1,12
 927 1389 927 1389 995 1307 c 1,13,14
 1080 1334 1080 1334 1124.5 1417 c 128,-1,15
 1169 1500 1169 1500 1169 1631 c 1,16,-1
 1338 1631 l 1,17,18
 1338 1451 1338 1451 1269.5 1333 c 128,-1,19
 1201 1215 1201 1215 1073 1171 c 1,20,21
 1092 1116 1092 1116 1103 1055 c 128,-1,22
 1114 994 1114 994 1114 927 c 2,23,-1
 1114 527 l 2,0,1
912 930 m 2,24,25
 912 1120 912 1120 830.5 1218.5 c 128,-1,26
 749 1317 749 1317 598 1317 c 0,27,28
 452 1317 452 1317 373.5 1218.5 c 128,-1,29
 295 1120 295 1120 295 930 c 2,30,-1
 295 527 l 2,31,32
 295 335 295 335 374 236 c 128,-1,33
 453 137 453 137 599 137 c 0,34,35
 750 137 750 137 831 235.5 c 128,-1,36
 912 334 912 334 912 527 c 2,37,-1
 912 930 l 2,24,25
EndSplineSet
EndChar

StartChar: ohorn
Encoding: 417 417 324
Width: 1028
GlyphClass: 1
Flags: W
LayerCount: 2
Fore
SplineSet
76 553 m 2,0,1
 76 794 76 794 190 948 c 128,-1,2
 304 1102 304 1102 503 1102 c 0,3,4
 595 1102 595 1102 670.5 1066.5 c 128,-1,5
 746 1031 746 1031 802 966 c 1,6,7
 865 992 865 992 896.5 1060.5 c 128,-1,8
 928 1129 928 1129 928 1233 c 1,9,-1
 1088 1233 l 1,10,11
 1088 1090 1088 1090 1031.5 995.5 c 128,-1,12
 975 901 975 901 868 863 c 1,13,14
 898 797 898 797 914.5 718.5 c 128,-1,15
 931 640 931 640 931 553 c 2,16,-1
 931 526 l 2,17,18
 931 284 931 284 817 131.5 c 128,-1,19
 703 -21 703 -21 505 -21 c 0,20,21
 304 -21 304 -21 190 131.5 c 128,-1,22
 76 284 76 284 76 526 c 2,23,-1
 76 553 l 2,0,1
280 526 m 2,24,25
 280 353 280 353 335.5 243 c 128,-1,26
 391 133 391 133 505 133 c 0,27,28
 616 133 616 133 671.5 243.5 c 128,-1,29
 727 354 727 354 727 526 c 2,30,-1
 727 553 l 2,31,32
 727 723 727 723 671 834.5 c 128,-1,33
 615 946 615 946 503 946 c 256,34,35
 391 946 391 946 335.5 834.5 c 128,-1,36
 280 723 280 723 280 553 c 2,37,-1
 280 526 l 2,24,25
EndSplineSet
EndChar

StartChar: Uhorn
Encoding: 431 431 325
Width: 1254
GlyphClass: 1
Flags: W
LayerCount: 2
Fore
SplineSet
1092 1456 m 1,0,-1
 1092 1277 l 1,1,-1
 1098 1276 l 1,2,3
 1175 1297 1175 1297 1212.5 1380.5 c 128,-1,4
 1250 1464 1250 1464 1250 1602 c 1,5,-1
 1420 1602 l 1,6,7
 1420 1396 1420 1396 1337.5 1274.5 c 128,-1,8
 1255 1153 1255 1153 1092 1125 c 1,9,-1
 1092 493 l 2,10,11
 1092 251 1092 251 956 115 c 128,-1,12
 820 -21 820 -21 603 -21 c 0,13,14
 390 -21 390 -21 256.5 115.5 c 128,-1,15
 123 252 123 252 123 493 c 2,16,-1
 123 1456 l 1,17,-1
 326 1456 l 1,18,-1
 326 493 l 2,19,20
 326 324 326 324 402.5 228.5 c 128,-1,21
 479 133 479 133 603 133 c 0,22,23
 731 133 731 133 809.5 228 c 128,-1,24
 888 323 888 323 888 493 c 2,25,-1
 888 1456 l 1,26,-1
 1092 1456 l 1,0,-1
EndSplineSet
EndChar

StartChar: uhorn
Encoding: 432 432 326
Width: 1028
GlyphClass: 1
Flags: W
LayerCount: 2
Fore
SplineSet
1194 1227 m 1,0,-1
 1197 1222 l 1,1,2
 1200 1049 1200 1049 1125 952 c 128,-1,3
 1050 855 1050 855 892 838 c 1,4,-1
 892 0 l 1,5,-1
 719 0 l 1,6,-1
 699 158 l 1,7,8
 655 72 655 72 587 25.5 c 128,-1,9
 519 -21 519 -21 429 -21 c 0,10,11
 280 -21 280 -21 196 94 c 128,-1,12
 112 209 112 209 112 451 c 2,13,-1
 112 1082 l 1,14,-1
 316 1082 l 1,15,-1
 316 449 l 2,16,17
 316 275 316 275 356 205.5 c 128,-1,18
 396 136 396 136 478 136 c 0,19,20
 553 136 553 136 605.5 171 c 128,-1,21
 658 206 658 206 688 271 c 1,22,-1
 688 1082 l 1,23,-1
 892 1082 l 1,24,-1
 892 965 l 1,25,-1
 898 963 l 1,26,27
 978 973 978 973 1012.5 1038 c 128,-1,28
 1047 1103 1047 1103 1047 1227 c 1,29,-1
 1194 1227 l 1,0,-1
EndSplineSet
EndChar

StartChar: uni0237
Encoding: 567 567 336
Width: 482
GlyphClass: 1
Flags: W
LayerCount: 2
Fore
SplineSet
348 1082 m 1,0,-1
 348 -74 l 2,1,2
 348 -248 348 -248 268 -342.5 c 128,-1,3
 188 -437 188 -437 46 -437 c 0,4,5
 16 -437 16 -437 -8.5 -432.5 c 128,-1,6
 -33 -428 -33 -428 -63 -419 c 1,7,-1
 -51 -268 l 1,8,9
 -35 -273 -35 -273 -11 -277 c 128,-1,10
 13 -281 13 -281 32 -281 c 0,11,12
 85 -281 85 -281 115 -226.5 c 128,-1,13
 145 -172 145 -172 145 -74 c 2,14,-1
 145 1082 l 1,15,-1
 348 1082 l 1,0,-1
EndSplineSet
EndChar

StartChar: circumflex
Encoding: 710 710 338
Width: 861
GlyphClass: 1
Flags: W
LayerCount: 2
Fore
SplineSet
714 1274 m 1,0,-1
 714 1252 l 1,1,-1
 550 1252 l 1,2,-1
 424 1403 l 1,3,-1
 300 1252 l 1,4,-1
 138 1252 l 1,5,-1
 138 1275 l 1,6,-1
 363 1507 l 1,7,-1
 486 1507 l 1,8,-1
 714 1274 l 1,0,-1
EndSplineSet
EndChar

StartChar: caron
Encoding: 711 711 339
Width: 817
GlyphClass: 1
Flags: W
LayerCount: 2
Fore
SplineSet
404 1359 m 1,0,-1
 519 1509 l 1,1,-1
 701 1509 l 1,2,-1
 701 1492 l 1,3,-1
 472 1252 l 1,4,-1
 337 1252 l 1,5,-1
 109 1491 l 1,6,-1
 109 1509 l 1,7,-1
 289 1509 l 1,8,-1
 404 1359 l 1,0,-1
EndSplineSet
EndChar

StartChar: breve
Encoding: 728 728 340
Width: 814
GlyphClass: 1
Flags: W
LayerCount: 2
Fore
SplineSet
684 1456 m 1,0,-1
 686 1450 l 1,1,2
 690 1332 690 1332 612.5 1258 c 128,-1,3
 535 1184 535 1184 403 1184 c 0,4,5
 270 1184 270 1184 192.5 1258 c 128,-1,6
 115 1332 115 1332 120 1450 c 1,7,-1
 122 1456 l 1,8,-1
 274 1456 l 1,9,10
 274 1389 274 1389 305 1347.5 c 128,-1,11
 336 1306 336 1306 403 1306 c 0,12,13
 467 1306 467 1306 498.5 1348 c 128,-1,14
 530 1390 530 1390 530 1456 c 1,15,-1
 684 1456 l 1,0,-1
EndSplineSet
EndChar

StartChar: dotaccent
Encoding: 729 729 341
Width: 516
GlyphClass: 1
Flags: W
LayerCount: 2
Fore
SplineSet
363 1259 m 1,0,-1
 134 1259 l 1,1,-1
 134 1459 l 1,2,-1
 363 1459 l 1,3,-1
 363 1259 l 1,0,-1
EndSplineSet
EndChar

StartChar: ring
Encoding: 730 730 342
Width: 629
GlyphClass: 1
Flags: W
LayerCount: 2
Fore
SplineSet
154 1313 m 256,0,1
 154 1382 154 1382 200.5 1429.5 c 128,-1,2
 247 1477 247 1477 314 1477 c 0,3,4
 379 1477 379 1477 424.5 1429.5 c 128,-1,5
 470 1382 470 1382 470 1313 c 0,6,7
 470 1243 470 1243 424.5 1198 c 128,-1,8
 379 1153 379 1153 314 1153 c 0,9,10
 247 1153 247 1153 200.5 1198.5 c 128,-1,11
 154 1244 154 1244 154 1313 c 256,0,1
246 1313 m 256,12,13
 246 1280 246 1280 265.5 1259 c 128,-1,14
 285 1238 285 1238 314 1238 c 0,15,16
 341 1238 341 1238 359 1259 c 128,-1,17
 377 1280 377 1280 377 1313 c 256,18,19
 377 1346 377 1346 359 1368 c 128,-1,20
 341 1390 341 1390 314 1390 c 0,21,22
 285 1390 285 1390 265.5 1368 c 128,-1,23
 246 1346 246 1346 246 1313 c 256,12,13
EndSplineSet
EndChar

StartChar: ogonek
Encoding: 731 731 343
Width: 516
GlyphClass: 1
Flags: W
LayerCount: 2
Fore
SplineSet
343 0 m 1,0,1
 289 -56 289 -56 262 -100 c 128,-1,2
 235 -144 235 -144 235 -197 c 0,3,4
 235 -230 235 -230 251.5 -254.5 c 128,-1,5
 268 -279 268 -279 313 -279 c 0,6,7
 338 -279 338 -279 358 -271 c 128,-1,8
 378 -263 378 -263 396 -252 c 1,9,-1
 425 -369 l 1,10,11
 395 -387 395 -387 357.5 -400 c 128,-1,12
 320 -413 320 -413 269 -413 c 0,13,14
 184 -413 184 -413 129 -361.5 c 128,-1,15
 74 -310 74 -310 74 -218 c 0,16,17
 74 -142 74 -142 119 -72.5 c 128,-1,18
 164 -3 164 -3 256 49 c 1,19,-1
 343 0 l 1,0,1
EndSplineSet
EndChar

StartChar: tilde
Encoding: 732 732 344
Width: 849
GlyphClass: 1
Flags: W
LayerCount: 2
Fore
SplineSet
730 1484 m 1,0,1
 730 1392 730 1392 679.5 1329 c 128,-1,2
 629 1266 629 1266 552 1266 c 0,3,4
 490 1266 490 1266 419 1315 c 128,-1,5
 348 1364 348 1364 304 1364 c 0,6,7
 269 1364 269 1364 246 1330.5 c 128,-1,8
 223 1297 223 1297 223 1248 c 1,9,-1
 112 1276 l 1,10,11
 112 1366 112 1366 162.5 1431 c 128,-1,12
 213 1496 213 1496 290 1496 c 0,13,14
 340 1496 340 1496 417 1446.5 c 128,-1,15
 494 1397 494 1397 538 1397 c 0,16,17
 571 1397 571 1397 595.5 1431 c 128,-1,18
 620 1465 620 1465 620 1515 c 1,19,-1
 730 1484 l 1,0,1
EndSplineSet
EndChar

StartChar: hungarumlaut
Encoding: 733 733 345
Width: 720
GlyphClass: 1
Flags: W
LayerCount: 2
Fore
SplineSet
586 1518 m 1,0,-1
 796 1518 l 1,1,-1
 799 1512 l 1,2,-1
 547 1252 l 1,3,-1
 379 1252 l 1,4,-1
 376 1257 l 1,5,-1
 586 1518 l 1,0,-1
282 1518 m 1,6,-1
 489 1518 l 1,7,-1
 278 1252 l 1,8,-1
 113 1252 l 1,9,-1
 282 1518 l 1,6,-1
EndSplineSet
EndChar

StartChar: uni02F3
Encoding: 755 755 346
Width: 586
GlyphClass: 1
Flags: W
LayerCount: 2
Fore
SplineSet
153 -228 m 0,0,1
 153 -165 153 -165 195 -122.5 c 128,-1,2
 237 -80 237 -80 298 -80 c 0,3,4
 358 -80 358 -80 399.5 -122.5 c 128,-1,5
 441 -165 441 -165 441 -228 c 0,6,7
 441 -290 441 -290 399.5 -331 c 128,-1,8
 358 -372 358 -372 298 -372 c 0,9,10
 237 -372 237 -372 195 -331 c 128,-1,11
 153 -290 153 -290 153 -228 c 0,0,1
238 -228 m 0,12,13
 238 -255 238 -255 255 -274 c 128,-1,14
 272 -293 272 -293 298 -293 c 0,15,16
 322 -293 322 -293 338.5 -274.5 c 128,-1,17
 355 -256 355 -256 355 -228 c 0,18,19
 355 -198 355 -198 338.5 -179 c 128,-1,20
 322 -160 322 -160 298 -160 c 0,21,22
 272 -160 272 -160 255 -179 c 128,-1,23
 238 -198 238 -198 238 -228 c 0,12,13
EndSplineSet
EndChar

StartChar: hook
Encoding: 777 777 350
Width: 13
GlyphClass: 1
Flags: W
LayerCount: 2
Fore
SplineSet
-582 1245 m 1,0,-1
 -589 1382 l 1,1,2
 -523 1387 -523 1387 -494.5 1404.5 c 128,-1,3
 -466 1422 -466 1422 -466 1461 c 0,4,5
 -466 1504 -466 1504 -502 1523.5 c 128,-1,6
 -538 1543 -538 1543 -600 1543 c 1,7,-1
 -594 1646 l 1,8,9
 -452 1646 -452 1646 -375.5 1596.5 c 128,-1,10
 -299 1547 -299 1547 -299 1462 c 0,11,12
 -299 1393 -299 1393 -337 1355.5 c 128,-1,13
 -375 1318 -375 1318 -432 1310 c 1,14,-1
 -432 1245 l 1,15,-1
 -582 1245 l 1,0,-1
EndSplineSet
EndChar

StartChar: uni030F
Encoding: 783 783 351
Width: 13
GlyphClass: 1
Flags: W
LayerCount: 2
Fore
SplineSet
-437 1257 m 1,0,-1
 -440 1252 l 1,1,-1
 -608 1252 l 1,2,-1
 -859 1512 l 1,3,-1
 -856 1518 l 1,4,-1
 -646 1518 l 1,5,-1
 -437 1257 l 1,0,-1
-173 1252 m 1,6,-1
 -339 1252 l 1,7,-1
 -550 1518 l 1,8,-1
 -342 1518 l 1,9,-1
 -173 1252 l 1,6,-1
EndSplineSet
EndChar

StartChar: dotbelow
Encoding: 803 803 352
Width: 13
GlyphClass: 1
Flags: W
LayerCount: 2
Fore
SplineSet
-392 -333 m 1,0,-1
 -621 -333 l 1,1,-1
 -621 -133 l 1,2,-1
 -392 -133 l 1,3,-1
 -392 -333 l 1,0,-1
EndSplineSet
EndChar

StartChar: tonos
Encoding: 900 900 353
Width: 539
GlyphClass: 1
Flags: W
LayerCount: 2
Fore
SplineSet
240 1540 m 1,0,-1
 443 1540 l 1,1,-1
 295 1284 l 1,2,-1
 200 1284 l 1,3,-1
 240 1540 l 1,0,-1
EndSplineSet
EndChar

StartChar: dieresistonos
Encoding: 901 901 354
Width: 940
GlyphClass: 1
Flags: W
LayerCount: 2
Fore
SplineSet
786 1274 m 1,0,-1
 595 1274 l 1,1,-1
 595 1456 l 1,2,-1
 786 1456 l 1,3,-1
 786 1274 l 1,0,-1
333 1274 m 1,4,-1
 142 1274 l 1,5,-1
 142 1456 l 1,6,-1
 333 1456 l 1,7,-1
 333 1274 l 1,4,-1
442 1722 m 1,8,-1
 653 1722 l 1,9,-1
 524 1472 l 1,10,-1
 404 1472 l 1,11,-1
 442 1722 l 1,8,-1
EndSplineSet
EndChar

StartChar: Gamma
Encoding: 915 915 366
Width: 985
GlyphClass: 1
Flags: W
LayerCount: 2
Fore
SplineSet
925 1300 m 1,0,-1
 338 1300 l 1,1,-1
 338 0 l 1,2,-1
 134 0 l 1,3,-1
 134 1456 l 1,4,-1
 925 1456 l 1,5,-1
 925 1300 l 1,0,-1
EndSplineSet
EndChar

StartChar: Delta
Encoding: 916 916 367
AltUni2: 002206.ffffffff.0 002206.ffffffff.0
Width: 1276
GlyphClass: 1
Flags: W
LayerCount: 2
Fore
SplineSet
546 1456 m 1,0,-1
 743 1456 l 1,1,-1
 1239 0 l 1,2,-1
 30 0 l 1,3,-1
 546 1456 l 1,0,-1
293 154 m 1,4,-1
 977 154 l 1,5,-1
 646 1168 l 1,6,-1
 640 1168 l 1,7,-1
 293 154 l 1,4,-1
EndSplineSet
EndChar

StartChar: Theta
Encoding: 920 920 371
Width: 1219
GlyphClass: 1
Flags: W
LayerCount: 2
Fore
SplineSet
807 652 m 1,0,-1
 421 652 l 1,1,-1
 421 806 l 1,2,-1
 807 806 l 1,3,-1
 807 652 l 1,0,-1
1119 527 m 2,4,5
 1119 268 1119 268 979 123.5 c 128,-1,6
 839 -21 839 -21 604 -21 c 0,7,8
 372 -21 372 -21 235 123.5 c 128,-1,9
 98 268 98 268 98 527 c 2,10,-1
 98 927 l 2,11,12
 98 1185 98 1185 235 1331 c 128,-1,13
 372 1477 372 1477 603 1477 c 0,14,15
 838 1477 838 1477 978.5 1331.5 c 128,-1,16
 1119 1186 1119 1186 1119 927 c 2,17,-1
 1119 527 l 2,4,5
917 930 m 2,18,19
 917 1120 917 1120 835.5 1218.5 c 128,-1,20
 754 1317 754 1317 603 1317 c 0,21,22
 457 1317 457 1317 378.5 1218.5 c 128,-1,23
 300 1120 300 1120 300 930 c 2,24,-1
 300 527 l 2,25,26
 300 335 300 335 379 236 c 128,-1,27
 458 137 458 137 604 137 c 0,28,29
 755 137 755 137 836 235.5 c 128,-1,30
 917 334 917 334 917 527 c 2,31,-1
 917 930 l 2,18,19
EndSplineSet
EndChar

StartChar: Lambda
Encoding: 923 923 374
Width: 1161
GlyphClass: 1
Flags: W
LayerCount: 2
Fore
SplineSet
580 1192 m 1,0,-1
 574 1192 l 1,1,-1
 249 0 l 1,2,-1
 38 0 l 1,3,-1
 479 1456 l 1,4,-1
 677 1456 l 1,5,-1
 1118 0 l 1,6,-1
 907 0 l 1,7,-1
 580 1192 l 1,0,-1
EndSplineSet
EndChar

StartChar: Xi
Encoding: 926 926 377
Width: 1015
GlyphClass: 1
Flags: W
LayerCount: 2
Fore
SplineSet
101 154 m 1,0,-1
 924 154 l 1,1,-1
 924 0 l 1,2,-1
 101 0 l 1,3,-1
 101 154 l 1,0,-1
186 817 m 1,4,-1
 834 817 l 1,5,-1
 834 665 l 1,6,-1
 186 665 l 1,7,-1
 186 817 l 1,4,-1
111 1456 m 1,8,-1
 899 1456 l 1,9,-1
 899 1301 l 1,10,-1
 111 1301 l 1,11,-1
 111 1456 l 1,8,-1
EndSplineSet
EndChar

StartChar: Pi
Encoding: 928 928 379
Width: 1253
GlyphClass: 1
Flags: W
LayerCount: 2
Fore
SplineSet
1115 0 m 1,0,-1
 912 0 l 1,1,-1
 912 1300 l 1,2,-1
 341 1300 l 1,3,-1
 341 0 l 1,4,-1
 137 0 l 1,5,-1
 137 1456 l 1,6,-1
 1115 1456 l 1,7,-1
 1115 0 l 1,0,-1
EndSplineSet
EndChar

StartChar: Sigma
Encoding: 931 931 381
Width: 1015
GlyphClass: 1
Flags: W
LayerCount: 2
Fore
SplineSet
682 729 m 1,0,-1
 309 154 l 1,1,-1
 950 154 l 1,2,-1
 950 0 l 1,3,-1
 67 0 l 1,4,-1
 67 126 l 1,5,-1
 466 741 l 1,6,-1
 67 1329 l 1,7,-1
 67 1456 l 1,8,-1
 917 1456 l 1,9,-1
 917 1301 l 1,10,-1
 313 1301 l 1,11,-1
 682 756 l 1,12,-1
 682 729 l 1,0,-1
EndSplineSet
EndChar

StartChar: Phi
Encoding: 934 934 384
Width: 1280
GlyphClass: 1
Flags: W
LayerCount: 2
Fore
SplineSet
747 1236 m 1,0,1
 953 1225 953 1225 1085.5 1082 c 128,-1,2
 1218 939 1218 939 1218 721 c 256,3,4
 1218 503 1218 503 1085.5 360 c 128,-1,5
 953 217 953 217 747 207 c 1,6,-1
 747 0 l 1,7,-1
 543 0 l 1,8,-1
 543 207 l 1,9,10
 334 216 334 216 202 358 c 128,-1,11
 70 500 70 500 70 719 c 256,12,13
 70 938 70 938 202.5 1082 c 128,-1,14
 335 1226 335 1226 543 1236 c 1,15,-1
 543 1456 l 1,16,-1
 747 1456 l 1,17,-1
 747 1236 l 1,0,1
270 719 m 0,18,19
 270 563 270 563 341.5 469.5 c 128,-1,20
 413 376 413 376 537 373 c 1,21,-1
 543 375 l 1,22,-1
 543 1068 l 1,23,-1
 537 1070 l 1,24,25
 413 1065 413 1065 341.5 969.5 c 128,-1,26
 270 874 270 874 270 719 c 0,18,19
1017 721 m 0,27,28
 1017 875 1017 875 945.5 969.5 c 128,-1,29
 874 1064 874 1064 753 1070 c 1,30,-1
 747 1068 l 1,31,-1
 747 375 l 1,32,-1
 753 373 l 1,33,34
 874 377 874 377 945.5 471.5 c 128,-1,35
 1017 566 1017 566 1017 721 c 0,27,28
EndSplineSet
EndChar

StartChar: Psi
Encoding: 936 936 386
Width: 1261
GlyphClass: 1
Flags: W
LayerCount: 2
Fore
SplineSet
725 507 m 1,0,-1
 731 505 l 1,1,2
 845 522 845 522 910 626.5 c 128,-1,3
 975 731 975 731 975 905 c 2,4,-1
 975 1456 l 1,5,-1
 1179 1456 l 1,6,-1
 1179 905 l 2,7,8
 1179 658 1179 658 1055.5 510 c 128,-1,9
 932 362 932 362 725 339 c 1,10,-1
 725 0 l 1,11,-1
 522 0 l 1,12,-1
 522 338 l 1,13,14
 315 360 315 360 193 508.5 c 128,-1,15
 71 657 71 657 71 905 c 2,16,-1
 71 1456 l 1,17,-1
 274 1456 l 1,18,-1
 274 905 l 2,19,20
 274 734 274 734 339 630 c 128,-1,21
 404 526 404 526 516 507 c 1,22,-1
 522 509 l 1,23,-1
 522 1456 l 1,24,-1
 725 1456 l 1,25,-1
 725 507 l 1,0,-1
EndSplineSet
EndChar

StartChar: Omega
Encoding: 937 937 387
AltUni2: 002126.ffffffff.0 002126.ffffffff.0
Width: 1189
GlyphClass: 1
Flags: W
LayerCount: 2
Fore
SplineSet
640 164 m 1,0,1
 741 200 741 200 798 342 c 128,-1,2
 855 484 855 484 855 737 c 2,3,-1
 855 848 l 2,4,5
 855 1070 855 1070 782.5 1195 c 128,-1,6
 710 1320 710 1320 585 1320 c 0,7,8
 461 1320 461 1320 389.5 1195 c 128,-1,9
 318 1070 318 1070 318 848 c 2,10,-1
 318 737 l 2,11,12
 318 483 318 483 376.5 341 c 128,-1,13
 435 199 435 199 538 164 c 1,14,-1
 538 0 l 1,15,-1
 112 0 l 1,16,-1
 112 155 l 1,17,-1
 351 155 l 1,18,19
 238 245 238 245 169.5 399.5 c 128,-1,20
 101 554 101 554 101 737 c 2,21,-1
 101 846 l 2,22,23
 101 1126 101 1126 235 1301.5 c 128,-1,24
 369 1477 369 1477 585 1477 c 0,25,26
 802 1477 802 1477 937 1301.5 c 128,-1,27
 1072 1126 1072 1126 1072 846 c 2,28,-1
 1072 737 l 2,29,30
 1072 554 1072 554 1003.5 399.5 c 128,-1,31
 935 245 935 245 823 155 c 1,32,-1
 1067 155 l 1,33,-1
 1067 0 l 1,34,-1
 640 0 l 1,35,-1
 640 164 l 1,0,1
EndSplineSet
EndChar

StartChar: alpha
Encoding: 945 945 395
Width: 1008
GlyphClass: 1
Flags: W
LayerCount: 2
Fore
SplineSet
877 1081 m 1,0,-1
 877 282 l 2,1,2
 877 203 877 203 893.5 172.5 c 128,-1,3
 910 142 910 142 943 142 c 0,4,5
 954 142 954 142 963.5 143.5 c 128,-1,6
 973 145 973 145 983 149 c 1,7,-1
 1003 6 l 1,8,9
 976 -9 976 -9 949.5 -15 c 128,-1,10
 923 -21 923 -21 891 -21 c 0,11,12
 818 -21 818 -21 768.5 12.5 c 128,-1,13
 719 46 719 46 696 118 c 1,14,15
 651 50 651 50 588 14.5 c 128,-1,16
 525 -21 525 -21 442 -21 c 0,17,18
 271 -21 271 -21 176 123.5 c 128,-1,19
 81 268 81 268 81 507 c 2,20,-1
 81 528 l 2,21,22
 81 788 81 788 176 945 c 128,-1,23
 271 1102 271 1102 444 1102 c 0,24,25
 527 1102 527 1102 590 1064 c 128,-1,26
 653 1026 653 1026 698 955 c 1,27,-1
 736 1081 l 1,28,-1
 877 1081 l 1,0,-1
284 507 m 2,29,30
 284 336 284 336 334.5 234.5 c 128,-1,31
 385 133 385 133 493 133 c 0,32,33
 556 133 556 133 601 165 c 128,-1,34
 646 197 646 197 674 256 c 1,35,-1
 674 282 l 1,36,-1
 674 817 l 1,37,38
 646 877 646 877 601 911.5 c 128,-1,39
 556 946 556 946 494 946 c 0,40,41
 387 946 387 946 335.5 829.5 c 128,-1,42
 284 713 284 713 284 528 c 2,43,-1
 284 507 l 2,29,30
EndSplineSet
EndChar

StartChar: beta
Encoding: 946 946 396
Width: 1064
GlyphClass: 1
Flags: W
LayerCount: 2
Fore
SplineSet
536 1477 m 0,0,1
 711 1477 711 1477 816 1369.5 c 128,-1,2
 921 1262 921 1262 921 1086 c 0,3,4
 921 989 921 989 875.5 908.5 c 128,-1,5
 830 828 830 828 751 782 c 1,6,7
 859 739 859 739 919 641.5 c 128,-1,8
 979 544 979 544 979 413 c 0,9,10
 979 208 979 208 873.5 93.5 c 128,-1,11
 768 -21 768 -21 592 -21 c 0,12,13
 524 -21 524 -21 458.5 -0.5 c 128,-1,14
 393 20 393 20 340 62 c 1,15,-1
 340 -395 l 1,16,-1
 137 -395 l 1,17,-1
 137 1057 l 2,18,19
 137 1235 137 1235 253.5 1356 c 128,-1,20
 370 1477 370 1477 536 1477 c 0,0,1
532 845 m 2,21,22
 628 845 628 845 673 907 c 128,-1,23
 718 969 718 969 718 1083 c 0,24,25
 718 1180 718 1180 670 1250.5 c 128,-1,26
 622 1321 622 1321 536 1321 c 0,27,28
 452 1321 452 1321 396 1246 c 128,-1,29
 340 1171 340 1171 340 1057 c 2,30,-1
 340 226 l 1,31,32
 376 182 376 182 431.5 157.5 c 128,-1,33
 487 133 487 133 555 133 c 0,34,35
 658 133 658 133 716.5 209.5 c 128,-1,36
 775 286 775 286 775 411 c 0,37,38
 775 533 775 533 721 614 c 128,-1,39
 667 695 667 695 571 695 c 2,40,-1
 468 695 l 1,41,-1
 468 845 l 1,42,-1
 532 845 l 2,21,22
EndSplineSet
EndChar

StartChar: gamma
Encoding: 947 947 397
Width: 904
GlyphClass: 1
Flags: W
LayerCount: 2
Fore
SplineSet
665 1082 m 1,0,-1
 875 1082 l 1,1,-1
 557 39 l 1,2,-1
 557 -417 l 1,3,-1
 353 -417 l 1,4,-1
 353 36 l 1,5,-1
 32 1082 l 1,6,-1
 244 1082 l 1,7,-1
 435 325 l 1,8,-1
 452 240 l 1,9,-1
 458 240 l 1,10,-1
 476 325 l 1,11,-1
 665 1082 l 1,0,-1
EndSplineSet
EndChar

StartChar: delta
Encoding: 948 948 398
Width: 1008
GlyphClass: 1
Flags: W
LayerCount: 2
Fore
SplineSet
832 1456 m 1,0,-1
 832 1303 l 1,1,-1
 452 1303 l 1,2,-1
 450 1297 l 1,3,-1
 723 1027 l 1,4,5
 815 951 815 951 873 826 c 128,-1,6
 931 701 931 701 931 553 c 2,7,-1
 931 526 l 2,8,9
 931 284 931 284 817 131.5 c 128,-1,10
 703 -21 703 -21 505 -21 c 0,11,12
 304 -21 304 -21 190 129 c 128,-1,13
 76 279 76 279 76 518 c 2,14,-1
 76 545 l 2,15,16
 76 760 76 760 169.5 907 c 128,-1,17
 263 1054 263 1054 416 1078 c 1,18,-1
 423 1078 l 1,19,-1
 425 1084 l 1,20,-1
 166 1333 l 1,21,-1
 166 1456 l 1,22,-1
 832 1456 l 1,0,-1
503 946 m 256,23,24
 391 946 391 946 335.5 834.5 c 128,-1,25
 280 723 280 723 280 553 c 2,26,-1
 280 526 l 2,27,28
 280 353 280 353 335.5 243 c 128,-1,29
 391 133 391 133 505 133 c 0,30,31
 616 133 616 133 671.5 243.5 c 128,-1,32
 727 354 727 354 727 526 c 2,33,-1
 727 553 l 2,34,35
 727 723 727 723 671 834.5 c 128,-1,36
 615 946 615 946 503 946 c 256,23,24
EndSplineSet
EndChar

StartChar: epsilon
Encoding: 949 949 399
Width: 979
GlyphClass: 1
Flags: W
LayerCount: 2
Fore
SplineSet
490 481 m 2,0,1
 394 481 394 481 344 438 c 128,-1,2
 294 395 294 395 294 307 c 0,3,4
 294 229 294 229 347 179 c 128,-1,5
 400 129 400 129 494 129 c 0,6,7
 586 129 586 129 641.5 183 c 128,-1,8
 697 237 697 237 697 316 c 1,9,-1
 891 316 l 1,10,-1
 893 310 l 1,11,12
 897 151 897 151 779.5 66 c 128,-1,13
 662 -19 662 -19 501 -19 c 0,14,15
 319 -19 319 -19 204.5 67 c 128,-1,16
 90 153 90 153 90 302 c 0,17,18
 90 395 90 395 137 460 c 128,-1,19
 184 525 184 525 273 556 c 1,20,21
 194 591 194 591 150.5 652.5 c 128,-1,22
 107 714 107 714 107 789 c 0,23,24
 107 937 107 937 213.5 1018.5 c 128,-1,25
 320 1100 320 1100 501 1100 c 0,26,27
 662 1100 662 1100 772.5 1013 c 128,-1,28
 883 926 883 926 878 787 c 1,29,-1
 876 781 l 1,30,-1
 682 781 l 1,31,32
 682 855 682 855 628 902.5 c 128,-1,33
 574 950 574 950 495 950 c 0,34,35
 403 950 403 950 356.5 902 c 128,-1,36
 310 854 310 854 310 783 c 0,37,38
 310 708 310 708 354.5 665 c 128,-1,39
 399 622 399 622 490 622 c 2,40,-1
 658 622 l 1,41,-1
 658 481 l 1,42,-1
 490 481 l 2,0,1
EndSplineSet
EndChar

StartChar: zeta
Encoding: 950 950 400
Width: 913
GlyphClass: 1
Flags: W
LayerCount: 2
Fore
SplineSet
835 1456 m 1,0,-1
 835 1346 l 1,1,-1
 528 882 l 2,2,3
 427 732 427 732 383 623.5 c 128,-1,4
 339 515 339 515 339 388 c 0,5,6
 339 275 339 275 384.5 213.5 c 128,-1,7
 430 152 430 152 522 152 c 2,8,-1
 562 152 l 2,9,10
 690 152 690 152 763.5 89 c 128,-1,11
 837 26 837 26 837 -92 c 0,12,13
 835 -205 835 -205 763 -291 c 128,-1,14
 691 -377 691 -377 583 -415 c 1,15,-1
 510 -284 l 1,16,17
 563 -258 563 -258 602.5 -213 c 128,-1,18
 642 -168 642 -168 642 -104 c 0,19,20
 642 -53 642 -53 611 -26.5 c 128,-1,21
 580 0 580 0 511 0 c 2,22,-1
 465 0 l 2,23,24
 304 0 304 0 220 106.5 c 128,-1,25
 136 213 136 213 136 373 c 0,26,27
 136 498 136 498 193.5 646 c 128,-1,28
 251 794 251 794 371 965 c 2,29,-1
 611 1301 l 1,30,-1
 83 1301 l 1,31,-1
 83 1456 l 1,32,-1
 835 1456 l 1,0,-1
EndSplineSet
EndChar

StartChar: eta
Encoding: 951 951 401
Width: 1008
GlyphClass: 1
Flags: W
LayerCount: 2
Fore
SplineSet
301 1082 m 1,0,-1
 313 926 l 1,1,2
 358 1010 358 1010 427.5 1056 c 128,-1,3
 497 1102 497 1102 584 1102 c 0,4,5
 730 1102 730 1102 810 998.5 c 128,-1,6
 890 895 890 895 890 666 c 2,7,-1
 890 -415 l 1,8,-1
 686 -415 l 1,9,-1
 686 665 l 2,10,11
 686 818 686 818 643 882 c 128,-1,12
 600 946 600 946 514 946 c 0,13,14
 447 946 447 946 398 911.5 c 128,-1,15
 349 877 349 877 319 816 c 1,16,-1
 319 0 l 1,17,-1
 115 0 l 1,18,-1
 115 1082 l 1,19,-1
 301 1082 l 1,0,-1
EndSplineSet
EndChar

StartChar: theta
Encoding: 952 952 402
Width: 1036
GlyphClass: 1
Flags: W
LayerCount: 2
Fore
SplineSet
962 518 m 2,0,1
 962 268 962 268 845.5 123.5 c 128,-1,2
 729 -21 729 -21 535 -21 c 0,3,4
 340 -21 340 -21 223 123.5 c 128,-1,5
 106 268 106 268 106 518 c 2,6,-1
 106 937 l 2,7,8
 106 1185 106 1185 222 1331 c 128,-1,9
 338 1477 338 1477 533 1477 c 256,10,11
 728 1477 728 1477 845 1331.5 c 128,-1,12
 962 1186 962 1186 962 937 c 2,13,-1
 962 518 l 2,0,1
311 803 m 1,14,-1
 756 803 l 1,15,-1
 756 966 l 2,16,17
 756 1131 756 1131 697.5 1226 c 128,-1,18
 639 1321 639 1321 533 1321 c 256,19,20
 427 1321 427 1321 369 1226 c 128,-1,21
 311 1131 311 1131 311 966 c 2,22,-1
 311 803 l 1,14,-1
756 651 m 1,23,-1
 311 651 l 1,24,-1
 311 490 l 2,25,26
 311 325 311 325 370 229 c 128,-1,27
 429 133 429 133 535 133 c 256,28,29
 641 133 641 133 698.5 228.5 c 128,-1,30
 756 324 756 324 756 490 c 2,31,-1
 756 651 l 1,23,-1
EndSplineSet
EndChar

StartChar: iota
Encoding: 953 953 403
Width: 589
GlyphClass: 1
Flags: W
LayerCount: 2
Fore
SplineSet
352 1081 m 1,0,-1
 352 286 l 2,1,2
 352 202 352 202 374 169 c 128,-1,3
 396 136 396 136 437 136 c 0,4,5
 460 136 460 136 476.5 140.5 c 128,-1,6
 493 145 493 145 520 156 c 1,7,-1
 550 18 l 1,8,9
 511 -4 511 -4 474.5 -12.5 c 128,-1,10
 438 -21 438 -21 392 -21 c 0,11,12
 273 -21 273 -21 210.5 54 c 128,-1,13
 148 129 148 129 148 293 c 2,14,-1
 148 1081 l 1,15,-1
 352 1081 l 1,0,-1
EndSplineSet
EndChar

StartChar: lambda
Encoding: 955 955 405
Width: 984
GlyphClass: 1
Flags: W
LayerCount: 2
Fore
SplineSet
257 0 m 1,0,-1
 36 0 l 1,1,-1
 368 1051 l 1,2,-1
 319 1187 l 1,3,4
 296 1264 296 1264 259.5 1313 c 128,-1,5
 223 1362 223 1362 174 1362 c 0,6,7
 164 1362 164 1362 146.5 1360 c 128,-1,8
 129 1358 129 1358 116 1357 c 1,9,-1
 114 1501 l 1,10,11
 142 1508 142 1508 168 1513 c 128,-1,12
 194 1518 194 1518 220 1518 c 0,13,14
 342 1518 342 1518 407.5 1439 c 128,-1,15
 473 1360 473 1360 510 1249 c 2,16,-1
 822 310 l 1,17,18
 840 237 840 237 868.5 193 c 128,-1,19
 897 149 897 149 934 147 c 0,20,21
 944 146 944 146 951.5 147 c 128,-1,22
 959 148 959 148 976 151 c 1,23,-1
 968 0 l 1,24,25
 949 -6 949 -6 926 -9.5 c 128,-1,26
 903 -13 903 -13 884 -12 c 0,27,28
 780 -9 780 -9 718 67 c 128,-1,29
 656 143 656 143 616 271 c 2,30,-1
 461 768 l 1,31,-1
 455 767 l 1,32,-1
 441 702 l 1,33,-1
 257 0 l 1,0,-1
EndSplineSet
EndChar

StartChar: xi
Encoding: 958 958 408
Width: 934
GlyphClass: 1
Flags: W
LayerCount: 2
Fore
SplineSet
824 1456 m 1,0,-1
 824 1298 l 1,1,-1
 569 1298 l 1,2,3
 471 1290 471 1290 422 1229.5 c 128,-1,4
 373 1169 373 1169 373 1078 c 0,5,6
 373 984 373 984 428 931 c 128,-1,7
 483 878 483 878 602 878 c 2,8,-1
 727 878 l 1,9,-1
 727 721 l 1,10,-1
 605 721 l 2,11,12
 455 721 455 721 377 643.5 c 128,-1,13
 299 566 299 566 299 412 c 0,14,15
 299 289 299 289 363 214.5 c 128,-1,16
 427 140 427 140 539 140 c 2,17,-1
 618 140 l 2,18,19
 750 140 750 140 824 76.5 c 128,-1,20
 898 13 898 13 898 -108 c 0,21,22
 897 -224 897 -224 826.5 -307.5 c 128,-1,23
 756 -391 756 -391 645 -430 c 1,24,-1
 579 -306 l 1,25,26
 631 -278 631 -278 671 -235.5 c 128,-1,27
 711 -193 711 -193 711 -129 c 0,28,29
 711 -75 711 -75 681.5 -45 c 128,-1,30
 652 -15 652 -15 590 -15 c 2,31,-1
 533 -15 l 2,32,33
 336 -15 336 -15 215.5 99 c 128,-1,34
 95 213 95 213 95 416 c 0,35,36
 95 561 95 561 165.5 659 c 128,-1,37
 236 757 236 757 369 801 c 1,38,39
 274 838 274 838 221.5 906 c 128,-1,40
 169 974 169 974 169 1062 c 0,41,42
 169 1141 169 1141 199.5 1200 c 128,-1,43
 230 1259 230 1259 288 1298 c 1,44,-1
 98 1298 l 1,45,-1
 98 1456 l 1,46,-1
 824 1456 l 1,0,-1
EndSplineSet
EndChar

StartChar: pi
Encoding: 960 960 410
Width: 1109
GlyphClass: 1
Flags: W
LayerCount: 2
Fore
SplineSet
1014 930 m 1,0,-1
 953 930 l 1,1,-1
 953 286 l 2,2,3
 953 202 953 202 975 169 c 128,-1,4
 997 136 997 136 1038 136 c 0,5,6
 1061 136 1061 136 1077.5 140.5 c 128,-1,7
 1094 145 1094 145 1121 156 c 1,8,-1
 1151 18 l 1,9,10
 1112 -4 1112 -4 1075.5 -12.5 c 128,-1,11
 1039 -21 1039 -21 993 -21 c 0,12,13
 874 -21 874 -21 811.5 54 c 128,-1,14
 749 129 749 129 749 293 c 2,15,-1
 749 930 l 1,16,-1
 414 930 l 1,17,-1
 414 0 l 1,18,-1
 211 0 l 1,19,-1
 211 930 l 1,20,-1
 75 930 l 1,21,-1
 75 1082 l 1,22,-1
 1014 1082 l 1,23,-1
 1014 930 l 1,0,-1
EndSplineSet
EndChar

StartChar: rho
Encoding: 961 961 411
Width: 1008
GlyphClass: 1
Flags: W
LayerCount: 2
Fore
SplineSet
927 507 m 2,0,1
 927 267 927 267 832.5 123 c 128,-1,2
 738 -21 738 -21 567 -21 c 0,3,4
 488 -21 488 -21 426.5 8.5 c 128,-1,5
 365 38 365 38 321 95 c 1,6,-1
 321 -416 l 1,7,-1
 117 -416 l 1,8,-1
 117 585 l 1,9,-1
 119 585 l 1,10,-1
 117 589 l 1,11,12
 117 828 117 828 229 965 c 128,-1,13
 341 1102 341 1102 522 1102 c 0,14,15
 716 1102 716 1102 821.5 945.5 c 128,-1,16
 927 789 927 789 927 528 c 2,17,-1
 927 507 l 2,0,1
723 528 m 2,18,19
 723 714 723 714 672.5 830 c 128,-1,20
 622 946 622 946 516 946 c 0,21,22
 419 946 419 946 370 835 c 128,-1,23
 321 724 321 724 321 577 c 2,24,-1
 321 260 l 1,25,26
 349 199 349 199 396 166 c 128,-1,27
 443 133 443 133 512 133 c 0,28,29
 619 133 619 133 671 235 c 128,-1,30
 723 337 723 337 723 507 c 2,31,-1
 723 528 l 2,18,19
EndSplineSet
EndChar

StartChar: sigma1
Encoding: 962 962 412
Width: 939
GlyphClass: 1
Flags: W
LayerCount: 2
Fore
SplineSet
494 1102 m 0,0,1
 660 1102 660 1102 761.5 997 c 128,-1,2
 863 892 863 892 860 709 c 1,3,-1
 857 703 l 1,4,-1
 674 703 l 1,5,6
 674 814 674 814 627.5 880 c 128,-1,7
 581 946 581 946 494 946 c 0,8,9
 384 946 384 946 331.5 834.5 c 128,-1,10
 279 723 279 723 279 559 c 2,11,-1
 279 521 l 2,12,13
 279 366 279 366 344.5 266.5 c 128,-1,14
 410 167 410 167 544 146 c 0,15,16
 699 123 699 123 772 67.5 c 128,-1,17
 845 12 845 12 845 -105 c 0,18,19
 843 -216 843 -216 771 -300.5 c 128,-1,20
 699 -385 699 -385 591 -424 c 1,21,-1
 518 -293 l 1,22,23
 571 -267 571 -267 610 -223.5 c 128,-1,24
 649 -180 649 -180 649 -117 c 0,25,26
 649 -68 649 -68 613.5 -41.5 c 128,-1,27
 578 -15 578 -15 503 -2 c 0,28,29
 291 27 291 27 184 162.5 c 128,-1,30
 77 298 77 298 77 521 c 2,31,-1
 77 559 l 2,32,33
 77 793 77 793 187.5 947.5 c 128,-1,34
 298 1102 298 1102 494 1102 c 0,0,1
EndSplineSet
EndChar

StartChar: sigma
Encoding: 963 963 413
Width: 1015
GlyphClass: 1
Flags: W
LayerCount: 2
Fore
SplineSet
993 925 m 1,0,-1
 750 925 l 1,1,2
 830 856 830 856 877 751 c 128,-1,3
 924 646 924 646 924 522 c 2,4,-1
 924 496 l 2,5,6
 924 276 924 276 810.5 127.5 c 128,-1,7
 697 -21 697 -21 504 -21 c 0,8,9
 304 -21 304 -21 190 131.5 c 128,-1,10
 76 284 76 284 76 526 c 2,11,-1
 76 553 l 2,12,13
 76 786 76 786 190 934 c 128,-1,14
 304 1082 304 1082 502 1082 c 2,15,-1
 993 1082 l 1,16,-1
 993 925 l 1,0,-1
279 526 m 2,17,18
 279 353 279 353 334.5 243 c 128,-1,19
 390 133 390 133 504 133 c 0,20,21
 611 133 611 133 665.5 243.5 c 128,-1,22
 720 354 720 354 720 526 c 2,23,-1
 720 553 l 2,24,25
 720 714 720 714 665.5 819.5 c 128,-1,26
 611 925 611 925 502 925 c 0,27,28
 390 925 390 925 334.5 819 c 128,-1,29
 279 713 279 713 279 553 c 2,30,-1
 279 526 l 2,17,18
EndSplineSet
EndChar

StartChar: tau
Encoding: 964 964 414
Width: 934
GlyphClass: 1
Flags: W
LayerCount: 2
Fore
SplineSet
873 927 m 1,0,-1
 567 927 l 1,1,-1
 567 0 l 1,2,-1
 363 0 l 1,3,-1
 363 927 l 1,4,-1
 62 927 l 1,5,-1
 62 1082 l 1,6,-1
 873 1082 l 1,7,-1
 873 927 l 1,0,-1
EndSplineSet
EndChar

StartChar: upsilon
Encoding: 965 965 415
Width: 1008
GlyphClass: 1
Flags: W
LayerCount: 2
Fore
SplineSet
320 1082 m 1,0,-1
 320 473 l 2,1,2
 320 296 320 296 372 214.5 c 128,-1,3
 424 133 424 133 513 133 c 0,4,5
 620 133 620 133 670 254 c 128,-1,6
 720 375 720 375 720 550 c 0,7,8
 717 684 717 684 692 816 c 128,-1,9
 667 948 667 948 624 1082 c 1,10,-1
 825 1082 l 1,11,12
 869 971 869 971 896 841.5 c 128,-1,13
 923 712 923 712 923 550 c 0,14,15
 923 293 923 293 827 136 c 128,-1,16
 731 -21 731 -21 520 -21 c 0,17,18
 329 -21 329 -21 223 101 c 128,-1,19
 117 223 117 223 117 475 c 2,20,-1
 117 1082 l 1,21,-1
 320 1082 l 1,0,-1
EndSplineSet
EndChar

StartChar: phi
Encoding: 966 966 416
Width: 1290
GlyphClass: 1
Flags: W
LayerCount: 2
Fore
SplineSet
740 1082 m 2,0,1
 954 1082 954 1082 1085.5 921.5 c 128,-1,2
 1217 761 1217 761 1217 528 c 0,3,4
 1217 310 1217 310 1101 160.5 c 128,-1,5
 985 11 985 11 740 -15 c 1,6,-1
 740 -478 l 1,7,-1
 536 -478 l 1,8,-1
 536 -15 l 1,9,10
 292 14 292 14 179.5 173 c 128,-1,11
 67 332 67 332 67 568 c 0,12,13
 67 723 67 723 96 848 c 128,-1,14
 125 973 125 973 175 1082 c 1,15,-1
 373 1082 l 1,16,17
 326 950 326 950 299 822.5 c 128,-1,18
 272 695 272 695 270 568 c 0,19,20
 270 409 270 409 332 294.5 c 128,-1,21
 394 180 394 180 530 153 c 1,22,-1
 536 155 l 1,23,-1
 536 1082 l 1,24,-1
 740 1082 l 2,0,1
1013 528 m 0,25,26
 1011 693 1011 693 939.5 808 c 128,-1,27
 868 923 868 923 746 918 c 1,28,-1
 740 916 l 1,29,-1
 740 152 l 1,30,-1
 746 150 l 1,31,32
 883 173 883 173 948 278 c 128,-1,33
 1013 383 1013 383 1013 528 c 0,25,26
EndSplineSet
EndChar

StartChar: chi
Encoding: 967 967 417
Width: 984
GlyphClass: 1
Flags: W
LayerCount: 2
Fore
SplineSet
160 1095 m 0,0,1
 282 1095 282 1095 347 1017.5 c 128,-1,2
 412 940 412 940 450 831 c 2,3,-1
 521 632 l 1,4,-1
 527 632 l 1,5,-1
 718 1082 l 1,6,-1
 924 1082 l 1,7,-1
 619 361 l 1,8,-1
 788 -107 l 2,9,10
 813 -183 813 -183 838 -224.5 c 128,-1,11
 863 -266 863 -266 899 -269 c 0,12,13
 912 -269 912 -269 921 -269 c 128,-1,14
 930 -269 930 -269 943 -267 c 1,15,-1
 934 -419 l 1,16,17
 917 -425 917 -425 893.5 -428 c 128,-1,18
 870 -431 870 -431 850 -431 c 0,19,20
 753 -427 753 -427 695 -354.5 c 128,-1,21
 637 -282 637 -282 595 -146 c 1,22,-1
 510 89 l 1,23,-1
 504 89 l 1,24,-1
 291 -415 l 1,25,-1
 85 -415 l 1,26,-1
 413 360 l 1,27,-1
 266 769 l 2,28,29
 241 846 241 846 203 893.5 c 128,-1,30
 165 941 165 941 114 941 c 0,31,32
 104 941 104 941 90 939 c 128,-1,33
 76 937 76 937 56 935 c 1,34,-1
 54 1080 l 1,35,36
 79 1086 79 1086 106 1090.5 c 128,-1,37
 133 1095 133 1095 160 1095 c 0,0,1
EndSplineSet
EndChar

StartChar: psi
Encoding: 968 968 418
Width: 1285
GlyphClass: 1
Flags: W
LayerCount: 2
Fore
SplineSet
735 1081 m 1,0,-1
 735 155 l 1,1,-1
 741 153 l 1,2,3
 879 179 879 179 943.5 297.5 c 128,-1,4
 1008 416 1008 416 1008 579 c 0,5,6
 1006 703 1006 703 979.5 828 c 128,-1,7
 953 953 953 953 907 1082 c 1,8,-1
 1105 1082 l 1,9,10
 1153 978 1153 978 1182.5 855 c 128,-1,11
 1212 732 1212 732 1212 579 c 0,12,13
 1212 334 1212 334 1097.5 172 c 128,-1,14
 983 10 983 10 735 -16 c 1,15,-1
 735 -462 l 1,16,-1
 531 -462 l 1,17,-1
 531 -14 l 1,18,19
 314 14 314 14 195.5 163.5 c 128,-1,20
 77 313 77 313 77 592 c 2,21,-1
 77 1082 l 1,22,-1
 281 1082 l 1,23,-1
 281 590 l 2,24,25
 281 393 281 393 347 285.5 c 128,-1,26
 413 178 413 178 525 155 c 1,27,-1
 531 157 l 1,28,-1
 531 1081 l 1,29,-1
 735 1081 l 1,0,-1
EndSplineSet
EndChar

StartChar: omega
Encoding: 969 969 419
Width: 1520
GlyphClass: 1
Flags: W
LayerCount: 2
Fore
SplineSet
423 1082 m 1,0,1
 363 948 363 948 329 816 c 128,-1,2
 295 684 295 684 293 550 c 0,3,4
 293 367 293 367 335.5 250.5 c 128,-1,5
 378 134 378 134 470 139 c 1,6,-1
 476 139 l 1,7,8
 555 134 555 134 604.5 216.5 c 128,-1,9
 654 299 654 299 654 479 c 2,10,-1
 654 790 l 1,11,-1
 865 790 l 1,12,-1
 865 479 l 2,13,14
 865 300 865 300 914 217 c 128,-1,15
 963 134 963 134 1044 139 c 1,16,-1
 1050 139 l 1,17,18
 1141 134 1141 134 1184 250 c 128,-1,19
 1227 366 1227 366 1227 550 c 1,20,21
 1223 685 1223 685 1189 817.5 c 128,-1,22
 1155 950 1155 950 1096 1082 c 1,23,-1
 1298 1082 l 1,24,25
 1358 971 1358 971 1394 841.5 c 128,-1,26
 1430 712 1430 712 1430 550 c 0,27,28
 1430 293 1430 293 1340 136 c 128,-1,29
 1250 -21 1250 -21 1055 -21 c 0,30,31
 950 -21 950 -21 874.5 35.5 c 128,-1,32
 799 92 799 92 759 203 c 1,33,34
 719 92 719 92 644 35.5 c 128,-1,35
 569 -21 569 -21 465 -21 c 0,36,37
 268 -21 268 -21 179 136 c 128,-1,38
 90 293 90 293 90 550 c 0,39,40
 90 712 90 712 125.5 841.5 c 128,-1,41
 161 971 161 971 221 1082 c 1,42,-1
 423 1082 l 1,0,1
EndSplineSet
EndChar

StartChar: uni03D1
Encoding: 977 977 425
Width: 1158
GlyphClass: 2
Flags: W
LayerCount: 2
Fore
SplineSet
467 1015 m 1,0,-1
 467 1089 l 2,1,2
 467 1265 467 1265 553.5 1371 c 128,-1,3
 640 1477 640 1477 777 1477 c 0,4,5
 917 1477 917 1477 998 1373.5 c 128,-1,6
 1079 1270 1079 1270 1079 1089 c 2,7,-1
 1079 563 l 2,8,9
 1079 295 1079 295 946 137 c 128,-1,10
 813 -21 813 -21 593 -21 c 0,11,12
 377 -21 377 -21 243.5 143 c 128,-1,13
 110 307 110 307 110 563 c 2,14,-1
 110 1252 l 1,15,-1
 320 1254 l 1,16,-1
 320 563 l 2,17,18
 320 373 320 373 393.5 256 c 128,-1,19
 467 139 467 139 593 139 c 0,20,21
 723 139 723 139 796.5 250.5 c 128,-1,22
 870 362 870 362 870 563 c 2,23,-1
 870 572 l 1,24,25
 692 584 692 584 579.5 707.5 c 128,-1,26
 467 831 467 831 467 1015 c 1,27,-1
 467 1015 l 1,0,-1
870 1098 m 2,28,29
 870 1204 870 1204 844.5 1257.5 c 128,-1,30
 819 1311 819 1311 771 1311 c 0,31,32
 721 1311 721 1311 692.5 1257 c 128,-1,33
 664 1203 664 1203 664 1098 c 2,34,-1
 664 1013 l 2,35,36
 664 896 664 896 717.5 817.5 c 128,-1,37
 771 739 771 739 864 733 c 1,38,-1
 870 735 l 1,39,-1
 870 1098 l 2,28,29
EndSplineSet
EndChar

StartChar: uni03D2
Encoding: 978 978 426
Width: 1000
GlyphClass: 1
Flags: W
LayerCount: 2
Fore
SplineSet
660 1227 m 2,0,1
 708 1361 708 1361 767.5 1416 c 128,-1,2
 827 1471 827 1471 919 1471 c 0,3,4
 944 1471 944 1471 967 1465 c 128,-1,5
 990 1459 990 1459 1010 1447 c 1,6,-1
 989 1298 l 1,7,8
 984 1301 984 1301 971.5 1304.5 c 128,-1,9
 959 1308 959 1308 948 1308 c 0,10,11
 915 1308 915 1308 890.5 1283 c 128,-1,12
 866 1258 866 1258 850 1199 c 1,13,-1
 599 554 l 1,14,-1
 599 0 l 1,15,-1
 397 0 l 1,16,-1
 397 561 l 1,17,-1
 148 1199 l 1,18,19
 131 1258 131 1258 106.5 1283 c 128,-1,20
 82 1308 82 1308 50 1308 c 0,21,22
 38 1308 38 1308 25 1304.5 c 128,-1,23
 12 1301 12 1301 9 1298 c 1,24,-1
 -10 1447 l 1,25,26
 8 1459 8 1459 30.5 1465 c 128,-1,27
 53 1471 53 1471 80 1471 c 0,28,29
 171 1471 171 1471 230 1417 c 128,-1,30
 289 1363 289 1363 337 1229 c 2,31,-1
 480 822 l 1,32,-1
 496 749 l 1,33,-1
 502 749 l 1,34,-1
 519 822 l 1,35,-1
 660 1227 l 2,0,1
EndSplineSet
EndChar

StartChar: uni03D6
Encoding: 982 982 427
Width: 1435
GlyphClass: 1
Flags: W
LayerCount: 2
Fore
SplineSet
1406 940 m 1,0,-1
 1280 940 l 1,1,2
 1309 854 1309 854 1326 757.5 c 128,-1,3
 1343 661 1343 661 1343 550 c 0,4,5
 1343 294 1343 294 1262 136.5 c 128,-1,6
 1181 -21 1181 -21 1005 -21 c 0,7,8
 904 -21 904 -21 831 34 c 128,-1,9
 758 89 758 89 719 198 c 1,10,11
 679 89 679 89 606.5 34 c 128,-1,12
 534 -21 534 -21 435 -21 c 0,13,14
 258 -21 258 -21 177 136.5 c 128,-1,15
 96 294 96 294 96 550 c 0,16,17
 96 661 96 661 112.5 757.5 c 128,-1,18
 129 854 129 854 159 940 c 1,19,-1
 45 940 l 1,20,-1
 45 1082 l 1,21,-1
 1406 1082 l 1,22,-1
 1406 940 l 1,0,-1
1139 550 m 0,23,24
 1137 648 1137 648 1119.5 745 c 128,-1,25
 1102 842 1102 842 1071 940 c 1,26,-1
 368 940 l 1,27,28
 336 842 336 842 318.5 745 c 128,-1,29
 301 648 301 648 299 550 c 0,30,31
 299 368 299 368 333 251.5 c 128,-1,32
 367 135 367 135 440 140 c 1,33,-1
 446 140 l 1,34,35
 521 134 521 134 567.5 216.5 c 128,-1,36
 614 299 614 299 614 479 c 2,37,-1
 614 723 l 1,38,-1
 825 723 l 1,39,-1
 825 479 l 2,40,41
 825 299 825 299 871 216.5 c 128,-1,42
 917 134 917 134 993 140 c 1,43,-1
 999 140 l 1,44,45
 1071 135 1071 135 1105 250.5 c 128,-1,46
 1139 366 1139 366 1139 550 c 0,23,24
EndSplineSet
EndChar

StartChar: uni0402
Encoding: 1026 1026 430
Width: 1339
GlyphClass: 1
Flags: W
LayerCount: 2
Fore
SplineSet
1030 1300 m 1,0,-1
 644 1300 l 1,1,-1
 644 0 l 1,2,-1
 440 0 l 1,3,-1
 440 1300 l 1,4,-1
 57 1300 l 1,5,-1
 57 1456 l 1,6,-1
 1030 1456 l 1,7,-1
 1030 1300 l 1,0,-1
649 883 m 1,8,-1
 896 883 l 2,9,10
 1113 883 1113 883 1244.5 760 c 128,-1,11
 1376 637 1376 637 1376 409 c 0,12,13
 1376 276 1376 276 1293.5 139.5 c 128,-1,14
 1211 3 1211 3 1051 -37 c 1,15,-1
 979 99 l 1,16,17
 1076 135 1076 135 1124.5 218 c 128,-1,18
 1173 301 1173 301 1173 409 c 0,19,20
 1173 561 1173 561 1098.5 641.5 c 128,-1,21
 1024 722 1024 722 896 722 c 2,22,-1
 649 722 l 1,23,-1
 649 883 l 1,8,-1
EndSplineSet
EndChar

StartChar: uni0404
Encoding: 1028 1028 432
Width: 1160
GlyphClass: 1
Flags: W
LayerCount: 2
Fore
SplineSet
1067 439 m 1,0,-1
 1069 433 l 1,1,2
 1073 218 1073 218 949 99 c 128,-1,3
 825 -20 825 -20 608 -20 c 0,4,5
 384 -20 384 -20 251 123.5 c 128,-1,6
 118 267 118 267 118 526 c 2,7,-1
 118 930 l 2,8,9
 118 1188 118 1188 249 1333 c 128,-1,10
 380 1478 380 1478 601 1478 c 0,11,12
 824 1478 824 1478 949 1362.5 c 128,-1,13
 1074 1247 1074 1247 1070 1025 c 1,14,-1
 1068 1019 l 1,15,-1
 873 1019 l 1,16,17
 873 1175 873 1175 805 1248.5 c 128,-1,18
 737 1322 737 1322 601 1322 c 0,19,20
 467 1322 467 1322 394 1221.5 c 128,-1,21
 321 1121 321 1121 321 933 c 2,22,-1
 321 813 l 1,23,-1
 745 813 l 1,24,-1
 745 658 l 1,25,-1
 321 658 l 1,26,-1
 321 526 l 2,27,28
 321 336 321 336 396 235 c 128,-1,29
 471 134 471 134 608 134 c 0,30,31
 740 134 740 134 806 206.5 c 128,-1,32
 872 279 872 279 872 439 c 1,33,-1
 1067 439 l 1,0,-1
EndSplineSet
EndChar

StartChar: uni0405
Encoding: 1029 1029 433
Width: 1094
GlyphClass: 1
Flags: W
LayerCount: 2
Fore
SplineSet
803 366 m 0,0,1
 803 466 803 466 746 530.5 c 128,-1,2
 689 595 689 595 545 648 c 1,3,4
 340 712 340 712 230 813 c 128,-1,5
 120 914 120 914 120 1082 c 0,6,7
 120 1254 120 1254 241.5 1365.5 c 128,-1,8
 363 1477 363 1477 553 1477 c 0,9,10
 755 1477 755 1477 877 1353 c 128,-1,11
 999 1229 999 1229 995 1042 c 1,12,-1
 993 1036 l 1,13,-1
 798 1036 l 1,14,15
 798 1164 798 1164 730 1243 c 128,-1,16
 662 1322 662 1322 551 1322 c 0,17,18
 443 1322 443 1322 383.5 1254 c 128,-1,19
 324 1186 324 1186 324 1084 c 0,20,21
 324 989 324 989 387 927 c 128,-1,22
 450 865 450 865 599 810 c 1,23,24
 798 745 798 745 902 640 c 128,-1,25
 1006 535 1006 535 1006 368 c 0,26,27
 1006 190 1006 190 883.5 84.5 c 128,-1,28
 761 -21 761 -21 562 -21 c 0,29,30
 370 -21 370 -21 228 93 c 128,-1,31
 86 207 86 207 91 420 c 1,32,-1
 93 426 l 1,33,-1
 289 426 l 1,34,35
 289 278 289 278 367.5 205 c 128,-1,36
 446 132 446 132 562 132 c 0,37,38
 675 132 675 132 739 195.5 c 128,-1,39
 803 259 803 259 803 366 c 0,0,1
EndSplineSet
EndChar

StartChar: uni0409
Encoding: 1033 1033 437
Width: 1893
GlyphClass: 1
Flags: W
LayerCount: 2
Fore
SplineSet
1115 1456 m 1,0,-1
 1115 889 l 1,1,-1
 1377 889 l 2,2,3
 1584 889 1584 889 1703 765 c 128,-1,4
 1822 641 1822 641 1822 445 c 0,5,6
 1822 247 1822 247 1703 123.5 c 128,-1,7
 1584 0 1584 0 1377 0 c 2,8,-1
 911 0 l 1,9,-1
 911 1300 l 1,10,-1
 523 1300 l 1,11,-1
 522 788 l 2,12,13
 519 373 519 373 415.5 186.5 c 128,-1,14
 312 0 312 0 86 0 c 2,15,-1
 46 0 l 1,16,-1
 46 154 l 1,17,-1
 80 154 l 2,18,19
 212 154 212 154 264 292.5 c 128,-1,20
 316 431 316 431 318 788 c 2,21,-1
 321 1456 l 1,22,-1
 1115 1456 l 1,0,-1
1115 735 m 1,23,-1
 1115 154 l 1,24,-1
 1377 154 l 2,25,26
 1495 154 1495 154 1557 238.5 c 128,-1,27
 1619 323 1619 323 1619 447 c 0,28,29
 1619 566 1619 566 1557 650.5 c 128,-1,30
 1495 735 1495 735 1377 735 c 2,31,-1
 1115 735 l 1,23,-1
EndSplineSet
EndChar

StartChar: uni040A
Encoding: 1034 1034 438
Width: 1892
GlyphClass: 1
Flags: W
LayerCount: 2
Fore
SplineSet
341 814 m 1,0,-1
 911 814 l 1,1,-1
 911 1456 l 1,2,-1
 1114 1456 l 1,3,-1
 1114 861 l 1,4,-1
 1376 861 l 2,5,6
 1583 861 1583 861 1702.5 742.5 c 128,-1,7
 1822 624 1822 624 1822 433 c 0,8,9
 1822 241 1822 241 1702.5 120.5 c 128,-1,10
 1583 0 1583 0 1376 0 c 2,11,-1
 911 0 l 1,12,-1
 911 659 l 1,13,-1
 341 659 l 1,14,-1
 341 0 l 1,15,-1
 137 0 l 1,16,-1
 137 1456 l 1,17,-1
 341 1456 l 1,18,-1
 341 814 l 1,0,-1
1114 706 m 1,19,-1
 1114 160 l 1,20,-1
 1376 160 l 2,21,22
 1495 160 1495 160 1557 238.5 c 128,-1,23
 1619 317 1619 317 1619 435 c 0,24,25
 1619 550 1619 550 1557 628 c 128,-1,26
 1495 706 1495 706 1376 706 c 2,27,-1
 1114 706 l 1,19,-1
EndSplineSet
EndChar

StartChar: uni040B
Encoding: 1035 1035 439
Width: 1430
GlyphClass: 1
Flags: W
LayerCount: 2
Fore
SplineSet
1046 1300 m 1,0,-1
 660 1300 l 1,1,-1
 660 957 l 1,2,-1
 863 957 l 2,3,4
 1079 957 1079 957 1193.5 843.5 c 128,-1,5
 1308 730 1308 730 1308 485 c 2,6,-1
 1308 0 l 1,7,-1
 1104 0 l 1,8,-1
 1104 485 l 2,9,10
 1104 659 1104 659 1047 730.5 c 128,-1,11
 990 802 990 802 863 802 c 2,12,-1
 660 802 l 1,13,-1
 660 0 l 1,14,-1
 456 0 l 1,15,-1
 456 1300 l 1,16,-1
 73 1300 l 1,17,-1
 73 1456 l 1,18,-1
 1046 1456 l 1,19,-1
 1046 1300 l 1,0,-1
EndSplineSet
EndChar

StartChar: uni040F
Encoding: 1039 1039 443
Width: 1247
GlyphClass: 1
Flags: W
LayerCount: 2
Fore
SplineSet
131 1456 m 1,0,-1
 335 1456 l 1,1,-1
 335 154 l 1,2,-1
 905 154 l 1,3,-1
 905 1456 l 1,4,-1
 1109 1456 l 1,5,-1
 1109 0 l 1,6,-1
 730 0 l 1,7,-1
 730 -356 l 1,8,-1
 526 -356 l 1,9,-1
 526 0 l 1,10,-1
 131 0 l 1,11,-1
 131 1456 l 1,0,-1
EndSplineSet
EndChar

StartChar: uni0411
Encoding: 1041 1041 445
Width: 1120
GlyphClass: 1
Flags: W
LayerCount: 2
Fore
SplineSet
925 1300 m 1,0,-1
 338 1300 l 1,1,-1
 338 884 l 1,2,-1
 600 884 l 2,3,4
 807 884 807 884 926.5 762 c 128,-1,5
 1046 640 1046 640 1046 445 c 0,6,7
 1046 247 1046 247 926.5 123.5 c 128,-1,8
 807 0 807 0 600 0 c 2,9,-1
 134 0 l 1,10,-1
 134 1456 l 1,11,-1
 925 1456 l 1,12,-1
 925 1300 l 1,0,-1
338 729 m 1,13,-1
 338 154 l 1,14,-1
 600 154 l 2,15,16
 719 154 719 154 781 238.5 c 128,-1,17
 843 323 843 323 843 447 c 0,18,19
 843 566 843 566 781 647.5 c 128,-1,20
 719 729 719 729 600 729 c 2,21,-1
 338 729 l 1,13,-1
EndSplineSet
EndChar

StartChar: uni0414
Encoding: 1044 1044 448
Width: 1312
GlyphClass: 1
Flags: W
LayerCount: 2
Fore
SplineSet
1284 -355 m 1,0,-1
 1080 -355 l 1,1,-1
 1080 0 l 1,2,-1
 238 0 l 1,3,-1
 238 -356 l 1,4,-1
 35 -356 l 1,5,-1
 35 154 l 1,6,-1
 112 154 l 2,7,8
 219 154 219 154 270.5 335.5 c 128,-1,9
 322 517 322 517 337 891 c 1,10,-1
 366 1456 l 1,11,-1
 1128 1456 l 1,12,-1
 1128 154 l 1,13,-1
 1284 154 l 1,14,-1
 1284 -355 l 1,0,-1
541 891 m 2,15,16
 530 636 530 636 490 450 c 128,-1,17
 450 264 450 264 378 154 c 1,18,-1
 924 154 l 1,19,-1
 924 1300 l 1,20,-1
 561 1300 l 1,21,-1
 541 891 l 2,15,16
EndSplineSet
EndChar

StartChar: uni0416
Encoding: 1046 1046 450
Width: 1541
GlyphClass: 1
Flags: W
LayerCount: 2
Fore
SplineSet
938 661 m 1,0,-1
 876 661 l 1,1,-1
 876 0 l 1,2,-1
 673 0 l 1,3,-1
 673 661 l 1,4,-1
 605 661 l 1,5,-1
 274 0 l 1,6,-1
 20 0 l 1,7,-1
 442 780 l 1,8,-1
 47 1456 l 1,9,-1
 294 1456 l 1,10,-1
 610 824 l 1,11,-1
 673 824 l 1,12,-1
 673 1456 l 1,13,-1
 876 1456 l 1,14,-1
 876 824 l 1,15,-1
 934 824 l 1,16,-1
 1246 1456 l 1,17,-1
 1492 1456 l 1,18,-1
 1100 782 l 1,19,-1
 1520 0 l 1,20,-1
 1266 0 l 1,21,-1
 938 661 l 1,0,-1
EndSplineSet
EndChar

StartChar: uni0417
Encoding: 1047 1047 451
Width: 1184
GlyphClass: 1
Flags: W
LayerCount: 2
Fore
SplineSet
586 819 m 2,0,1
 724 819 724 819 790 884.5 c 128,-1,2
 856 950 856 950 856 1067 c 0,3,4
 856 1179 856 1179 784.5 1250 c 128,-1,5
 713 1321 713 1321 574 1321 c 0,6,7
 463 1321 463 1321 389 1251 c 128,-1,8
 315 1181 315 1181 315 1071 c 1,9,-1
 121 1071 l 1,10,-1
 118 1077 l 1,11,12
 113 1255 113 1255 246 1366 c 128,-1,13
 379 1477 379 1477 574 1477 c 0,14,15
 798 1477 798 1477 928 1370 c 128,-1,16
 1058 1263 1058 1263 1058 1065 c 0,17,18
 1058 962 1058 962 998 877 c 128,-1,19
 938 792 938 792 834 746 c 1,20,21
 952 705 952 705 1015 617.5 c 128,-1,22
 1078 530 1078 530 1078 402 c 0,23,24
 1078 203 1078 203 938.5 91 c 128,-1,25
 799 -21 799 -21 574 -21 c 0,26,27
 378 -21 378 -21 236.5 86 c 128,-1,28
 95 193 95 193 100 398 c 1,29,-1
 102 404 l 1,30,-1
 297 404 l 1,31,32
 297 288 297 288 374.5 210.5 c 128,-1,33
 452 133 452 133 574 133 c 0,34,35
 715 133 715 133 795 206 c 128,-1,36
 875 279 875 279 875 400 c 0,37,38
 875 536 875 536 802 600.5 c 128,-1,39
 729 665 729 665 586 665 c 2,40,-1
 423 665 l 1,41,-1
 423 819 l 1,42,-1
 586 819 l 2,0,1
EndSplineSet
EndChar

StartChar: uni0418
Encoding: 1048 1048 452
Width: 1248
GlyphClass: 1
Flags: W
LayerCount: 2
Fore
SplineSet
909 1456 m 1,0,-1
 1113 1456 l 1,1,-1
 1113 0 l 1,2,-1
 909 0 l 1,3,-1
 909 1067 l 1,4,-1
 903 1068 l 1,5,-1
 338 0 l 1,6,-1
 135 0 l 1,7,-1
 135 1456 l 1,8,-1
 338 1456 l 1,9,-1
 338 389 l 1,10,-1
 344 388 l 1,11,-1
 909 1456 l 1,0,-1
EndSplineSet
EndChar

StartChar: uni041B
Encoding: 1051 1051 455
Width: 1252
GlyphClass: 1
Flags: W
LayerCount: 2
Fore
SplineSet
1115 1456 m 1,0,-1
 1115 0 l 1,1,-1
 911 0 l 1,2,-1
 911 1300 l 1,3,-1
 498 1300 l 1,4,-1
 496 788 l 2,5,6
 495 373 495 373 397 186.5 c 128,-1,7
 299 0 299 0 84 0 c 2,8,-1
 45 0 l 1,9,-1
 45 154 l 1,10,-1
 79 154 l 2,11,12
 199 154 199 154 245 291.5 c 128,-1,13
 291 429 291 429 292 788 c 2,14,-1
 295 1456 l 1,15,-1
 1115 1456 l 1,0,-1
EndSplineSet
EndChar

StartChar: uni0423
Encoding: 1059 1059 463
Width: 1137
GlyphClass: 1
Flags: W
LayerCount: 2
Fore
SplineSet
527 737 m 1,0,-1
 564 627 l 1,1,-1
 570 627 l 1,2,-1
 864 1456 l 1,3,-1
 1088 1456 l 1,4,-1
 627 254 l 1,5,6
 573 126 573 126 500.5 52.5 c 128,-1,7
 428 -21 428 -21 295 -21 c 0,8,9
 241 -21 241 -21 195.5 -10 c 128,-1,10
 150 1 150 1 112 20 c 1,11,-1
 137 164 l 1,12,13
 167 151 167 151 204 142 c 128,-1,14
 241 133 241 133 273 133 c 0,15,16
 345 133 345 133 386 177.5 c 128,-1,17
 427 222 427 222 452 299 c 2,18,-1
 481 379 l 1,19,-1
 43 1456 l 1,20,-1
 266 1456 l 1,21,-1
 527 737 l 1,0,-1
EndSplineSet
EndChar

StartChar: uni0426
Encoding: 1062 1062 466
Width: 1337
GlyphClass: 1
Flags: W
LayerCount: 2
Fore
SplineSet
317 1456 m 1,0,-1
 520 1456 l 1,1,-1
 520 156 l 1,2,-1
 1062 156 l 1,3,-1
 1062 164 l 1,4,-1
 1091 164 l 1,5,-1
 1091 1456 l 1,6,-1
 1295 1456 l 1,7,-1
 1295 0 l 1,8,-1
 1265 0 l 1,9,-1
 1265 -357 l 1,10,-1
 1062 -357 l 1,11,-1
 1062 0 l 1,12,-1
 317 0 l 1,13,-1
 317 1456 l 1,0,-1
EndSplineSet
EndChar

StartChar: uni0427
Encoding: 1063 1063 467
Width: 1221
GlyphClass: 1
Flags: W
LayerCount: 2
Fore
SplineSet
1083 1456 m 1,0,-1
 1083 0 l 1,1,-1
 880 0 l 1,2,-1
 880 612 l 1,3,4
 812 589 812 589 736.5 577 c 128,-1,5
 661 565 661 565 583 565 c 0,6,7
 364 565 364 565 248 674 c 128,-1,8
 132 783 132 783 132 1022 c 2,9,-1
 132 1456 l 1,10,-1
 335 1456 l 1,11,-1
 335 1022 l 2,12,13
 335 854 335 854 394.5 787 c 128,-1,14
 454 720 454 720 583 720 c 0,15,16
 654 720 654 720 732.5 732.5 c 128,-1,17
 811 745 811 745 880 767 c 1,18,-1
 880 1456 l 1,19,-1
 1083 1456 l 1,0,-1
EndSplineSet
EndChar

StartChar: uni0428
Encoding: 1064 1064 468
Width: 1817
GlyphClass: 1
Flags: W
LayerCount: 2
Fore
SplineSet
337 1456 m 1,0,-1
 337 154 l 1,1,-1
 812 154 l 1,2,-1
 812 1456 l 1,3,-1
 1015 1456 l 1,4,-1
 1015 154 l 1,5,-1
 1486 154 l 1,6,-1
 1486 1456 l 1,7,-1
 1690 1456 l 1,8,-1
 1690 0 l 1,9,-1
 133 0 l 1,10,-1
 133 1456 l 1,11,-1
 337 1456 l 1,0,-1
EndSplineSet
EndChar

StartChar: uni0429
Encoding: 1065 1065 469
Width: 1911
GlyphClass: 1
Flags: W
LayerCount: 2
Fore
SplineSet
337 1456 m 1,0,-1
 337 154 l 1,1,-1
 812 154 l 1,2,-1
 812 1456 l 1,3,-1
 1015 1456 l 1,4,-1
 1015 154 l 1,5,-1
 1486 154 l 1,6,-1
 1486 1456 l 1,7,-1
 1690 1456 l 1,8,-1
 1690 157 l 1,9,-1
 1855 157 l 1,10,-1
 1855 -354 l 1,11,-1
 1652 -354 l 1,12,-1
 1652 0 l 1,13,-1
 133 0 l 1,14,-1
 133 1456 l 1,15,-1
 337 1456 l 1,0,-1
EndSplineSet
EndChar

StartChar: uni042A
Encoding: 1066 1066 470
Width: 1281
GlyphClass: 1
Flags: W
LayerCount: 2
Fore
SplineSet
8 1456 m 1,0,-1
 501 1456 l 1,1,-1
 501 884 l 1,2,-1
 763 884 l 2,3,4
 970 884 970 884 1089.5 762 c 128,-1,5
 1209 640 1209 640 1209 445 c 0,6,7
 1209 247 1209 247 1089.5 123.5 c 128,-1,8
 970 0 970 0 763 0 c 2,9,-1
 297 0 l 1,10,-1
 297 1301 l 1,11,-1
 8 1301 l 1,12,-1
 8 1456 l 1,0,-1
501 729 m 1,13,-1
 501 154 l 1,14,-1
 763 154 l 2,15,16
 882 154 882 154 944 238.5 c 128,-1,17
 1006 323 1006 323 1006 447 c 0,18,19
 1006 566 1006 566 944 647.5 c 128,-1,20
 882 729 882 729 763 729 c 2,21,-1
 501 729 l 1,13,-1
EndSplineSet
EndChar

StartChar: uni042B
Encoding: 1067 1067 471
Width: 1525
GlyphClass: 1
Flags: W
LayerCount: 2
Fore
SplineSet
338 884 m 1,0,-1
 600 884 l 2,1,2
 807 884 807 884 926.5 762 c 128,-1,3
 1046 640 1046 640 1046 445 c 0,4,5
 1046 247 1046 247 926.5 123.5 c 128,-1,6
 807 0 807 0 600 0 c 2,7,-1
 134 0 l 1,8,-1
 134 1456 l 1,9,-1
 338 1456 l 1,10,-1
 338 884 l 1,0,-1
1558 0 m 1,11,-1
 1355 0 l 1,12,-1
 1355 1456 l 1,13,-1
 1558 1456 l 1,14,-1
 1558 0 l 1,11,-1
338 729 m 1,15,-1
 338 154 l 1,16,-1
 600 154 l 2,17,18
 719 154 719 154 781 238.5 c 128,-1,19
 843 323 843 323 843 447 c 0,20,21
 843 566 843 566 781 647.5 c 128,-1,22
 719 729 719 729 600 729 c 2,23,-1
 338 729 l 1,15,-1
EndSplineSet
EndChar

StartChar: uni042C
Encoding: 1068 1068 472
Width: 1115
GlyphClass: 1
Flags: W
LayerCount: 2
Fore
SplineSet
338 884 m 1,0,-1
 600 884 l 2,1,2
 807 884 807 884 926.5 762 c 128,-1,3
 1046 640 1046 640 1046 445 c 0,4,5
 1046 247 1046 247 926.5 123.5 c 128,-1,6
 807 0 807 0 600 0 c 2,7,-1
 134 0 l 1,8,-1
 134 1456 l 1,9,-1
 338 1456 l 1,10,-1
 338 884 l 1,0,-1
338 729 m 1,11,-1
 338 154 l 1,12,-1
 600 154 l 2,13,14
 719 154 719 154 781 238.5 c 128,-1,15
 843 323 843 323 843 447 c 0,16,17
 843 566 843 566 781 647.5 c 128,-1,18
 719 729 719 729 600 729 c 2,19,-1
 338 729 l 1,11,-1
EndSplineSet
EndChar

StartChar: uni042D
Encoding: 1069 1069 473
Width: 1158
GlyphClass: 1
Flags: W
LayerCount: 2
Fore
SplineSet
126 989 m 1,0,-1
 123 995 l 1,1,2
 119 1213 119 1213 243.5 1345.5 c 128,-1,3
 368 1478 368 1478 582 1478 c 256,4,5
 796 1478 796 1478 929 1304 c 128,-1,6
 1062 1130 1062 1130 1062 858 c 2,7,-1
 1062 598 l 2,8,9
 1062 326 1062 326 929 153 c 128,-1,10
 796 -20 796 -20 582 -20 c 0,11,12
 365 -20 365 -20 241.5 107 c 128,-1,13
 118 234 118 234 122 460 c 1,14,-1
 125 466 l 1,15,-1
 321 466 l 1,16,17
 321 305 321 305 386.5 219.5 c 128,-1,18
 452 134 452 134 582 134 c 0,19,20
 710 134 710 134 784.5 263.5 c 128,-1,21
 859 393 859 393 859 596 c 2,22,-1
 859 673 l 1,23,-1
 420 673 l 1,24,-1
 420 827 l 1,25,-1
 859 827 l 1,26,-1
 859 858 l 2,27,28
 859 1062 859 1062 784.5 1192 c 128,-1,29
 710 1322 710 1322 582 1322 c 0,30,31
 452 1322 452 1322 386.5 1237 c 128,-1,32
 321 1152 321 1152 321 989 c 1,33,-1
 126 989 l 1,0,-1
EndSplineSet
EndChar

StartChar: uni042E
Encoding: 1070 1070 474
Width: 1635
GlyphClass: 1
Flags: W
LayerCount: 2
Fore
SplineSet
1599 527 m 2,0,1
 1599 268 1599 268 1459 123.5 c 128,-1,2
 1319 -21 1319 -21 1084 -21 c 0,3,4
 852 -21 852 -21 715 123.5 c 128,-1,5
 578 268 578 268 578 527 c 2,6,-1
 578 636 l 1,7,-1
 360 636 l 1,8,-1
 360 0 l 1,9,-1
 157 0 l 1,10,-1
 157 1456 l 1,11,-1
 360 1456 l 1,12,-1
 360 791 l 1,13,-1
 578 791 l 1,14,-1
 578 927 l 2,15,16
 578 1185 578 1185 715 1331 c 128,-1,17
 852 1477 852 1477 1083 1477 c 0,18,19
 1318 1477 1318 1477 1458.5 1331.5 c 128,-1,20
 1599 1186 1599 1186 1599 927 c 2,21,-1
 1599 527 l 2,0,1
1397 930 m 2,22,23
 1397 1120 1397 1120 1315.5 1218.5 c 128,-1,24
 1234 1317 1234 1317 1083 1317 c 0,25,26
 937 1317 937 1317 858.5 1218.5 c 128,-1,27
 780 1120 780 1120 780 930 c 2,28,-1
 780 527 l 2,29,30
 780 335 780 335 859 236 c 128,-1,31
 938 137 938 137 1084 137 c 0,32,33
 1235 137 1235 137 1316 235.5 c 128,-1,34
 1397 334 1397 334 1397 527 c 2,35,-1
 1397 930 l 2,22,23
EndSplineSet
EndChar

StartChar: uni042F
Encoding: 1071 1071 475
Width: 1051
GlyphClass: 1
Flags: W
LayerCount: 2
Fore
SplineSet
232 0 m 1,0,-1
 14 0 l 1,1,-1
 299 667 l 1,2,3
 188 719 188 719 130.5 811.5 c 128,-1,4
 73 904 73 904 73 1033 c 0,5,6
 73 1234 73 1234 192.5 1345 c 128,-1,7
 312 1456 312 1456 523 1456 c 2,8,-1
 938 1456 l 1,9,-1
 938 0 l 1,10,-1
 734 0 l 1,11,-1
 734 604 l 1,12,-1
 485 604 l 1,13,-1
 232 0 l 1,0,-1
734 1300 m 1,14,-1
 523 1300 l 2,15,16
 401 1300 401 1300 339 1229 c 128,-1,17
 277 1158 277 1158 277 1030 c 0,18,19
 277 907 277 907 339.5 831.5 c 128,-1,20
 402 756 402 756 519 756 c 2,21,-1
 734 756 l 1,22,-1
 734 1300 l 1,14,-1
EndSplineSet
EndChar

StartChar: uni0431
Encoding: 1073 1073 477
Width: 993
GlyphClass: 1
Flags: W
LayerCount: 2
Fore
SplineSet
528 1102 m 0,0,1
 715 1102 715 1102 823 948 c 128,-1,2
 931 794 931 794 931 553 c 2,3,-1
 931 526 l 2,4,5
 931 284 931 284 816.5 131.5 c 128,-1,6
 702 -21 702 -21 504 -21 c 0,7,8
 305 -21 305 -21 190.5 131.5 c 128,-1,9
 76 284 76 284 76 526 c 2,10,-1
 76 553 l 2,11,12
 76 561 76 561 76 566.5 c 128,-1,13
 76 572 76 572 77 579 c 2,14,-1
 77 826 l 2,15,16
 77 1131 77 1131 184 1274 c 128,-1,17
 291 1417 291 1417 507 1427 c 0,18,19
 623 1432 623 1432 682.5 1460 c 128,-1,20
 742 1488 742 1488 742 1554 c 1,21,-1
 899 1554 l 1,22,-1
 900 1548 l 1,23,24
 905 1393 905 1393 810 1331 c 128,-1,25
 715 1269 715 1269 525 1265 c 0,26,27
 386 1261 386 1261 312.5 1185 c 128,-1,28
 239 1109 239 1109 245 964 c 1,29,-1
 248 959 l 1,30,31
 296 1022 296 1022 370 1062 c 128,-1,32
 444 1102 444 1102 528 1102 c 0,0,1
502 946 m 0,33,34
 390 946 390 946 334.5 834 c 128,-1,35
 279 722 279 722 279 553 c 2,36,-1
 279 526 l 2,37,38
 279 354 279 354 335 243.5 c 128,-1,39
 391 133 391 133 504 133 c 0,40,41
 615 133 615 133 671.5 243.5 c 128,-1,42
 728 354 728 354 728 526 c 2,43,-1
 728 553 l 2,44,45
 728 723 728 723 671.5 834.5 c 128,-1,46
 615 946 615 946 502 946 c 0,33,34
EndSplineSet
EndChar

StartChar: uni0432
Encoding: 1074 1074 478
Width: 1008
GlyphClass: 1
Flags: W
LayerCount: 2
Fore
SplineSet
125 0 m 1,0,-1
 125 1082 l 1,1,-1
 500 1082 l 2,2,3
 683 1082 683 1082 785.5 1007.5 c 128,-1,4
 888 933 888 933 888 786 c 0,5,6
 888 708 888 708 843.5 647 c 128,-1,7
 799 586 799 586 718 556 c 1,8,9
 819 533 819 533 874 464.5 c 128,-1,10
 929 396 929 396 929 305 c 0,11,12
 929 154 929 154 832.5 77 c 128,-1,13
 736 0 736 0 560 0 c 2,14,-1
 125 0 l 1,0,-1
328 476 m 1,15,-1
 328 152 l 1,16,-1
 560 152 l 2,17,18
 642 152 642 152 683.5 193.5 c 128,-1,19
 725 235 725 235 725 315 c 0,20,21
 725 391 725 391 684 433.5 c 128,-1,22
 643 476 643 476 560 476 c 2,23,-1
 328 476 l 1,15,-1
328 619 m 1,24,-1
 513 619 l 2,25,26
 599 620 599 620 641.5 658 c 128,-1,27
 684 696 684 696 684 771 c 0,28,29
 684 850 684 850 638 888.5 c 128,-1,30
 592 927 592 927 500 927 c 2,31,-1
 328 927 l 1,32,-1
 328 619 l 1,24,-1
EndSplineSet
EndChar

StartChar: uni0433
Encoding: 1075 1075 479
Width: 747
GlyphClass: 1
Flags: W
LayerCount: 2
Fore
SplineSet
728 925 m 1,0,-1
 319 925 l 1,1,-1
 319 0 l 1,2,-1
 115 0 l 1,3,-1
 115 1082 l 1,4,-1
 728 1082 l 1,5,-1
 728 925 l 1,0,-1
EndSplineSet
EndChar

StartChar: uni0434
Encoding: 1076 1076 480
Width: 1149
GlyphClass: 1
Flags: W
LayerCount: 2
Fore
SplineSet
154 154 m 2,0,1
 221 154 221 154 251.5 279.5 c 128,-1,2
 282 405 282 405 294 670 c 2,3,-1
 314 1082 l 1,4,-1
 961 1082 l 1,5,-1
 961 154 l 1,6,-1
 1082 154 l 1,7,-1
 1082 -355 l 1,8,-1
 879 -355 l 1,9,-1
 879 0 l 1,10,-1
 270 0 l 1,11,-1
 270 -355 l 1,12,-1
 66 -355 l 1,13,-1
 66 154 l 1,14,-1
 154 154 l 2,0,1
497 670 m 2,15,16
 488 490 488 490 466.5 363 c 128,-1,17
 445 236 445 236 404 154 c 1,18,-1
 757 154 l 1,19,-1
 757 915 l 1,20,-1
 509 915 l 1,21,-1
 497 670 l 2,15,16
EndSplineSet
EndChar

StartChar: uni0436
Encoding: 1078 1078 482
Width: 1365
GlyphClass: 1
Flags: W
LayerCount: 2
Fore
SplineSet
843 462 m 1,0,-1
 782 462 l 1,1,-1
 782 0 l 1,2,-1
 580 0 l 1,3,-1
 580 462 l 1,4,-1
 520 462 l 1,5,-1
 285 0 l 1,6,-1
 26 0 l 1,7,-1
 362 584 l 1,8,-1
 49 1082 l 1,9,-1
 303 1082 l 1,10,-1
 528 635 l 1,11,-1
 580 635 l 1,12,-1
 580 1082 l 1,13,-1
 782 1082 l 1,14,-1
 782 635 l 1,15,-1
 836 635 l 1,16,-1
 1062 1082 l 1,17,-1
 1314 1082 l 1,18,-1
 1002 584 l 1,19,-1
 1337 0 l 1,20,-1
 1078 0 l 1,21,-1
 843 462 l 1,0,-1
EndSplineSet
EndChar

StartChar: uni0437
Encoding: 1079 1079 483
Width: 979
GlyphClass: 1
Flags: W
LayerCount: 2
Fore
SplineSet
493 624 m 2,0,1
 582 624 582 624 626 666 c 128,-1,2
 670 708 670 708 670 783 c 0,3,4
 670 855 670 855 624.5 902.5 c 128,-1,5
 579 950 579 950 488 950 c 0,6,7
 408 950 408 950 355 902.5 c 128,-1,8
 302 855 302 855 302 781 c 1,9,-1
 108 781 l 1,10,-1
 106 787 l 1,11,12
 100 926 100 926 209.5 1013 c 128,-1,13
 319 1100 319 1100 482 1100 c 0,14,15
 662 1100 662 1100 768 1018.5 c 128,-1,16
 874 937 874 937 874 789 c 0,17,18
 874 714 874 714 830 652.5 c 128,-1,19
 786 591 786 591 709 556 c 1,20,21
 797 525 797 525 844 460 c 128,-1,22
 891 395 891 395 891 302 c 0,23,24
 891 152 891 152 777 66.5 c 128,-1,25
 663 -19 663 -19 482 -19 c 0,26,27
 319 -19 319 -19 203 66 c 128,-1,28
 87 151 87 151 92 310 c 1,29,-1
 94 316 l 1,30,-1
 288 316 l 1,31,32
 288 237 288 237 342 183 c 128,-1,33
 396 129 396 129 489 129 c 0,34,35
 583 129 583 129 635 179 c 128,-1,36
 687 229 687 229 687 307 c 0,37,38
 687 395 687 395 637.5 437 c 128,-1,39
 588 479 588 479 493 479 c 2,40,-1
 330 479 l 1,41,-1
 330 624 l 1,42,-1
 493 624 l 2,0,1
EndSplineSet
EndChar

StartChar: uni0438
Encoding: 1080 1080 484
Width: 1008
GlyphClass: 1
Flags: W
LayerCount: 2
Fore
SplineSet
689 1082 m 1,0,-1
 893 1082 l 1,1,-1
 893 0 l 1,2,-1
 689 0 l 1,3,-1
 689 735 l 1,4,-1
 683 736 l 1,5,-1
 318 0 l 1,6,-1
 115 0 l 1,7,-1
 115 1082 l 1,8,-1
 318 1082 l 1,9,-1
 318 345 l 1,10,-1
 324 344 l 1,11,-1
 689 1082 l 1,0,-1
EndSplineSet
EndChar

StartChar: uni043A
Encoding: 1082 1082 486
Width: 993
GlyphClass: 1
Flags: W
LayerCount: 2
Fore
SplineSet
424 457 m 1,0,-1
 332 457 l 1,1,-1
 332 0 l 1,2,-1
 129 0 l 1,3,-1
 129 1082 l 1,4,-1
 332 1082 l 1,5,-1
 332 629 l 1,6,-1
 411 629 l 1,7,-1
 686 1082 l 1,8,-1
 940 1082 l 1,9,-1
 584 576 l 1,10,-1
 970 0 l 1,11,-1
 703 0 l 1,12,-1
 424 457 l 1,0,-1
EndSplineSet
EndChar

StartChar: uni043B
Encoding: 1083 1083 487
Width: 994
GlyphClass: 1
Flags: W
LayerCount: 2
Fore
SplineSet
893 1082 m 1,0,-1
 893 0 l 1,1,-1
 689 0 l 1,2,-1
 689 925 l 1,3,-1
 412 925 l 1,4,-1
 412 613 l 2,5,6
 412 294 412 294 334.5 147 c 128,-1,7
 257 0 257 0 69 0 c 2,8,-1
 26 0 l 1,9,-1
 26 162 l 1,10,-1
 57 163 l 2,11,12
 146 163 146 163 177.5 260.5 c 128,-1,13
 209 358 209 358 209 613 c 2,14,-1
 209 1082 l 1,15,-1
 893 1082 l 1,0,-1
EndSplineSet
EndChar

StartChar: uni043C
Encoding: 1084 1084 488
Width: 1337
GlyphClass: 1
Flags: W
LayerCount: 2
Fore
SplineSet
661 248 m 1,0,-1
 667 248 l 1,1,-1
 945 1082 l 1,2,-1
 1200 1082 l 1,3,-1
 1200 0 l 1,4,-1
 996 0 l 1,5,-1
 996 713 l 1,6,-1
 990 714 l 1,7,-1
 734 0 l 1,8,-1
 596 0 l 1,9,-1
 338 720 l 1,10,-1
 332 718 l 1,11,-1
 332 0 l 1,12,-1
 129 0 l 1,13,-1
 129 1082 l 1,14,-1
 385 1082 l 1,15,-1
 661 248 l 1,0,-1
EndSplineSet
EndChar

StartChar: uni043D
Encoding: 1085 1085 489
Width: 1008
GlyphClass: 1
Flags: W
LayerCount: 2
Fore
SplineSet
891 0 m 1,0,-1
 687 0 l 1,1,-1
 687 462 l 1,2,-1
 319 462 l 1,3,-1
 319 0 l 1,4,-1
 115 0 l 1,5,-1
 115 1082 l 1,6,-1
 319 1082 l 1,7,-1
 319 616 l 1,8,-1
 687 616 l 1,9,-1
 687 1082 l 1,10,-1
 891 1082 l 1,11,-1
 891 0 l 1,0,-1
EndSplineSet
EndChar

StartChar: uni043F
Encoding: 1087 1087 491
Width: 1008
GlyphClass: 1
Flags: W
LayerCount: 2
Fore
SplineSet
893 0 m 1,0,-1
 689 0 l 1,1,-1
 689 925 l 1,2,-1
 319 925 l 1,3,-1
 319 0 l 1,4,-1
 115 0 l 1,5,-1
 115 1082 l 1,6,-1
 893 1082 l 1,7,-1
 893 0 l 1,0,-1
EndSplineSet
EndChar

StartChar: uni0441
Encoding: 1089 1089 493
Width: 927
GlyphClass: 1
Flags: W
LayerCount: 2
Fore
SplineSet
493 133 m 0,0,1
 568 133 568 133 618.5 191 c 128,-1,2
 669 249 669 249 669 348 c 1,3,-1
 852 348 l 1,4,-1
 854 342 l 1,5,6
 858 189 858 189 751 84 c 128,-1,7
 644 -21 644 -21 493 -21 c 0,8,9
 293 -21 293 -21 184 131.5 c 128,-1,10
 75 284 75 284 75 521 c 2,11,-1
 75 559 l 2,12,13
 75 795 75 795 184 948.5 c 128,-1,14
 293 1102 293 1102 493 1102 c 0,15,16
 655 1102 655 1102 756.5 992.5 c 128,-1,17
 858 883 858 883 855 708 c 1,18,-1
 853 703 l 1,19,-1
 669 703 l 1,20,21
 669 811 669 811 620.5 878.5 c 128,-1,22
 572 946 572 946 493 946 c 0,23,24
 379 946 379 946 328.5 836 c 128,-1,25
 278 726 278 726 278 559 c 2,26,-1
 278 521 l 2,27,28
 278 351 278 351 328 242 c 128,-1,29
 378 133 378 133 493 133 c 0,0,1
EndSplineSet
EndChar

StartChar: uni0442
Encoding: 1090 1090 494
Width: 923
GlyphClass: 1
Flags: W
LayerCount: 2
Fore
SplineSet
868 927 m 1,0,-1
 562 927 l 1,1,-1
 562 0 l 1,2,-1
 358 0 l 1,3,-1
 358 927 l 1,4,-1
 57 927 l 1,5,-1
 57 1082 l 1,6,-1
 868 1082 l 1,7,-1
 868 927 l 1,0,-1
EndSplineSet
EndChar

StartChar: uni0444
Encoding: 1092 1092 496
Width: 1569
GlyphClass: 1
Flags: W
LayerCount: 2
Fore
SplineSet
77 528 m 2,0,1
 77 788 77 788 172 945 c 128,-1,2
 267 1102 267 1102 439 1102 c 0,3,4
 514 1102 514 1102 573 1072.5 c 128,-1,5
 632 1043 632 1043 676 987 c 1,6,-1
 676 1560 l 1,7,-1
 879 1560 l 1,8,-1
 879 979 l 1,9,10
 923 1038 923 1038 984 1070 c 128,-1,11
 1045 1102 1045 1102 1124 1102 c 0,12,13
 1297 1102 1297 1102 1392.5 945 c 128,-1,14
 1488 788 1488 788 1488 528 c 2,15,-1
 1488 507 l 2,16,17
 1488 267 1488 267 1392.5 123 c 128,-1,18
 1297 -21 1297 -21 1126 -21 c 0,19,20
 1046 -21 1046 -21 984.5 8.5 c 128,-1,21
 923 38 923 38 879 95 c 1,22,-1
 879 -416 l 1,23,-1
 676 -416 l 1,24,-1
 676 90 l 1,25,26
 632 35 632 35 572 7 c 128,-1,27
 512 -21 512 -21 437 -21 c 0,28,29
 266 -21 266 -21 171.5 123.5 c 128,-1,30
 77 268 77 268 77 507 c 2,31,-1
 77 528 l 2,0,1
1284 528 m 2,32,33
 1284 712 1284 712 1230 829 c 128,-1,34
 1176 946 1176 946 1069 946 c 0,35,36
 1001 946 1001 946 953.5 908 c 128,-1,37
 906 870 906 870 879 805 c 1,38,-1
 879 262 l 1,39,40
 907 200 907 200 954.5 166.5 c 128,-1,41
 1002 133 1002 133 1071 133 c 0,42,43
 1178 133 1178 133 1231 235.5 c 128,-1,44
 1284 338 1284 338 1284 507 c 2,45,-1
 1284 528 l 2,32,33
279 507 m 2,46,47
 279 336 279 336 330 234.5 c 128,-1,48
 381 133 381 133 489 133 c 0,49,50
 554 133 554 133 600 165.5 c 128,-1,51
 646 198 646 198 676 258 c 1,52,-1
 676 815 l 1,53,54
 647 876 647 876 600.5 911 c 128,-1,55
 554 946 554 946 490 946 c 0,56,57
 382 946 382 946 330.5 829.5 c 128,-1,58
 279 713 279 713 279 528 c 2,59,-1
 279 507 l 2,46,47
EndSplineSet
EndChar

StartChar: uni0446
Encoding: 1094 1094 498
Width: 1069
GlyphClass: 1
Flags: W
LayerCount: 2
Fore
SplineSet
115 1082 m 1,0,-1
 319 1082 l 1,1,-1
 319 154 l 1,2,-1
 689 154 l 1,3,-1
 689 1082 l 1,4,-1
 893 1082 l 1,5,-1
 893 154 l 1,6,-1
 1013 154 l 1,7,-1
 1013 -353 l 1,8,-1
 810 -353 l 1,9,-1
 810 0 l 1,10,-1
 115 0 l 1,11,-1
 115 1082 l 1,0,-1
EndSplineSet
EndChar

StartChar: uni0447
Encoding: 1095 1095 499
Width: 992
GlyphClass: 1
Flags: W
LayerCount: 2
Fore
SplineSet
878 0 m 1,0,-1
 673 0 l 1,1,-1
 673 392 l 1,2,3
 631 379 631 379 587.5 372.5 c 128,-1,4
 544 366 544 366 502 366 c 0,5,6
 312 366 312 366 210 465 c 128,-1,7
 108 564 108 564 108 776 c 2,8,-1
 108 1082 l 1,9,-1
 311 1082 l 1,10,-1
 311 776 l 2,11,12
 311 636 311 636 356.5 578.5 c 128,-1,13
 402 521 402 521 502 521 c 0,14,15
 545 521 545 521 587.5 528.5 c 128,-1,16
 630 536 630 536 673 550 c 1,17,-1
 673 1082 l 1,18,-1
 878 1082 l 1,19,-1
 878 0 l 1,0,-1
EndSplineSet
EndChar

StartChar: uni0448
Encoding: 1096 1096 500
Width: 1445
GlyphClass: 1
Flags: W
LayerCount: 2
Fore
SplineSet
319 1082 m 1,0,-1
 319 154 l 1,1,-1
 618 154 l 1,2,-1
 618 1082 l 1,3,-1
 822 1082 l 1,4,-1
 822 154 l 1,5,-1
 1121 154 l 1,6,-1
 1121 1082 l 1,7,-1
 1324 1082 l 1,8,-1
 1324 0 l 1,9,-1
 115 0 l 1,10,-1
 115 1082 l 1,11,-1
 319 1082 l 1,0,-1
EndSplineSet
EndChar

StartChar: uni0449
Encoding: 1097 1097 501
Width: 1550
GlyphClass: 1
Flags: W
LayerCount: 2
Fore
SplineSet
319 1082 m 1,0,-1
 319 154 l 1,1,-1
 618 154 l 1,2,-1
 618 1082 l 1,3,-1
 822 1082 l 1,4,-1
 822 154 l 1,5,-1
 1121 154 l 1,6,-1
 1121 1082 l 1,7,-1
 1324 1082 l 1,8,-1
 1324 64 l 1,9,-1
 1487 64 l 1,10,-1
 1487 -257 l 1,11,-1
 1291 -257 l 1,12,-1
 1291 0 l 1,13,-1
 115 0 l 1,14,-1
 115 1082 l 1,15,-1
 319 1082 l 1,0,-1
EndSplineSet
EndChar

StartChar: uni044A
Encoding: 1098 1098 502
Width: 1124
GlyphClass: 1
Flags: W
LayerCount: 2
Fore
SplineSet
31 1082 m 1,0,-1
 531 1082 l 1,1,-1
 531 681 l 1,2,-1
 737 681 l 2,3,4
 912 681 912 681 1012.5 587 c 128,-1,5
 1113 493 1113 493 1113 343 c 0,6,7
 1113 191 1113 191 1012.5 95.5 c 128,-1,8
 912 0 912 0 737 0 c 2,9,-1
 327 0 l 1,10,-1
 327 927 l 1,11,-1
 31 927 l 1,12,-1
 31 1082 l 1,0,-1
531 525 m 1,13,-1
 531 154 l 1,14,-1
 737 154 l 2,15,16
 824 154 824 154 866.5 206 c 128,-1,17
 909 258 909 258 909 339 c 0,18,19
 909 416 909 416 866.5 470.5 c 128,-1,20
 824 525 824 525 737 525 c 2,21,-1
 531 525 l 1,13,-1
EndSplineSet
EndChar

StartChar: uni044B
Encoding: 1099 1099 503
Width: 1435
GlyphClass: 1
Flags: W
LayerCount: 2
Fore
SplineSet
353 681 m 1,0,-1
 559 681 l 2,1,2
 734 681 734 681 834.5 587 c 128,-1,3
 935 493 935 493 935 343 c 0,4,5
 935 191 935 191 834.5 95.5 c 128,-1,6
 734 0 734 0 559 0 c 2,7,-1
 149 0 l 1,8,-1
 149 1082 l 1,9,-1
 353 1082 l 1,10,-1
 353 681 l 1,0,-1
1416 0 m 1,11,-1
 1213 0 l 1,12,-1
 1213 1082 l 1,13,-1
 1416 1082 l 1,14,-1
 1416 0 l 1,11,-1
353 525 m 1,15,-1
 353 154 l 1,16,-1
 559 154 l 2,17,18
 646 154 646 154 688.5 206 c 128,-1,19
 731 258 731 258 731 339 c 0,20,21
 731 416 731 416 688.5 470.5 c 128,-1,22
 646 525 646 525 559 525 c 2,23,-1
 353 525 l 1,15,-1
EndSplineSet
EndChar

StartChar: uni044C
Encoding: 1100 1100 504
Width: 982
GlyphClass: 1
Flags: W
LayerCount: 2
Fore
SplineSet
333 681 m 1,0,-1
 539 681 l 2,1,2
 714 681 714 681 814.5 587 c 128,-1,3
 915 493 915 493 915 343 c 0,4,5
 915 191 915 191 814.5 95.5 c 128,-1,6
 714 0 714 0 539 0 c 2,7,-1
 129 0 l 1,8,-1
 129 1082 l 1,9,-1
 333 1082 l 1,10,-1
 333 681 l 1,0,-1
333 525 m 1,11,-1
 333 154 l 1,12,-1
 539 154 l 2,13,14
 626 154 626 154 668.5 206 c 128,-1,15
 711 258 711 258 711 339 c 0,16,17
 711 416 711 416 668.5 470.5 c 128,-1,18
 626 525 626 525 539 525 c 2,19,-1
 333 525 l 1,11,-1
EndSplineSet
EndChar

StartChar: uni044D
Encoding: 1101 1101 505
Width: 944
GlyphClass: 1
Flags: W
LayerCount: 2
Fore
SplineSet
446 946 m 0,0,1
 370 946 370 946 319 887.5 c 128,-1,2
 268 829 268 829 268 732 c 1,3,-1
 85 732 l 1,4,-1
 83 738 l 1,5,6
 78 889 78 889 186 995.5 c 128,-1,7
 294 1102 294 1102 446 1102 c 0,8,9
 643 1102 643 1102 754 947.5 c 128,-1,10
 865 793 865 793 865 559 c 2,11,-1
 865 521 l 2,12,13
 865 286 865 286 754 132.5 c 128,-1,14
 643 -21 643 -21 448 -21 c 0,15,16
 283 -21 283 -21 180.5 88 c 128,-1,17
 78 197 78 197 82 371 c 1,18,-1
 85 377 l 1,19,-1
 268 377 l 1,20,21
 268 268 268 268 317.5 200.5 c 128,-1,22
 367 133 367 133 448 133 c 0,23,24
 549 133 549 133 601.5 230.5 c 128,-1,25
 654 328 654 328 661 478 c 1,26,-1
 359 478 l 1,27,-1
 359 617 l 1,28,-1
 660 617 l 1,29,30
 650 762 650 762 598 854 c 128,-1,31
 546 946 546 946 446 946 c 0,0,1
EndSplineSet
EndChar

StartChar: uni044E
Encoding: 1102 1102 506
Width: 1446
GlyphClass: 1
Flags: W
LayerCount: 2
Fore
SplineSet
334 622 m 1,0,-1
 584 622 l 1,1,2
 600 837 600 837 712.5 969.5 c 128,-1,3
 825 1102 825 1102 1009 1102 c 0,4,5
 1208 1102 1208 1102 1322.5 948 c 128,-1,6
 1437 794 1437 794 1437 553 c 2,7,-1
 1437 526 l 2,8,9
 1437 284 1437 284 1323 131.5 c 128,-1,10
 1209 -21 1209 -21 1011 -21 c 0,11,12
 823 -21 823 -21 710 114 c 128,-1,13
 597 249 597 249 584 468 c 1,14,-1
 334 468 l 1,15,-1
 334 0 l 1,16,-1
 131 0 l 1,17,-1
 131 1082 l 1,18,-1
 334 1082 l 1,19,-1
 334 622 l 1,0,-1
786 526 m 2,20,21
 786 353 786 353 841.5 243 c 128,-1,22
 897 133 897 133 1011 133 c 0,23,24
 1122 133 1122 133 1177.5 243.5 c 128,-1,25
 1233 354 1233 354 1233 526 c 2,26,-1
 1233 553 l 2,27,28
 1233 723 1233 723 1177 834.5 c 128,-1,29
 1121 946 1121 946 1009 946 c 256,30,31
 897 946 897 946 841.5 834.5 c 128,-1,32
 786 723 786 723 786 553 c 2,33,-1
 786 526 l 2,20,21
EndSplineSet
EndChar

StartChar: uni044F
Encoding: 1103 1103 507
Width: 1007
GlyphClass: 1
Flags: W
LayerCount: 2
Fore
SplineSet
877 1082 m 1,0,-1
 877 0 l 1,1,-1
 674 0 l 1,2,-1
 674 413 l 1,3,-1
 487 413 l 1,4,-1
 276 0 l 1,5,-1
 65 0 l 1,6,-1
 293 445 l 1,7,8
 201 484 201 484 151.5 563 c 128,-1,9
 102 642 102 642 102 745 c 0,10,11
 102 893 102 893 203 987.5 c 128,-1,12
 304 1082 304 1082 478 1082 c 2,13,-1
 877 1082 l 1,0,-1
306 741 m 0,14,15
 306 666 306 666 347 612.5 c 128,-1,16
 388 559 388 559 466 559 c 2,17,-1
 674 559 l 1,18,-1
 674 927 l 1,19,-1
 478 927 l 2,20,21
 393 927 393 927 349.5 872.5 c 128,-1,22
 306 818 306 818 306 741 c 0,14,15
EndSplineSet
EndChar

StartChar: uni0452
Encoding: 1106 1106 510
Width: 1009
GlyphClass: 1
Flags: W
LayerCount: 2
Fore
SplineSet
463 1232 m 1,0,-1
 318 1232 l 1,1,-1
 318 937 l 1,2,3
 364 1015 364 1015 431 1058.5 c 128,-1,4
 498 1102 498 1102 581 1102 c 0,5,6
 728 1102 728 1102 811 994 c 128,-1,7
 894 886 894 886 894 662 c 2,8,-1
 894 451 l 1,9,-1
 895 451 l 1,10,-1
 895 -74 l 2,11,12
 895 -248 895 -248 815 -342.5 c 128,-1,13
 735 -437 735 -437 592 -437 c 0,14,15
 561 -437 561 -437 535 -432.5 c 128,-1,16
 509 -428 509 -428 480 -419 c 1,17,-1
 493 -268 l 1,18,19
 508 -273 508 -273 533.5 -277.5 c 128,-1,20
 559 -282 559 -282 579 -282 c 0,21,22
 632 -282 632 -282 661.5 -227 c 128,-1,23
 691 -172 691 -172 691 -74 c 2,24,-1
 691 0 l 1,25,-1
 690 0 l 1,26,-1
 690 664 l 2,27,28
 690 813 690 813 647 878.5 c 128,-1,29
 604 944 604 944 520 944 c 0,30,31
 450 944 450 944 399.5 910 c 128,-1,32
 349 876 349 876 318 815 c 1,33,-1
 318 0 l 1,34,-1
 114 0 l 1,35,-1
 114 1232 l 1,36,-1
 -44 1232 l 1,37,-1
 -44 1356 l 1,38,-1
 114 1356 l 1,39,-1
 114 1560 l 1,40,-1
 318 1560 l 1,41,-1
 318 1356 l 1,42,-1
 463 1356 l 1,43,-1
 463 1232 l 1,0,-1
EndSplineSet
EndChar

StartChar: uni0454
Encoding: 1108 1108 512
Width: 944
GlyphClass: 1
Flags: W
LayerCount: 2
Fore
SplineSet
493 133 m 0,0,1
 568 133 568 133 618.5 191 c 128,-1,2
 669 249 669 249 669 348 c 1,3,-1
 852 348 l 1,4,-1
 854 342 l 1,5,6
 858 189 858 189 751 84 c 128,-1,7
 644 -21 644 -21 493 -21 c 0,8,9
 293 -21 293 -21 184 131.5 c 128,-1,10
 75 284 75 284 75 521 c 2,11,-1
 75 559 l 2,12,13
 75 795 75 795 184 948.5 c 128,-1,14
 293 1102 293 1102 493 1102 c 0,15,16
 655 1102 655 1102 756.5 992.5 c 128,-1,17
 858 883 858 883 855 708 c 1,18,-1
 853 703 l 1,19,-1
 669 703 l 1,20,21
 669 811 669 811 620.5 878.5 c 128,-1,22
 572 946 572 946 493 946 c 0,23,24
 388 946 388 946 336.5 851 c 128,-1,25
 285 756 285 756 279 607 c 1,26,-1
 590 607 l 1,27,-1
 590 468 l 1,28,-1
 279 468 l 1,29,30
 286 318 286 318 336.5 225.5 c 128,-1,31
 387 133 387 133 493 133 c 0,0,1
EndSplineSet
EndChar

StartChar: uni0459
Encoding: 1113 1113 517
Width: 1540
GlyphClass: 1
Flags: W
LayerCount: 2
Fore
SplineSet
893 1082 m 1,0,-1
 893 681 l 1,1,-1
 1099 681 l 2,2,3
 1275 681 1275 681 1375 587 c 128,-1,4
 1475 493 1475 493 1475 343 c 0,5,6
 1475 191 1475 191 1375 95.5 c 128,-1,7
 1275 0 1275 0 1099 0 c 2,8,-1
 689 0 l 1,9,-1
 689 925 l 1,10,-1
 441 925 l 1,11,-1
 441 613 l 2,12,13
 441 297 441 297 358.5 148.5 c 128,-1,14
 276 0 276 0 87 0 c 2,15,-1
 44 0 l 1,16,-1
 44 156 l 1,17,-1
 75 157 l 2,18,19
 160 157 160 157 199 263.5 c 128,-1,20
 238 370 238 370 238 613 c 2,21,-1
 238 1082 l 1,22,-1
 893 1082 l 1,0,-1
893 526 m 1,23,-1
 893 152 l 1,24,-1
 1099 152 l 2,25,26
 1186 152 1186 152 1228.5 208 c 128,-1,27
 1271 264 1271 264 1271 345 c 0,28,29
 1271 421 1271 421 1228.5 473.5 c 128,-1,30
 1186 526 1186 526 1099 526 c 2,31,-1
 893 526 l 1,23,-1
EndSplineSet
EndChar

StartChar: uni045A
Encoding: 1114 1114 518
Width: 1538
GlyphClass: 1
Flags: W
LayerCount: 2
Fore
SplineSet
319 662 m 1,0,-1
 687 662 l 1,1,-1
 687 1082 l 1,2,-1
 891 1082 l 1,3,-1
 891 681 l 1,4,-1
 1097 681 l 2,5,6
 1273 681 1273 681 1373 587 c 128,-1,7
 1473 493 1473 493 1473 343 c 0,8,9
 1473 191 1473 191 1373 95.5 c 128,-1,10
 1273 0 1273 0 1097 0 c 2,11,-1
 687 0 l 1,12,-1
 687 508 l 1,13,-1
 319 508 l 1,14,-1
 319 0 l 1,15,-1
 115 0 l 1,16,-1
 115 1082 l 1,17,-1
 319 1082 l 1,18,-1
 319 662 l 1,0,-1
891 526 m 1,19,-1
 891 152 l 1,20,-1
 1097 152 l 2,21,22
 1184 152 1184 152 1226.5 208 c 128,-1,23
 1269 264 1269 264 1269 345 c 0,24,25
 1269 422 1269 422 1227 474 c 128,-1,26
 1185 526 1185 526 1097 526 c 2,27,-1
 891 526 l 1,19,-1
EndSplineSet
EndChar

StartChar: uni045B
Encoding: 1115 1115 519
Width: 1009
GlyphClass: 1
Flags: W
LayerCount: 2
Fore
SplineSet
569 1226 m 1,0,-1
 318 1226 l 1,1,-1
 318 937 l 1,2,3
 364 1015 364 1015 431 1058.5 c 128,-1,4
 498 1102 498 1102 581 1102 c 0,5,6
 728 1102 728 1102 811 994 c 128,-1,7
 894 886 894 886 894 662 c 2,8,-1
 894 0 l 1,9,-1
 690 0 l 1,10,-1
 690 664 l 2,11,12
 690 813 690 813 647 878.5 c 128,-1,13
 604 944 604 944 520 944 c 0,14,15
 450 944 450 944 399.5 910 c 128,-1,16
 349 876 349 876 318 815 c 1,17,-1
 318 0 l 1,18,-1
 114 0 l 1,19,-1
 114 1226 l 1,20,-1
 6 1226 l 1,21,-1
 6 1367 l 1,22,-1
 114 1367 l 1,23,-1
 114 1560 l 1,24,-1
 318 1560 l 1,25,-1
 318 1367 l 1,26,-1
 569 1367 l 1,27,-1
 569 1226 l 1,0,-1
EndSplineSet
EndChar

StartChar: uni045F
Encoding: 1119 1119 523
Width: 1008
GlyphClass: 1
Flags: W
LayerCount: 2
Fore
SplineSet
319 1082 m 1,0,-1
 319 154 l 1,1,-1
 689 154 l 1,2,-1
 689 1082 l 1,3,-1
 893 1082 l 1,4,-1
 893 0 l 1,5,-1
 607 0 l 1,6,-1
 607 -355 l 1,7,-1
 403 -355 l 1,8,-1
 403 0 l 1,9,-1
 115 0 l 1,10,-1
 115 1082 l 1,11,-1
 319 1082 l 1,0,-1
EndSplineSet
EndChar

StartChar: uni0460
Encoding: 1120 1120 524
Width: 1690
GlyphClass: 1
Flags: W
LayerCount: 2
Fore
SplineSet
950 1431 m 1,0,1
 998 1453 998 1453 1053.5 1465 c 128,-1,2
 1109 1477 1109 1477 1170 1477 c 0,3,4
 1358 1477 1358 1477 1479.5 1308.5 c 128,-1,5
 1601 1140 1601 1140 1601 874 c 2,6,-1
 1601 586 l 2,7,8
 1601 317 1601 317 1475.5 148 c 128,-1,9
 1350 -21 1350 -21 1156 -21 c 0,10,11
 1058 -21 1058 -21 982 4.5 c 128,-1,12
 906 30 906 30 850 73 c 1,13,14
 794 30 794 30 718 4.5 c 128,-1,15
 642 -21 642 -21 545 -21 c 0,16,17
 349 -21 349 -21 224 148 c 128,-1,18
 99 317 99 317 99 586 c 2,19,-1
 99 874 l 2,20,21
 99 1140 99 1140 220 1308.5 c 128,-1,22
 341 1477 341 1477 531 1477 c 0,23,24
 591 1477 591 1477 646 1465 c 128,-1,25
 701 1453 701 1453 751 1431 c 1,26,-1
 701 1279 l 1,27,28
 668 1299 668 1299 625.5 1310 c 128,-1,29
 583 1321 583 1321 534 1321 c 0,30,31
 430 1321 430 1321 366.5 1196 c 128,-1,32
 303 1071 303 1071 303 876 c 2,33,-1
 303 586 l 2,34,35
 303 387 303 387 370 260 c 128,-1,36
 437 133 437 133 545 133 c 0,37,38
 627 133 627 133 674.5 163.5 c 128,-1,39
 722 194 722 194 748 238 c 1,40,-1
 748 580 l 1,41,-1
 577 580 l 1,42,-1
 577 728 l 1,43,-1
 1124 728 l 1,44,-1
 1124 580 l 1,45,-1
 953 580 l 1,46,-1
 953 238 l 1,47,48
 977 194 977 194 1024.5 163.5 c 128,-1,49
 1072 133 1072 133 1156 133 c 0,50,51
 1262 133 1262 133 1329.5 260 c 128,-1,52
 1397 387 1397 387 1397 586 c 2,53,-1
 1397 876 l 2,54,55
 1397 1071 1397 1071 1333.5 1196 c 128,-1,56
 1270 1321 1270 1321 1167 1321 c 0,57,58
 1116 1321 1116 1321 1074 1310 c 128,-1,59
 1032 1299 1032 1299 999 1279 c 1,60,-1
 950 1431 l 1,0,1
EndSplineSet
EndChar

StartChar: uni0461
Encoding: 1121 1121 525
Width: 1246
GlyphClass: 1
Flags: W
LayerCount: 2
Fore
SplineSet
435 325 m 1,0,-1
 456 216 l 1,1,-1
 462 216 l 1,2,-1
 490 325 l 1,3,-1
 585 691 l 1,4,-1
 482 1082 l 1,5,-1
 688 1082 l 1,6,-1
 838 325 l 1,7,-1
 857 227 l 1,8,-1
 863 227 l 1,9,-1
 869 249 l 1,10,11
 939 404 939 404 967.5 623.5 c 128,-1,12
 996 843 996 843 992 1082 c 1,13,-1
 1202 1082 l 1,14,15
 1191 787 1191 787 1125 517 c 128,-1,16
 1059 247 1059 247 944 0 c 1,17,-1
 767 0 l 1,18,-1
 663 393 l 1,19,-1
 657 393 l 1,20,-1
 538 0 l 1,21,-1
 364 0 l 1,22,-1
 32 1082 l 1,23,-1
 244 1082 l 1,24,-1
 435 325 l 1,0,-1
EndSplineSet
EndChar

StartChar: uni0462
Encoding: 1122 1122 526
Width: 1115
GlyphClass: 1
Flags: W
LayerCount: 2
Fore
SplineSet
554 1108 m 1,0,-1
 338 1108 l 1,1,-1
 338 884 l 1,2,-1
 600 884 l 2,3,4
 807 884 807 884 926.5 762 c 128,-1,5
 1046 640 1046 640 1046 445 c 0,6,7
 1046 247 1046 247 926.5 123.5 c 128,-1,8
 807 0 807 0 600 0 c 2,9,-1
 134 0 l 1,10,-1
 134 1108 l 1,11,-1
 -9 1108 l 1,12,-1
 -9 1249 l 1,13,-1
 134 1249 l 1,14,-1
 134 1456 l 1,15,-1
 338 1456 l 1,16,-1
 338 1249 l 1,17,-1
 554 1249 l 1,18,-1
 554 1108 l 1,0,-1
338 729 m 1,19,-1
 338 154 l 1,20,-1
 600 154 l 2,21,22
 719 154 719 154 781 238.5 c 128,-1,23
 843 323 843 323 843 447 c 0,24,25
 843 566 843 566 781 647.5 c 128,-1,26
 719 729 719 729 600 729 c 2,27,-1
 338 729 l 1,19,-1
EndSplineSet
EndChar

StartChar: uni0463
Encoding: 1123 1123 527
Width: 982
GlyphClass: 1
Flags: W
LayerCount: 2
Fore
SplineSet
580 1096 m 1,0,-1
 333 1096 l 1,1,-1
 333 681 l 1,2,-1
 539 681 l 2,3,4
 714 681 714 681 814.5 587 c 128,-1,5
 915 493 915 493 915 343 c 0,6,7
 915 191 915 191 814.5 95.5 c 128,-1,8
 714 0 714 0 539 0 c 2,9,-1
 129 0 l 1,10,-1
 129 1096 l 1,11,-1
 -13 1096 l 1,12,-1
 -13 1237 l 1,13,-1
 129 1237 l 1,14,-1
 129 1562 l 1,15,-1
 333 1562 l 1,16,-1
 333 1237 l 1,17,-1
 580 1237 l 1,18,-1
 580 1096 l 1,0,-1
333 525 m 1,19,-1
 333 154 l 1,20,-1
 539 154 l 2,21,22
 626 154 626 154 668.5 206 c 128,-1,23
 711 258 711 258 711 339 c 0,24,25
 711 416 711 416 668.5 470.5 c 128,-1,26
 626 525 626 525 539 525 c 2,27,-1
 333 525 l 1,19,-1
EndSplineSet
EndChar

StartChar: uni0464
Encoding: 1124 1124 528
Width: 1589
GlyphClass: 1
Flags: W
LayerCount: 2
Fore
SplineSet
1080 643 m 1,0,-1
 771 643 l 1,1,-1
 771 526 l 2,2,3
 771 336 771 336 846 235 c 128,-1,4
 921 134 921 134 1058 134 c 0,5,6
 1190 134 1190 134 1256 206.5 c 128,-1,7
 1322 279 1322 279 1322 439 c 1,8,-1
 1517 439 l 1,9,-1
 1519 433 l 1,10,11
 1523 218 1523 218 1399 99 c 128,-1,12
 1275 -20 1275 -20 1058 -20 c 0,13,14
 834 -20 834 -20 701 123.5 c 128,-1,15
 568 267 568 267 568 526 c 2,16,-1
 568 643 l 1,17,-1
 361 643 l 1,18,-1
 361 0 l 1,19,-1
 158 0 l 1,20,-1
 158 1456 l 1,21,-1
 361 1456 l 1,22,-1
 361 798 l 1,23,-1
 568 798 l 1,24,-1
 568 930 l 2,25,26
 568 1188 568 1188 699 1333 c 128,-1,27
 830 1478 830 1478 1051 1478 c 0,28,29
 1274 1478 1274 1478 1399 1362.5 c 128,-1,30
 1524 1247 1524 1247 1520 1025 c 1,31,-1
 1518 1019 l 1,32,-1
 1323 1019 l 1,33,34
 1323 1175 1323 1175 1255 1248.5 c 128,-1,35
 1187 1322 1187 1322 1051 1322 c 0,36,37
 917 1322 917 1322 844 1221.5 c 128,-1,38
 771 1121 771 1121 771 933 c 2,39,-1
 771 798 l 1,40,-1
 1080 798 l 1,41,-1
 1080 643 l 1,0,-1
EndSplineSet
EndChar

StartChar: uni0465
Encoding: 1125 1125 529
Width: 1336
GlyphClass: 1
Flags: W
LayerCount: 2
Fore
SplineSet
940 476 m 1,0,-1
 705 476 l 1,1,2
 710 322 710 322 761 227.5 c 128,-1,3
 812 133 812 133 919 133 c 0,4,5
 994 133 994 133 1044.5 191 c 128,-1,6
 1095 249 1095 249 1095 348 c 1,7,-1
 1278 348 l 1,8,-1
 1280 342 l 1,9,10
 1284 189 1284 189 1177 84 c 128,-1,11
 1070 -21 1070 -21 919 -21 c 0,12,13
 729 -21 729 -21 620.5 117.5 c 128,-1,14
 512 256 512 256 502 476 c 1,15,-1
 332 476 l 1,16,-1
 332 0 l 1,17,-1
 129 0 l 1,18,-1
 129 1082 l 1,19,-1
 332 1082 l 1,20,-1
 332 617 l 1,21,-1
 503 617 l 1,22,23
 516 831 516 831 624 966.5 c 128,-1,24
 732 1102 732 1102 919 1102 c 0,25,26
 1081 1102 1081 1102 1182.5 992.5 c 128,-1,27
 1284 883 1284 883 1281 708 c 1,28,-1
 1279 703 l 1,29,-1
 1095 703 l 1,30,31
 1095 811 1095 811 1046.5 878.5 c 128,-1,32
 998 946 998 946 919 946 c 0,33,34
 816 946 816 946 764.5 854 c 128,-1,35
 713 762 713 762 705 617 c 1,36,-1
 940 617 l 1,37,-1
 940 476 l 1,0,-1
EndSplineSet
EndChar

StartChar: uni0466
Encoding: 1126 1126 530
Width: 1123
GlyphClass: 1
Flags: W
LayerCount: 2
Fore
SplineSet
781 437 m 1,0,-1
 662 437 l 1,1,-1
 662 0 l 1,2,-1
 480 0 l 1,3,-1
 480 437 l 1,4,-1
 371 437 l 1,5,-1
 243 0 l 1,6,-1
 32 0 l 1,7,-1
 479 1456 l 1,8,-1
 677 1456 l 1,9,-1
 1119 0 l 1,10,-1
 908 0 l 1,11,-1
 781 437 l 1,0,-1
416 590 m 1,12,-1
 737 590 l 1,13,-1
 580 1130 l 1,14,-1
 574 1130 l 1,15,-1
 416 590 l 1,12,-1
EndSplineSet
EndChar

StartChar: uni0467
Encoding: 1127 1127 531
Width: 976
GlyphClass: 1
Flags: W
LayerCount: 2
Fore
SplineSet
642 308 m 1,0,-1
 559 308 l 1,1,-1
 559 0 l 1,2,-1
 400 0 l 1,3,-1
 400 308 l 1,4,-1
 318 308 l 1,5,-1
 224 0 l 1,6,-1
 17 0 l 1,7,-1
 382 1082 l 1,8,-1
 578 1082 l 1,9,-1
 945 0 l 1,10,-1
 738 0 l 1,11,-1
 642 308 l 1,0,-1
361 451 m 1,12,-1
 597 451 l 1,13,-1
 503 754 l 1,14,-1
 482 843 l 1,15,-1
 476 843 l 1,16,-1
 454 754 l 1,17,-1
 361 451 l 1,12,-1
EndSplineSet
EndChar

StartChar: uni0468
Encoding: 1128 1128 532
Width: 1615
GlyphClass: 1
Flags: W
LayerCount: 2
Fore
SplineSet
379 590 m 1,0,-1
 742 590 l 1,1,-1
 1008 1456 l 1,2,-1
 1206 1456 l 1,3,-1
 1648 0 l 1,4,-1
 1437 0 l 1,5,-1
 1310 437 l 1,6,-1
 1191 437 l 1,7,-1
 1191 0 l 1,8,-1
 1009 0 l 1,9,-1
 1009 437 l 1,10,-1
 900 437 l 1,11,-1
 772 0 l 1,12,-1
 561 0 l 1,13,-1
 695 438 l 1,14,-1
 379 438 l 1,15,-1
 379 0 l 1,16,-1
 176 0 l 1,17,-1
 176 1456 l 1,18,-1
 379 1456 l 1,19,-1
 379 590 l 1,0,-1
945 590 m 1,20,-1
 1266 590 l 1,21,-1
 1109 1130 l 1,22,-1
 1103 1130 l 1,23,-1
 945 590 l 1,20,-1
EndSplineSet
EndChar

StartChar: uni0469
Encoding: 1129 1129 533
Width: 1384
GlyphClass: 1
Flags: W
LayerCount: 2
Fore
SplineSet
367 451 m 1,0,-1
 616 451 l 1,1,-1
 829 1082 l 1,2,-1
 1025 1082 l 1,3,-1
 1392 0 l 1,4,-1
 1185 0 l 1,5,-1
 1089 308 l 1,6,-1
 1006 308 l 1,7,-1
 1006 0 l 1,8,-1
 847 0 l 1,9,-1
 847 308 l 1,10,-1
 765 308 l 1,11,-1
 671 0 l 1,12,-1
 464 0 l 1,13,-1
 568 309 l 1,14,-1
 367 309 l 1,15,-1
 367 0 l 1,16,-1
 164 0 l 1,17,-1
 164 1082 l 1,18,-1
 367 1082 l 1,19,-1
 367 451 l 1,0,-1
808 451 m 1,20,-1
 1044 451 l 1,21,-1
 950 754 l 1,22,-1
 929 843 l 1,23,-1
 923 843 l 1,24,-1
 901 754 l 1,25,-1
 808 451 l 1,20,-1
EndSplineSet
EndChar

StartChar: uni046A
Encoding: 1130 1130 534
Width: 1528
GlyphClass: 1
Flags: W
LayerCount: 2
Fore
SplineSet
960 797 m 1,0,-1
 972 797 l 2,1,2
 1186 797 1186 797 1297 695 c 128,-1,3
 1408 593 1408 593 1408 366 c 2,4,-1
 1408 0 l 1,5,-1
 1205 0 l 1,6,-1
 1205 366 l 2,7,8
 1205 519 1205 519 1149.5 580 c 128,-1,9
 1094 641 1094 641 972 641 c 2,10,-1
 878 641 l 1,11,-1
 873 630 l 1,12,-1
 873 0 l 1,13,-1
 669 0 l 1,14,-1
 669 641 l 1,15,-1
 556 641 l 2,16,17
 434 641 434 641 379 580 c 128,-1,18
 324 519 324 519 324 366 c 2,19,-1
 324 0 l 1,20,-1
 120 0 l 1,21,-1
 120 366 l 2,22,23
 120 593 120 593 230.5 695 c 128,-1,24
 341 797 341 797 556 797 c 2,25,-1
 587 797 l 1,26,-1
 242 1456 l 1,27,-1
 1305 1456 l 1,28,-1
 960 797 l 1,0,-1
774 827 m 1,29,-1
 1004 1300 l 1,30,-1
 544 1300 l 1,31,-1
 774 827 l 1,29,-1
EndSplineSet
EndChar

StartChar: uni046B
Encoding: 1131 1131 535
Width: 1304
GlyphClass: 1
Flags: W
LayerCount: 2
Fore
SplineSet
118 0 m 1,0,-1
 118 180 l 2,1,2
 118 392 118 392 209.5 492 c 128,-1,3
 301 592 301 592 477 601 c 1,4,-1
 223 1082 l 1,5,-1
 1093 1082 l 1,6,-1
 838 600 l 1,7,8
 1007 588 1007 588 1096 487.5 c 128,-1,9
 1185 387 1185 387 1185 180 c 2,10,-1
 1185 0 l 1,11,-1
 981 0 l 1,12,-1
 981 180 l 2,13,14
 981 331 981 331 935 391 c 128,-1,15
 889 451 889 451 788 451 c 2,16,-1
 759 451 l 1,17,-1
 756 445 l 1,18,-1
 756 0 l 1,19,-1
 553 0 l 1,20,-1
 553 451 l 1,21,-1
 515 451 l 2,22,23
 413 451 413 451 367.5 391 c 128,-1,24
 322 331 322 331 322 180 c 2,25,-1
 322 0 l 1,26,-1
 118 0 l 1,0,-1
654 631 m 1,27,-1
 660 632 l 1,28,-1
 801 938 l 1,29,-1
 512 938 l 1,30,-1
 654 631 l 1,27,-1
EndSplineSet
EndChar

StartChar: uni046C
Encoding: 1132 1132 536
Width: 2028
GlyphClass: 1
Flags: W
LayerCount: 2
Fore
SplineSet
1108 642 m 1,0,-1
 298 642 l 1,1,-1
 298 797 l 1,2,-1
 1108 797 l 1,3,-1
 1108 642 l 1,0,-1
360 0 m 1,4,-1
 157 0 l 1,5,-1
 157 1456 l 1,6,-1
 360 1456 l 1,7,-1
 360 0 l 1,4,-1
1527 797 m 1,8,-1
 1539 797 l 2,9,10
 1753 797 1753 797 1864 695 c 128,-1,11
 1975 593 1975 593 1975 366 c 2,12,-1
 1975 0 l 1,13,-1
 1772 0 l 1,14,-1
 1772 366 l 2,15,16
 1772 519 1772 519 1716.5 580 c 128,-1,17
 1661 641 1661 641 1539 641 c 2,18,-1
 1445 641 l 1,19,-1
 1440 630 l 1,20,-1
 1440 0 l 1,21,-1
 1236 0 l 1,22,-1
 1236 641 l 1,23,-1
 1123 641 l 2,24,25
 1001 641 1001 641 946 580 c 128,-1,26
 891 519 891 519 891 366 c 2,27,-1
 891 0 l 1,28,-1
 687 0 l 1,29,-1
 687 366 l 2,30,31
 687 593 687 593 797.5 695 c 128,-1,32
 908 797 908 797 1123 797 c 2,33,-1
 1154 797 l 1,34,-1
 809 1456 l 1,35,-1
 1872 1456 l 1,36,-1
 1527 797 l 1,8,-1
1341 827 m 1,37,-1
 1571 1300 l 1,38,-1
 1111 1300 l 1,39,-1
 1341 827 l 1,37,-1
EndSplineSet
EndChar

StartChar: uni046D
Encoding: 1133 1133 537
Width: 1757
GlyphClass: 1
Flags: W
LayerCount: 2
Fore
SplineSet
1066 454 m 1,0,-1
 214 454 l 1,1,-1
 214 603 l 1,2,-1
 1066 603 l 1,3,-1
 1066 454 l 1,0,-1
334 0 m 1,4,-1
 131 0 l 1,5,-1
 131 1082 l 1,6,-1
 334 1082 l 1,7,-1
 334 0 l 1,4,-1
624 0 m 1,8,-1
 624 180 l 2,9,10
 624 392 624 392 715.5 492 c 128,-1,11
 807 592 807 592 983 601 c 1,12,-1
 729 1082 l 1,13,-1
 1599 1082 l 1,14,-1
 1344 600 l 1,15,16
 1513 588 1513 588 1602 487.5 c 128,-1,17
 1691 387 1691 387 1691 180 c 2,18,-1
 1691 0 l 1,19,-1
 1487 0 l 1,20,-1
 1487 180 l 2,21,22
 1487 331 1487 331 1441 391 c 128,-1,23
 1395 451 1395 451 1294 451 c 2,24,-1
 1265 451 l 1,25,-1
 1262 445 l 1,26,-1
 1262 0 l 1,27,-1
 1059 0 l 1,28,-1
 1059 451 l 1,29,-1
 1021 451 l 2,30,31
 919 451 919 451 873.5 391 c 128,-1,32
 828 331 828 331 828 180 c 2,33,-1
 828 0 l 1,34,-1
 624 0 l 1,8,-1
1160 631 m 1,35,-1
 1166 632 l 1,36,-1
 1307 938 l 1,37,-1
 1018 938 l 1,38,-1
 1160 631 l 1,35,-1
EndSplineSet
EndChar

StartChar: uni046E
Encoding: 1134 1134 538
Width: 922
GlyphClass: 1
Flags: W
LayerCount: 2
Fore
SplineSet
355 825 m 2,0,1
 474 825 474 825 530.5 888.5 c 128,-1,2
 587 952 587 952 587 1066 c 0,3,4
 587 1170 587 1170 529.5 1234.5 c 128,-1,5
 472 1299 472 1299 360 1299 c 2,6,-1
 116 1299 l 1,7,-1
 116 1456 l 1,8,-1
 360 1456 l 2,9,10
 555 1456 555 1456 672.5 1354.5 c 128,-1,11
 790 1253 790 1253 790 1070 c 0,12,13
 790 960 790 960 733 876 c 128,-1,14
 676 792 676 792 574 749 c 1,15,16
 693 709 693 709 756 620.5 c 128,-1,17
 819 532 819 532 819 403 c 0,18,19
 819 206 819 206 702 95 c 128,-1,20
 585 -16 585 -16 394 -16 c 2,21,-1
 346 -16 l 2,22,23
 287 -16 287 -16 260 -45.5 c 128,-1,24
 233 -75 233 -75 233 -129 c 0,25,26
 233 -194 233 -194 272.5 -237.5 c 128,-1,27
 312 -281 312 -281 364 -307 c 1,28,-1
 298 -431 l 1,29,30
 185 -395 185 -395 115 -312 c 128,-1,31
 45 -229 45 -229 44 -113 c 0,32,33
 44 11 44 11 122 76 c 128,-1,34
 200 141 200 141 339 141 c 2,35,-1
 387 141 l 2,36,37
 492 141 492 141 554 212 c 128,-1,38
 616 283 616 283 616 399 c 0,39,40
 616 533 616 533 548.5 600 c 128,-1,41
 481 667 481 667 352 667 c 2,42,-1
 230 667 l 1,43,-1
 230 825 l 1,44,-1
 355 825 l 2,0,1
486 1750 m 1,45,-1
 601 1900 l 1,46,-1
 783 1900 l 1,47,-1
 783 1883 l 1,48,-1
 554 1643 l 1,49,-1
 419 1643 l 1,50,-1
 191 1882 l 1,51,-1
 191 1900 l 1,52,-1
 371 1900 l 1,53,-1
 486 1750 l 1,45,-1
EndSplineSet
EndChar

StartChar: uni046F
Encoding: 1135 1135 539
Width: 883
GlyphClass: 1
Flags: W
LayerCount: 2
Fore
SplineSet
357 614 m 2,0,1
 457 614 457 614 504 657.5 c 128,-1,2
 551 701 551 701 551 780 c 0,3,4
 551 848 551 848 501.5 890.5 c 128,-1,5
 452 933 452 933 356 933 c 2,6,-1
 115 933 l 1,7,-1
 115 1082 l 1,8,-1
 356 1082 l 2,9,10
 537 1082 537 1082 646 1003.5 c 128,-1,11
 755 925 755 925 755 784 c 0,12,13
 755 706 755 706 710 644.5 c 128,-1,14
 665 583 665 583 584 547 c 1,15,16
 681 515 681 515 732.5 453 c 128,-1,17
 784 391 784 391 784 304 c 0,18,19
 784 154 784 154 677 69 c 128,-1,20
 570 -16 570 -16 396 -16 c 2,21,-1
 354 -16 l 2,22,23
 291 -16 291 -16 262.5 -45.5 c 128,-1,24
 234 -75 234 -75 234 -129 c 0,25,26
 234 -194 234 -194 272 -238 c 128,-1,27
 310 -282 310 -282 359 -307 c 1,28,-1
 293 -427 l 1,29,30
 192 -388 192 -388 122.5 -305.5 c 128,-1,31
 53 -223 53 -223 52 -113 c 0,32,33
 52 6 52 6 126.5 69 c 128,-1,34
 201 132 201 132 333 132 c 2,35,-1
 375 132 l 2,36,37
 470 132 470 132 525.5 179 c 128,-1,38
 581 226 581 226 581 304 c 0,39,40
 581 389 581 389 523 431 c 128,-1,41
 465 473 465 473 354 473 c 2,42,-1
 225 473 l 1,43,-1
 225 614 l 1,44,-1
 357 614 l 2,0,1
414 1406 m 1,45,-1
 529 1556 l 1,46,-1
 711 1556 l 1,47,-1
 711 1539 l 1,48,-1
 482 1299 l 1,49,-1
 347 1299 l 1,50,-1
 119 1538 l 1,51,-1
 119 1556 l 1,52,-1
 299 1556 l 1,53,-1
 414 1406 l 1,45,-1
EndSplineSet
EndChar

StartChar: uni0472
Encoding: 1138 1138 542
Width: 1219
GlyphClass: 1
Flags: W
LayerCount: 2
Fore
SplineSet
1119 527 m 2,0,1
 1119 268 1119 268 979 123.5 c 128,-1,2
 839 -21 839 -21 604 -21 c 0,3,4
 372 -21 372 -21 235 123.5 c 128,-1,5
 98 268 98 268 98 527 c 2,6,-1
 98 927 l 2,7,8
 98 1185 98 1185 235 1331 c 128,-1,9
 372 1477 372 1477 603 1477 c 0,10,11
 838 1477 838 1477 978.5 1331.5 c 128,-1,12
 1119 1186 1119 1186 1119 927 c 2,13,-1
 1119 527 l 2,0,1
782 707 m 0,14,15
 821 707 821 707 858 729.5 c 128,-1,16
 895 752 895 752 917 789 c 1,17,-1
 917 930 l 2,18,19
 917 1120 917 1120 835.5 1218.5 c 128,-1,20
 754 1317 754 1317 603 1317 c 0,21,22
 457 1317 457 1317 378.5 1218.5 c 128,-1,23
 300 1120 300 1120 300 930 c 2,24,-1
 300 774 l 1,25,26
 328 808 328 808 367 827.5 c 128,-1,27
 406 847 406 847 453 847 c 0,28,29
 521 847 521 847 620.5 777 c 128,-1,30
 720 707 720 707 782 707 c 0,14,15
917 622 m 1,31,32
 887 592 887 592 849.5 576.5 c 128,-1,33
 812 561 812 561 769 561 c 0,34,35
 684 561 684 561 592.5 631 c 128,-1,36
 501 701 501 701 439 701 c 0,37,38
 393 701 393 701 354 668.5 c 128,-1,39
 315 636 315 636 300 589 c 1,40,-1
 300 527 l 2,41,42
 300 335 300 335 379 236 c 128,-1,43
 458 137 458 137 604 137 c 0,44,45
 755 137 755 137 836 235.5 c 128,-1,46
 917 334 917 334 917 527 c 2,47,-1
 917 622 l 1,31,32
EndSplineSet
EndChar

StartChar: uni0473
Encoding: 1139 1139 543
Width: 1011
GlyphClass: 1
Flags: W
LayerCount: 2
Fore
SplineSet
76 553 m 2,0,1
 76 794 76 794 190 948 c 128,-1,2
 304 1102 304 1102 503 1102 c 256,3,4
 702 1102 702 1102 816.5 948 c 128,-1,5
 931 794 931 794 931 553 c 2,6,-1
 931 526 l 2,7,8
 931 284 931 284 817 131.5 c 128,-1,9
 703 -21 703 -21 505 -21 c 0,10,11
 304 -21 304 -21 190 131.5 c 128,-1,12
 76 284 76 284 76 526 c 2,13,-1
 76 553 l 2,0,1
631 541 m 0,14,15
 662 541 662 541 688.5 564 c 128,-1,16
 715 587 715 587 724 624 c 1,17,18
 713 767 713 767 657.5 856.5 c 128,-1,19
 602 946 602 946 503 946 c 0,20,21
 395 946 395 946 340.5 844.5 c 128,-1,22
 286 743 286 743 286 593 c 1,23,-1
 290 588 l 1,24,25
 305 612 305 612 333 627.5 c 128,-1,26
 361 643 361 643 395 643 c 0,27,28
 444 643 444 643 515.5 592 c 128,-1,29
 587 541 587 541 631 541 c 0,14,15
378 520 m 0,30,31
 344 520 344 520 317.5 495 c 128,-1,32
 291 470 291 470 284 432 c 1,33,34
 297 296 297 296 352 214.5 c 128,-1,35
 407 133 407 133 505 133 c 0,36,37
 607 133 607 133 661 225.5 c 128,-1,38
 715 318 715 318 719 462 c 1,39,-1
 715 466 l 1,40,41
 700 444 700 444 672.5 430.5 c 128,-1,42
 645 417 645 417 614 417 c 0,43,44
 553 417 553 417 487.5 468.5 c 128,-1,45
 422 520 422 520 378 520 c 0,30,31
EndSplineSet
EndChar

StartChar: uni0474
Encoding: 1140 1140 544
Width: 1132
GlyphClass: 1
Flags: W
LayerCount: 2
Fore
SplineSet
533 334 m 1,0,-1
 553 246 l 1,1,-1
 559 246 l 1,2,-1
 580 333 l 1,3,-1
 771 1179 l 1,4,5
 812 1331 812 1331 881 1403 c 128,-1,6
 950 1475 950 1475 1049 1475 c 0,7,8
 1075 1475 1075 1475 1097 1469 c 128,-1,9
 1119 1463 1119 1463 1140 1451 c 1,10,-1
 1120 1301 l 1,11,12
 1116 1304 1116 1304 1103 1307.5 c 128,-1,13
 1090 1311 1090 1311 1079 1311 c 0,14,15
 1035 1311 1035 1311 1005.5 1276.5 c 128,-1,16
 976 1242 976 1242 958 1157 c 1,17,-1
 655 0 l 1,18,-1
 458 0 l 1,19,-1
 22 1456 l 1,20,-1
 239 1456 l 1,21,-1
 533 334 l 1,0,-1
EndSplineSet
EndChar

StartChar: uni0475
Encoding: 1141 1141 545
Width: 904
GlyphClass: 1
Flags: W
LayerCount: 2
Fore
SplineSet
416 325 m 1,0,-1
 432 243 l 1,1,-1
 438 243 l 1,2,-1
 455 325 l 1,3,-1
 562 834 l 1,4,5
 600 971 600 971 664 1036 c 128,-1,6
 728 1101 728 1101 821 1101 c 0,7,8
 846 1101 846 1101 868 1095 c 128,-1,9
 890 1089 890 1089 911 1077 c 1,10,-1
 891 928 l 1,11,12
 886 931 886 931 873.5 934.5 c 128,-1,13
 861 938 861 938 850 938 c 0,14,15
 816 938 816 938 790 908.5 c 128,-1,16
 764 879 764 879 752 818 c 1,17,-1
 525 0 l 1,18,-1
 346 0 l 1,19,-1
 32 1082 l 1,20,-1
 244 1082 l 1,21,-1
 416 325 l 1,0,-1
EndSplineSet
EndChar

StartChar: uni047A
Encoding: 1146 1146 550
Width: 1219
GlyphClass: 1
Flags: W
LayerCount: 2
Fore
SplineSet
690 1196 m 1,0,-1
 529 1196 l 1,1,-1
 529 1587 l 1,2,-1
 690 1587 l 1,3,-1
 690 1196 l 1,0,-1
691 -140 m 1,4,-1
 530 -140 l 1,5,-1
 530 259 l 1,6,-1
 691 259 l 1,7,-1
 691 -140 l 1,4,-1
1119 527 m 2,8,9
 1119 268 1119 268 979 123.5 c 128,-1,10
 839 -21 839 -21 604 -21 c 0,11,12
 372 -21 372 -21 235 123.5 c 128,-1,13
 98 268 98 268 98 527 c 2,14,-1
 98 927 l 2,15,16
 98 1185 98 1185 235 1331 c 128,-1,17
 372 1477 372 1477 603 1477 c 0,18,19
 838 1477 838 1477 978.5 1331.5 c 128,-1,20
 1119 1186 1119 1186 1119 927 c 2,21,-1
 1119 527 l 2,8,9
917 930 m 2,22,23
 917 1120 917 1120 835.5 1218.5 c 128,-1,24
 754 1317 754 1317 603 1317 c 0,25,26
 457 1317 457 1317 378.5 1218.5 c 128,-1,27
 300 1120 300 1120 300 930 c 2,28,-1
 300 527 l 2,29,30
 300 335 300 335 379 236 c 128,-1,31
 458 137 458 137 604 137 c 0,32,33
 755 137 755 137 836 235.5 c 128,-1,34
 917 334 917 334 917 527 c 2,35,-1
 917 930 l 2,22,23
EndSplineSet
EndChar

StartChar: uni047B
Encoding: 1147 1147 551
Width: 1009
GlyphClass: 1
Flags: W
LayerCount: 2
Fore
SplineSet
586 830 m 1,0,-1
 425 830 l 1,1,-1
 425 1207 l 1,2,-1
 586 1207 l 1,3,-1
 586 830 l 1,0,-1
584 -126 m 1,4,-1
 423 -126 l 1,5,-1
 423 256 l 1,6,-1
 584 256 l 1,7,-1
 584 -126 l 1,4,-1
76 553 m 2,8,9
 76 794 76 794 190 948 c 128,-1,10
 304 1102 304 1102 503 1102 c 256,11,12
 702 1102 702 1102 816.5 948 c 128,-1,13
 931 794 931 794 931 553 c 2,14,-1
 931 526 l 2,15,16
 931 284 931 284 817 131.5 c 128,-1,17
 703 -21 703 -21 505 -21 c 0,18,19
 304 -21 304 -21 190 131.5 c 128,-1,20
 76 284 76 284 76 526 c 2,21,-1
 76 553 l 2,8,9
280 526 m 2,22,23
 280 353 280 353 335.5 243 c 128,-1,24
 391 133 391 133 505 133 c 0,25,26
 616 133 616 133 671.5 243.5 c 128,-1,27
 727 354 727 354 727 526 c 2,28,-1
 727 553 l 2,29,30
 727 723 727 723 671 834.5 c 128,-1,31
 615 946 615 946 503 946 c 256,32,33
 391 946 391 946 335.5 834.5 c 128,-1,34
 280 723 280 723 280 553 c 2,35,-1
 280 526 l 2,22,23
EndSplineSet
EndChar

